<?xml version="1.0" encoding="utf-8"?>
<!-- Generator: Adobe Illustrator 27.1.1, SVG Export Plug-In . SVG Version: 6.00 Build 0)  -->
<svg version="1.1" id="Layer_1" xmlns="http://www.w3.org/2000/svg" xmlns:xlink="http://www.w3.org/1999/xlink" x="0px" y="0px"
	 viewBox="0 0 570 513" style="enable-background:new 0 0 570 513;" xml:space="preserve">
<style type="text/css">
	.st0{fill:#D4ECFF;}
	.st1{fill-rule:evenodd;clip-rule:evenodd;fill:#21409A;}
	.st2{fill-rule:evenodd;clip-rule:evenodd;fill:#BEE3FF;}
	.st3{fill-rule:evenodd;clip-rule:evenodd;fill:#007CC3;}
	.st4{fill-rule:evenodd;clip-rule:evenodd;fill:#8EC2FF;}
	.st5{fill-rule:evenodd;clip-rule:evenodd;fill:#C5E3FF;}
	.st6{fill-rule:evenodd;clip-rule:evenodd;fill:#92D1FF;}
	.st7{fill-rule:evenodd;clip-rule:evenodd;fill:#0CABE3;}
	.st8{fill-rule:evenodd;clip-rule:evenodd;fill:#CBDFFF;}
	.st9{fill-rule:evenodd;clip-rule:evenodd;fill:#F1FBFF;}
	.st10{fill-rule:evenodd;clip-rule:evenodd;fill:#0065D3;}
	.st11{fill-rule:evenodd;clip-rule:evenodd;fill:#0154A3;}
	.st12{fill-rule:evenodd;clip-rule:evenodd;fill:#00195F;}
	.st13{fill-rule:evenodd;clip-rule:evenodd;fill:#007DC3;}
	.st14{fill-rule:evenodd;clip-rule:evenodd;fill:#6CA4DF;}
	.st15{fill-rule:evenodd;clip-rule:evenodd;fill:url(#SVGID_1_);}
	.st16{fill-rule:evenodd;clip-rule:evenodd;fill:#BCE5F2;}
	.st17{fill-rule:evenodd;clip-rule:evenodd;fill:url(#SVGID_00000134218541035185471760000002945284902839807893_);}
	.st18{fill-rule:evenodd;clip-rule:evenodd;fill:#FFFFFF;}
	.st19{fill-rule:evenodd;clip-rule:evenodd;fill:#D0DEFF;}
	.st20{fill-rule:evenodd;clip-rule:evenodd;fill:#CCCCCC;}
	.st21{fill-rule:evenodd;clip-rule:evenodd;fill:#999999;}
	.st22{fill-rule:evenodd;clip-rule:evenodd;fill:#8ABCF7;}
	.st23{fill-rule:evenodd;clip-rule:evenodd;fill:#061838;}
	.st24{fill-rule:evenodd;clip-rule:evenodd;fill:url(#SVGID_00000022561906304194976770000015184894222087203998_);}
	.st25{fill-rule:evenodd;clip-rule:evenodd;fill:url(#SVGID_00000160883990260071943990000013124914893653485246_);}
	.st26{fill-rule:evenodd;clip-rule:evenodd;fill:#FFC400;}
	.st27{fill-rule:evenodd;clip-rule:evenodd;fill:url(#SVGID_00000005973137860979006380000005637267184139999636_);}
	.st28{fill-rule:evenodd;clip-rule:evenodd;fill:url(#SVGID_00000130648848155308720410000014635771833126897554_);}
	.st29{fill-rule:evenodd;clip-rule:evenodd;fill:url(#SVGID_00000068677195842095965240000015692298297189200793_);}
	.st30{fill-rule:evenodd;clip-rule:evenodd;fill:url(#SVGID_00000177482065710788209340000011949864699786098061_);}
	.st31{fill-rule:evenodd;clip-rule:evenodd;fill:url(#SVGID_00000134214219860640970890000007367661098161559203_);}
	.st32{fill-rule:evenodd;clip-rule:evenodd;fill:#000A3B;}
	.st33{fill-rule:evenodd;clip-rule:evenodd;fill:#00051C;}
	.st34{fill-rule:evenodd;clip-rule:evenodd;fill:#F0F0FF;}
	.st35{fill-rule:evenodd;clip-rule:evenodd;fill:#CB2069;}
	.st36{fill-rule:evenodd;clip-rule:evenodd;fill:url(#SVGID_00000141438738792298170530000008319051556434638757_);}
	.st37{fill-rule:evenodd;clip-rule:evenodd;fill:url(#SVGID_00000060741650577266821420000001968569703537489536_);}
	.st38{fill-rule:evenodd;clip-rule:evenodd;fill:url(#SVGID_00000067929223984630158920000003749109730924940676_);}
	.st39{fill-rule:evenodd;clip-rule:evenodd;fill:url(#SVGID_00000017477064637228978710000007880605717415556265_);}
	.st40{fill-rule:evenodd;clip-rule:evenodd;fill:#DCDCFA;}
	.st41{fill-rule:evenodd;clip-rule:evenodd;fill:#E1D7BA;}
	.st42{fill-rule:evenodd;clip-rule:evenodd;fill:#FFFBF0;}
	.st43{fill-rule:evenodd;clip-rule:evenodd;fill:#3347BB;}
	.st44{fill-rule:evenodd;clip-rule:evenodd;fill:#F3EBD6;}
	.st45{fill-rule:evenodd;clip-rule:evenodd;fill:#231F20;}
	.st46{fill-rule:evenodd;clip-rule:evenodd;fill:#343741;}
	.st47{fill-rule:evenodd;clip-rule:evenodd;fill:#FFAA83;}
	.st48{fill-rule:evenodd;clip-rule:evenodd;fill:#ED9870;}
	.st49{fill-rule:evenodd;clip-rule:evenodd;fill:#CE7C56;}
	.st50{fill-rule:evenodd;clip-rule:evenodd;fill:#333333;}
	.st51{fill-rule:evenodd;clip-rule:evenodd;fill:#BC4074;}
	.st52{fill-rule:evenodd;clip-rule:evenodd;fill:#FFCC00;}
	.st53{fill-rule:evenodd;clip-rule:evenodd;fill:#C6DFFF;}
	.st54{fill-rule:evenodd;clip-rule:evenodd;fill:#D68D00;}
	.st55{fill-rule:evenodd;clip-rule:evenodd;fill:#273C74;}
	.st56{fill-rule:evenodd;clip-rule:evenodd;fill:#132146;}
	.st57{fill-rule:evenodd;clip-rule:evenodd;fill:#DDA274;}
	.st58{fill-rule:evenodd;clip-rule:evenodd;fill:#58708C;}
	.st59{opacity:0.5;fill-rule:evenodd;clip-rule:evenodd;fill:#E0F6FF;}
	.st60{fill-rule:evenodd;clip-rule:evenodd;fill:#2C3E54;}
	.st61{fill-rule:evenodd;clip-rule:evenodd;fill:#BFD8DF;}
	.st62{fill-rule:evenodd;clip-rule:evenodd;fill:#DEDEDE;}
	.st63{fill-rule:evenodd;clip-rule:evenodd;fill:#826448;}
</style>
<path class="st0" d="M431.7,104.1c-39.6-3.3-162.5-16.6-237-51.2C56.5-11.4,26.5,131.3,17.7,208C7.4,296.9-6.8,386.2,121.4,439.5
	c128.2,53.3,262.8,3.5,326.2-31.3c63.4-34.8,92.6-97.9,106.2-126.3C565.8,256.8,570.2,115.5,431.7,104.1z"/>
<g>
	<polygon class="st1" points="154.2,74.4 161.4,70 196.4,98.8 189.3,103.1 	"/>
	<path class="st2" d="M194.9,328L194.9,328l-3.6-2.2c0.9-0.4,1.9-1,3-1.8c1.2-0.7,2.1-1.2,2.9-1.7l16.5,9.5l14.6-8.7l1.8,1l16.5,9.7
		l-18.2,10.7L210.2,334v2.8L194.9,328z"/>
	<path class="st3" d="M359.6,329.2c-1.4,1.7-2.8,3.4-4.2,5c-5.5-3.3-11-6.5-16.5-9.8v-7.6C346,321,352.9,325.1,359.6,329.2z"/>
	<path class="st1" d="M186.1,338.7c-0.1,0-0.1-0.1-0.2-0.1c-1.5-0.8-3.3-1.2-5.4-1.2c-2,0.1-3.8,0.5-5.3,1.3
		c-0.1,0.1-0.3,0.1-0.4,0.2c0,0-0.1,0-0.1,0.1l-8.6-4.9l-0.1-0.1c2.6-1.6,5.7-2.7,9.1-3.4c1.8-0.3,3.7-0.4,5.8-0.5
		c1.7,0,3.3,0.1,4.9,0.3c3.7,0.4,7,1.4,9.8,3.1l-9.2,5.5C186.3,338.8,186.2,338.7,186.1,338.7z"/>
	<path class="st3" d="M361.8,127.2l-0.1,0.2v12.2l0.1,0.1h0l-7.9,4.4h-0.1c-2.2-3.7-3.2-7.2-3.2-10.7c0-3.3,1-5.6,3-6.9l0.2-0.1
		c0.2-0.1,0.4-0.2,0.6-0.3C356.5,125.3,358.9,125.6,361.8,127.2z"/>
	<path class="st3" d="M300.9,176.7c13.7,7.9,27.1,15.6,40,23.2c-0.9,2-1.8,3.9-2.7,5.6c-9.3-5.5-18.6-11-27.9-16.5
		c-4.1-2.3-8.1-4.6-12.2-6.9c0.4-0.7,0.8-1.4,1.2-2.2C300.1,178.6,300.6,177.5,300.9,176.7z"/>
	<path class="st1" d="M368.5,221.6l0.1,0.2l0.1-0.2v0.2h0.1l-0.2,0.1v0.1v0.7l-20.3,6.7h-0.1c-1.8-5.5-2.1-10.8-0.8-16.1
		c1.4-5.2,4-9.3,7.8-12.3l12.7,19.7L368.5,221.6z"/>
	<path class="st1" d="M368.9,221.8l21.4-2.5c0-0.1,0.1-0.2,0.1-0.3l0.3-0.1c1.1,6.6,0.2,12.5-2.8,17.7c-1.2,2.2-2.7,4-4.4,5.6
		c0.5-0.5,1-1,1.4-1.5L368.9,221.8L368.9,221.8z"/>
	<path class="st1" d="M231.2,414.8l-6,3.5l-8.9-5.1c0.9-0.8,1.7-1.7,2.6-2.7c0.6-0.7,1.1-1.3,1.5-2L231.2,414.8z"/>
	<path class="st1" d="M198.8,403.1L198.8,403.1l-26.4-15.3l6.1-3.5l38,22c-0.7,0.5-1.5,1.1-2.5,1.9c-1,0.8-1.9,1.6-2.6,2.2
		L198.8,403.1z"/>
	<path class="st4" d="M289.1,206.8c0.7-1.4,1.2-2.5,1.5-3.3c13.7,7.9,27.1,15.6,40,23.2c-0.9,2-1.8,3.9-2.7,5.6
		c-9.3-5.5-18.6-11-27.9-16.5c-4-2.2-7.9-4.4-11.8-6.7v-0.7C288.5,208,288.8,207.4,289.1,206.8z"/>
	<path class="st4" d="M332.7,283.8c13.7,7.9,27.1,15.6,40,23.2c-0.9,2-1.8,3.9-2.7,5.6c-9.3-5.5-18.6-11-27.9-16.5
		c-4.1-2.3-8.1-4.5-12.2-6.9c0.4-0.7,0.8-1.4,1.2-2.2C332,285.7,332.5,284.6,332.7,283.8z"/>
	<path class="st4" d="M211.9,393c1-0.9,1.9-1.6,2.5-2.2l29.3,16.9l-6,3.5l-26.4-15.2l0.1-0.1l-1.6-1
		C210.4,394.3,211.1,393.7,211.9,393z"/>
	<path class="st5" d="M396.9,379.2c0.3,0.1,0.6,0.2,0.8,0.3l11.4,2.2c0.1,0,0.2,0,0.4,0c0.1-0.1,0.2-0.1,0.3-0.1
		c0.3-0.1,0.5-0.1,0.8-0.2c0.1,0,0.2,0,0.3,0c7.3,1.1,12.2-1.4,14.7-7.5l1.1-2.7l7.1,4c14.2,8.2,14.4,16.2,0.7,24.2l-170.6,97.9
		c-13.8,7.9-27.8,7.8-42-0.4L45.5,395.9c-10-5.8-13.1-11.5-9.2-17.1c2.8,2.3,6.6,4.8,11.2,7.4L213,481.7c7.9,4.5,15,7.6,21.3,9.3
		c8.7,2.2,16,1.6,21.8-1.8l145.1-83.8c4.8-2.9,6.4-6.3,4.6-10.1c2.5-4.6-1.3-10.3-11.4-17.1L396.9,379.2z"/>
	<path class="st6" d="M180.3,346.7c2.2,0,4-0.5,5.6-1.3l9.5,5.5h0.1c-4.1,2.5-9.1,3.8-14.9,3.9c-5.8,0.1-10.7-1-14.7-3.3l9.4-5.6
		C176.7,346.4,178.4,346.8,180.3,346.7z M354.9,200.6c2-1.6,4.2-2.7,6.4-3.2c1.5-0.5,3.1-0.8,4.7-0.8c4-0.1,7.8,0.9,11.6,3.1
		c0,0,0.1,0.1,0.1,0.1c0.1,0,0.1,0.1,0.2,0.1l-0.1,0.1l-8.9,21.9l-0.1,0.1l-0.2-0.3l-0.1,0.2v-0.2l-0.1-0.1l-0.6-1l-12.7-19.7
		L354.9,200.6z"/>
	<path class="st3" d="M289.3,229.9c-0.4-0.9-0.4-1.9-0.1-2.9c0.3-1.3,1.1-2.3,2.3-2.9c1.3-0.7,2.6-0.7,4-0.3
		c1.4,0.4,2.5,1.3,3.2,2.6c0.7,1.2,0.9,2.5,0.6,3.9c-0.3,1.3-1.1,2.3-2.4,2.9c-0.3,0.1-0.7,0.2-0.9,0.4l-0.5,20.3
		c0.7,0.3,1.3,0.7,1.9,1.2l11.1-6c-0.1-0.7-0.1-1.3,0.1-2c0.4-1.3,1.2-2.3,2.4-3c1.3-0.6,2.6-0.7,4-0.3c1.4,0.5,2.5,1.3,3.2,2.6
		c0.8,1.3,1,2.6,0.6,3.9c-0.4,1.3-1.2,2.3-2.4,2.9c-1.2,0.7-2.6,0.8-4,0.3c-1.1-0.4-2-1-2.7-1.8l-10.7,5.9c0.2,0.9,0.2,1.8,0,2.7
		c-0.4,1.3-1.2,2.3-2.4,2.9c-1.2,0.7-2.5,0.7-3.9,0.3c-1.4-0.4-2.5-1.3-3.3-2.5c-0.8-1.3-0.9-2.6-0.5-4c0.3-1.3,1.1-2.3,2.3-2.9
		c0.4-0.2,0.9-0.4,1.4-0.5l0.4-20.2c-0.8-0.2-1.4-0.5-2-1l-2.9,2.5v-4.1L289.3,229.9z"/>
	<path class="st2" d="M187.9,118.5l7.1-4.2h-0.1l10.4-6v0.1l7-4.1c2.2-1.2,4.3-1.2,6.4,0l24.2,14c1,0.5,1.5,1.1,1.5,1.7
		c0,0.1,0,0.1,0,0.2v0.2c0,0.5-0.5,1-1.5,1.6l-9.7,5.5l0.1,0.1l-2.2,1.3H231l-12.6,7.3c-2.1,1.2-4.2,1.2-6.3-0.1l-24.3-14
		c0,0,0,0-0.1,0l-0.8-2.9C187.2,118.9,187.5,118.7,187.9,118.5z M186.3,297.7c-0.1,0.2-0.1,0.4,0,0.6l-0.1-0.1l0.1,3.7
		c-0.2,0.7,0.3,1.4,1.5,2.1l24.3,14c2.1,1.2,4.2,1.2,6.3-0.1l11.7-6.7v4.3l-10.5,6c-2.6,1.5-5.2,1.5-7.7,0l-15.4-9h-0.1l-2.8-1.5
		l0.1-0.1l-11.7-6.8c-0.3-0.2-0.5-0.3-0.7-0.5c-0.8-0.6-1.2-1.1-1.2-1.7c0-0.8,0.6-1.5,2-2.3l4.4-2.5V297.7z M255.7,349l-9.1-5.3
		v-3.7l8.1,4.7l1.3,4.5C255.8,349.1,255.8,349.1,255.7,349z M312.8,375.3l24.5-14c1-0.6,1.5-1.3,1.5-1.9v-5l5.2,3
		c1.2,0.7,1.8,1.3,1.9,2c0.1,0.2,0.1,0.3,0.1,0.5c-0.2,0.7-0.9,1.3-2,1.9L314.2,379c-2.6,1.5-5.2,1.5-7.7,0l-2.8-1.6l3.2-1.8
		C308.8,376.6,310.8,376.5,312.8,375.3z M124.2,357.2l-0.3,0.8l0.7-2.4L124.2,357.2z"/>
	<path class="st7" d="M312.2,135.5l-8.3-4.8c-3-1.8-4.5-4.3-4.5-7.7v-6.8v-14.6v-3.5V83.3c0-1.7,0.4-2.8,1.1-3.2h0.1
		c0.8-0.4,1.9-0.2,3.3,0.7l70.5,40.7c3,1.7,4.5,4.3,4.5,7.7v39.7c0,1.6-0.4,2.7-1.1,3.1c0,0-0.1,0.1-0.2,0.1
		c-0.7,0.3-1.8,0.1-3.2-0.7l-9.2-5.3l-32.5-18.7l-6.6,3.8l-2.7,1.6l-11,6.4v-12.8v-3.1V135.5z M308.1,102.3l36.7,21.1v-4l-36.7-21
		V102.3z M322.2,125.4l22.7,12.9v-3.9l-22.7-12.9V125.4z M308.1,110.1l36.7,21v-3.9l-36.7-21V110.1z M369.4,152.9
		c0.1-0.1,0.2-0.1,0.3-0.2c2-1.2,3-3.5,2.9-6.9c0-3.4-1-7-3.2-10.6c-2.2-3.6-4.7-6.2-7.7-7.9l0.1-0.2c-2.9-1.6-5.3-2-7.4-1.1
		l-0.1-0.1l-0.6,0.3l-0.2,0.1c-2,1.3-3,3.6-3,6.9c0,3.5,1.1,7,3.2,10.7h0.1c2.1,3.6,4.7,6.2,7.8,7.9
		C364.7,153.7,367.2,154,369.4,152.9L369.4,152.9z"/>
	<path class="st2" d="M251.7,208.3l-6.2,3.7l-13.8-8c-0.9-0.5-1.4-1-1.6-1.5l-0.1-0.1v-0.1c0-0.1,0-0.2,0.1-0.3c0-0.1,0-0.1,0-0.2
		c0.1-0.5,0.6-1,1.6-1.6l7.1-4.1h-0.1l5.7-3.3l4.6-2.7v0.1l7-4c2.1-1.2,4.3-1.2,6.4,0l3.6,2.1l20.6,11.8c1,0.6,1.5,1.2,1.5,1.8
		c0,0.1,0,0.1,0,0.2v0.2c0,0.4-0.5,0.9-1.5,1.5l-9.7,5.5l0.1,0.1l-2.2,1.2h-0.1l-12.5,7.3c-2.1,1.2-4.2,1.2-6.3-0.1l-1.8-1
		L251.7,208.3z"/>
	<path class="st8" d="M200.6,354.8l9.6-5.5v5.2l18.1,10.7h0.1l18.2-10.7v-5.6l10,5.8l-28.3,16.2l-0.6-0.4l-13.3-7.7L200.6,354.8z
		 M285.6,387.7l-34.4-19.9l8.5-4.9l1.5,5.3l25.9,15.1h2.8l9.2-5.4l-2-7.2l8,4.6l-0.3-0.9l1.7,1c0.1,0.1,0.2,0.1,0.3,0.2l-3.2,1.8
		L285.6,387.7z"/>
	<path class="st9" d="M244.4,131.2l13.7-34.1c2.5-5.7,7.1-8.2,13.9-7.5c0.3,0,0.6,0,0.9,0.1c5.2,0.8,11.7,3.4,19.5,7.9l7,4v14.6
		l-23.6-13.6l-3.7-2.2H272l-4.9-2.8l-22.7,56.6V131.2z M474.9,216.9l-91.1-52.3v-14.3l74,42.7c18.7,10.9,25.9,21.5,21.7,31.9
		l-60,149c-1.8,4.2-4.7,6.7-8.7,7.5c-0.1,0-0.2,0-0.3,0c-0.2,0-0.5,0.1-0.8,0.2c-0.1,0-0.2,0-0.3,0.1c-0.1,0-0.3,0-0.4,0l-11.4-2.2
		c-0.2-0.1-0.5-0.2-0.8-0.3l-2.5-1c-2.9-1.2-5.9-2.8-9.2-4.7l-24.8-14.3c2.5-2.5,4.9-5,7.1-7.7c0.3-0.4,0.7-0.8,1-1.2l43.1,24.7
		l1.1-2.5l4.5-11.2l28.9-72.2l6.3-15.9l15.6-38.8l5.1-12.9L474.9,216.9z"/>
	<path class="st10" d="M270.2,99.5l-25.8,64.3v-9.6l22.7-56.6l4.9,2.8l-1.6-0.8L270.2,99.5z M370.2,348.2l42.4,24.3l-1.1,2.5
		l-43.1-24.7C369.1,349.6,369.6,348.9,370.2,348.2L370.2,348.2z"/>
	<path class="st11" d="M292.6,135c-2.7-1.5-4.8-0.5-6.2,3L266,188.4l-3.6-2.1c-2.1-1.2-4.3-1.2-6.4,0l-7,4v-0.1l-4.6,2.7v-29.2
		l25.8-64.3l0.3,0.2l5.4,3l23.6,13.6v6.8c0,3.4,1.5,6,4.5,7.7l8.3,4.8v7.7l-3.2-1.9v3.1L292.6,135z M332.6,147.3l32.5,18.7
		c-1.1,0-2.1,0-3.1,0.1c-0.8,0-1.6,0.1-2.4,0.3c-1.7,0.3-3.4,0.7-4.9,1.3L326,151.2L332.6,147.3z M395.1,176.5
		c-0.5-0.3-1-0.5-1.4-0.8c-2.9-1.6-5.7-3.1-8.3-4.2c-1.3-0.6-2.5-1.1-3.8-1.6l1.2-0.7h0.1c0.7-0.4,1.1-1.5,1.1-3.2v-1.3l91.1,52.3
		l-1.9,4.6L395.1,176.5z"/>
	<path class="st3" d="M292.5,97.6c-7.8-4.5-14.3-7.2-19.5-7.9c5.9-1.1,14.4,1.5,25.6,7.9l0.9,0.5v3.5L292.5,97.6z M293.3,403.6
		l-9.1,5.3l-3.3,1.9l-3,1.7l-2.8,1.6l-3.3,1.9l-5.1,2.9l-47.3,27.3c-0.1,0.1-0.3,0.2-0.4,0.3c-4.4,2.4-8.6,2.4-12.5,0.1h0.1
		l-23.5-13.5l-54.2-31.2l-2.7-1.6l-45.8-26.4c-3.3-1.9-4.6-4-3.8-6.3c0-0.9,0.2-1.7,0.8-2.6c0,0.8,0.6,1.6,1.9,2.4l126.1,72.8
		c2.7,1.5,5.7,1.4,8.8-0.4h0.1l113.2-65.3h0.1l1.7-1.1c8.8-5.6,16.6-11.7,23.6-18.4l7.5,4.3c-1.9,1.9-3.9,3.8-6,5.6
		c-2.6,2.3-5.4,4.6-8.2,6.8c-0.7,0.5-1.4,1-2,1.5c-2.6,2-5.3,3.8-8.2,5.7c-0.5,0.3-0.9,0.6-1.4,0.9c-0.1,0.1-0.1,0.1-0.2,0.1l-1.7,1
		c-0.1,0.1-0.3,0.1-0.4,0.2l-1,0.6l-14.1,8.1l-9.4,5.4l-2.6,1.5L296,402L293.3,403.6z M30.4,372.1c-1.3-2.4-1.4-4.6-0.3-6.6
		c0.1,0.2,0.2,0.4,0.3,0.6c1.5,2.8,4.6,5.9,9.3,9.2c2.2,1.6,4.8,3.2,7.8,4.9L213,475.7c7.9,4.5,15,7.6,21.3,9.2
		c8.7,2.2,16,1.6,21.8-1.8h0.1l145-83.7c2.2-1.2,3.7-2.6,4.6-4.1c1.8,3.8,0.3,7.2-4.6,10.1l-145.1,83.8c-5.9,3.4-13.2,3.9-21.8,1.8
		c-6.3-1.7-13.4-4.8-21.3-9.3L47.5,386.2c-4.6-2.6-8.3-5.1-11.2-7.4C33.5,376.4,31.5,374.2,30.4,372.1z M419.5,374l60-149
		c4.3-10.4-3-21.1-21.7-31.9l-74-42.7v-3.5l80,46.2c18.7,10.9,25.9,21.5,21.7,31.9l-58.9,146.3l-1.1,2.7c-2.5,6-7.4,8.5-14.7,7.5
		C414.9,380.7,417.8,378.2,419.5,374z"/>
	<path class="st12" d="M361.2,346c0.6-0.7,1.3-1.5,1.9-2.3l7.1,4.5c-0.6,0.7-1.1,1.4-1.7,2.1L361.2,346z M446.2,221.9
		c-4.8-2.7-8.5-3.4-11-2l-9.9,5.7l2.2-5.4c2.4-6,1.2-10.2-3.7-12.7h0.1l-69.1-39.9c1.6-0.6,3.2-1.1,4.9-1.3c0.8-0.2,1.6-0.3,2.4-0.3
		c1-0.1,2-0.1,3.1-0.1l9.2,5.3c1.4,0.8,2.5,1.1,3.2,0.7c0.1,0,0.1-0.1,0.2-0.1l3.7-2.1c1.2,0.5,2.5,1.1,3.8,1.6
		c2.7,1.2,5.5,2.6,8.3,4.2c0.4,0.2,0.9,0.5,1.4,0.8l78,45l-5.1,12.9L446.2,221.9z M446.1,289.2l-37.8-21.7l0.5-1.3l5.7-14.1l33.1,19
		c1.7,1,3.3,1.7,4.7,2.2L446.1,289.2z M393.4,351.8c2.8,1.6,5.4,3,7.8,4.3c6.7,3.2,12,5,16,5.3l-4.5,11.2l-42.4-24.3
		c1.8-2.2,3.5-4.5,5.1-6.8L393.4,351.8z"/>
	<path class="st2" d="M80,362.2c-1.7,0.9-2.5,1.8-2.5,2.7c-0.6,0.8-0.9,1.7-0.8,2.6c-0.8,2.3,0.5,4.4,3.8,6.3l45.8,26.4
		c-0.2,0.7,0.2,1.5,1.1,2.5c0.8,0.7,2,1.6,3.7,2.6l43.6,25c3.4,1.9,6.3,2.9,8.5,2.8l23.5,13.5h-0.1c3.9,2.3,8,2.3,12.5-0.1
		c0.1-0.1,0.3-0.2,0.4-0.3l47.3-27.3l2.8,1.6c2.8,1.6,5.4,3,7.8,4.3c10.3,5,17.4,6.5,21.2,4.3l66.9-38.4c0.7-0.4,1.1-0.8,1.3-1.2
		c1.1-1.8-0.3-4.2-4-7.3c-2.7-2.3-6.8-5.1-12.3-8.2l-4.1-2.4c2.9-2.2,5.6-4.5,8.2-6.8c2.1-1.8,4.1-3.7,6-5.6l-7.5-4.3
		c2.9-2.8,5.7-5.8,8.3-8.8l7.3,4.2c-0.3,0.4-0.6,0.8-1,1.2c-2.2,2.6-4.6,5.2-7.1,7.7l24.8,14.3c3.3,2,6.4,3.5,9.2,4.7
		c10.1,6.8,13.9,12.5,11.4,17.1c-0.9,1.5-2.4,2.9-4.6,4.1l-145,83.7h-0.1c-5.9,3.4-13.2,4-21.8,1.8c-6.3-1.6-13.4-4.6-21.3-9.2
		L47.5,380.1c-2.9-1.7-5.5-3.3-7.8-4.9c-4.7-3.3-7.8-6.4-9.3-9.2c-0.1-0.2-0.2-0.4-0.3-0.6c-1-2.2-0.9-4.3,0.3-6.2
		c0.9-1.4,2.4-2.7,4.4-4l79-45.7l29.6-17.1l36.4-21c2-1.1,4.2-1.9,6.5-2.4l0,24.5l-40.7,23.3 M124.8,336.3c0-0.2,0-0.4,0.1-0.6
		c0.1,0.1,0.2,0.2,0.3,0.3L124.8,336.3z"/>
	<path class="st13" d="M312.2,146.4l-3.2-1.9v-3.1l3.2,1.9V146.4z M407.8,247.7l-0.2,0.5L407.8,247.7L407.8,247.7L407.8,247.7z
		 M385.5,324.1c0.1-0.4,0.3-0.9,0.5-1.3c0-0.1,0-0.1,0-0.2l22.3-55.1l-0.3-0.2c0.3-0.4,0.5-0.7,0.8-1.2l-0.5,1.3l37.8,21.7
		l-28.9,72.2c-3.9-0.3-9.3-2-16-5.3c-2.4-1.2-5-2.7-7.8-4.3l-18.1-10.4C379.1,335.9,382.5,330.1,385.5,324.1z M447.7,271.1l-33.1-19
		l10.7-26.5l9.9-5.7c2.5-1.4,6.2-0.7,11,2l21.7,12.5l-15.6,38.8C450.9,272.8,449.4,272.1,447.7,271.1z"/>
	<path class="st14" d="M340.5,381.5c0,0.2-0.1,0.3-0.3,0.4l-2.9,1.6h0.2c-1,0.5-2,0.5-2.9,0l-3.2-1.8l1-0.6c0.1-0.1,0.3-0.1,0.4-0.2
		l1.7-1c0.1,0,0.1,0,0.2-0.1c0.5-0.3,1-0.6,1.4-0.9L340.5,381.5z M344.7,384l7.3,4.2c0.5,0.3,0.8,0.4,0.9,0.4
		c-0.1,0-0.3,0.2-0.6,0.4l-3,1.9c-0.9,0.4-1.8,0.3-2.8-0.2l-7.2-4.3c-0.2-0.1-0.4-0.3-0.5-0.4c0.1,0,0.3-0.1,0.5-0.4l2.8-1.6h0.3
		c0.8-0.4,1.7-0.4,2.6,0H344.7z M331.4,384.7l13.3,7.8l0.6,0.2c0,0.2-0.2,0.3-0.6,0.4l-7.2,4.3h0.2c-1.1,0.3-2,0.3-2.8,0v-0.2
		l-13.4-7.9c-0.2,0-0.4-0.1-0.5-0.3c0.1,0,0.3,0,0.5-0.1l6.9-4.4C329.5,384.3,330.6,384.3,331.4,384.7z M321.6,392.5h0.2
		c0.3,0.1,0.5,0.2,0.6,0.2c-0.1,0.3-0.3,0.5-0.7,0.6l-7.1,4.3c-1,0.5-1.9,0.5-2.8,0l-4-2.3l9.4-5.4L321.6,392.5z M315.6,399l7.4-4
		c0.9-0.5,1.8-0.5,2.8,0l7.5,4l0.3,0.5c0,0.1-0.1,0.3-0.3,0.5H333l-7.3,4.3c-1,0.5-1.9,0.5-2.8,0l-7.4-4.3c-0.1-0.2-0.2-0.4-0.3-0.5
		C315.4,399.5,315.4,399.4,315.6,399z M305.1,396.7l16.5,9.5c0.2,0.2,0.3,0.3,0.3,0.4c0,0,0.1,0.1,0.2,0.1c-0.1,0-0.2,0.1-0.4,0.4
		l-7.5,3.9v0.3c-0.7,0.5-1.5,0.5-2.4-0.3L296,402L305.1,396.7z M310,412.9c0.2,0.1,0.3,0.3,0.3,0.6c0,0.1-0.1,0.2-0.3,0.4v-0.2
		l-7.6,4.3v0.2c-0.7,0.5-1.6,0.5-2.7,0v-0.2l-15.6-9.1l9.1-5.3L310,412.9z M280.9,410.7l4.1,2.3c0.2,0.3,0.4,0.4,0.6,0.4
		c-0.1,0.1-0.3,0.2-0.5,0.2H285l-2.3,1.8l-4.8-2.9L280.9,410.7z M279.9,416.8l-2.3,1.1c-0.1,0.1-0.2,0.2-0.4,0.3
		c-0.7,0.3-1.4,0.3-2.3-0.1v-0.2l-3.2-1.9l3.3-1.9L279.9,416.8z M278.7,421c0.1,0,0.2-0.1,0.5-0.3l2.6-1.6c1.1-0.4,2-0.4,2.8,0
		l7.8,4.6c0,0.1-0.1,0.2-0.3,0.4h-0.2l-2.7,1.6c-0.9,0.5-1.6,0.5-2.4,0l-7.3-4.4C279,421.2,278.8,421.1,278.7,421z"/>
	
		<linearGradient id="SVGID_1_" gradientUnits="userSpaceOnUse" x1="-619.7123" y1="-488.4724" x2="-524.7849" y2="-488.4724" gradientTransform="matrix(1 2.128000e-03 2.128000e-03 -1 746.9238 -85.6526)">
		<stop  offset="0.3804" style="stop-color:#5FCBE3"/>
		<stop  offset="0.4627" style="stop-color:#A8EFFF"/>
	</linearGradient>
	<path class="st15" d="M127.4,402.7l1.6-0.9l-2.7-1.6C126,401,126.4,401.8,127.4,402.7z"/>
	<path class="st16" d="M183.1,433.1l-54.2-31.2l-1.6,0.9c0.8,0.7,2,1.6,3.7,2.6l43.6,25C178,432.2,180.9,433.2,183.1,433.1z"/>
	
		<linearGradient id="SVGID_00000178907187378297425670000005552720114738023055_" gradientUnits="userSpaceOnUse" x1="333.5421" y1="341.5198" x2="49.7974" y2="341.55" gradientTransform="matrix(-1 0 0 1 416.835 0)">
		<stop  offset="0.2118" style="stop-color:#29C1ED"/>
		<stop  offset="0.3569" style="stop-color:#B3E4F2"/>
	</linearGradient>
	<path style="fill-rule:evenodd;clip-rule:evenodd;fill:url(#SVGID_00000178907187378297425670000005552720114738023055_);" d="
		M186.3,296.3L85.6,358.9c0.1-0.9,38.2-27.9,38.2-28.9l62.5-36.5V296.3z M346.2,371.6l4.1,2.4c5.4,3.1,9.5,5.9,12.3,8.2
		c3.7,3.1,5.1,5.6,4,7.3c-0.5-1.3-1.9-2.9-4-4.6c-2.7-2.3-6.8-5.1-12.3-8.2l-6.2-3.5C344.8,372.6,345.5,372.1,346.2,371.6z"/>
	<path class="st18" d="M283.2,166.7c-0.8,1.8-1.6,3.6-2.4,5.6c4.5,2.5,8.9,5.1,13.3,7.6c0.8-1.8,1.8-3.5,3-5.2
		C292.6,172,287.9,169.3,283.2,166.7z M285.6,160.6c5.9,3.3,11.8,6.6,17.6,9.9c0.5-1.7,1.5-3.5,2.9-5.3c-6-3.5-12.1-7-18.2-10.4
		C287.2,156.8,286.4,158.7,285.6,160.6z M109.9,353.1l0.2,0.1c0.1,0.7,0.1,1.4,0.2,2.1c-1.5,1-2.8,2.1-3.8,3.3l-3.1-1.8l-6,3.5
		l6.6,3.9c0,0.4-0.1,0.7-0.1,1.1c0,4.3,2.7,8,8,11.1c5.3,3,11.7,4.5,19.2,4.5c0.6,0,1.2,0,1.8,0l-0.1,0l17.2,9.9l6-3.5l-13.5-7.8
		c2.8-0.7,5.3-1.8,7.7-3.1l12.3,7.2l6.1-3.5l-13.2-7.6c1.6-1.8,2.6-3.7,2.8-5.8l1.4,0.8c1.1-0.7,2.5-1.4,4.1-2.2
		c0.8-0.4,1.6-0.8,2.3-1.1l-10.8-6.3c-1.2-1.3-2.8-2.5-4.8-3.6c-2.6-1.5-5.4-2.6-8.4-3.3c0.2-0.1,0.4-0.2,0.6-0.3l-0.8-0.5
		 M144.9,324.7l36.3-20.9c0.2,0.2,0.5,0.3,0.7,0.5l11.7,6.8l-0.1,0.1l2.8,1.5h0.1l15.4,9c2.6,1.5,5.2,1.5,7.7,0l10.5-6v8.7l-1.8-1
		l-14.6,8.7l-16.5-9.5c-0.8,0.5-1.7,1-2.9,1.7c-1.1,0.7-2.1,1.3-3,1.8l3.7,2.1l-0.1,0.1l15.2,8.8v12.5l-9.6,5.5l13.8,8l-3.9,2.3
		l13.8,8c1.2-1,2.3-1.9,3.4-2.6l0.6,0.4l28.3-16.2l-10-5.8v-5.2l9.1,5.3c0.1,0.1,0.2,0.1,0.3,0.2l3.8,13.8l-8.5,4.9l34.4,19.9
		l18.1-10.4l2.8,1.6c2.6,1.5,5.2,1.5,7.7,0l29.8-17.1c1.1-0.6,1.8-1.3,2-1.9c0-0.2,0-0.3-0.1-0.5c-0.1-0.7-0.7-1.4-1.9-2l-5.2-3
		v-2.8c0.6-0.6,1.2-1.2,1.8-1.8c-0.6-0.4-1.2-0.8-1.8-1.1v-8.3c2.3,1.4,4.6,2.9,7,4.3c1.5-1.7,3-3.4,4.6-5.1
		c-3.8-2.3-7.6-4.6-11.6-7v-8.2c5.5,3.3,11,6.5,16.5,9.8c1.4-1.7,2.8-3.4,4.2-5c-6.7-4.1-13.6-8.2-20.8-12.4V311v-0.2
		c0-0.1,0-0.1,0-0.2c-0.1-0.6-0.6-1.2-1.5-1.8l-24.2-14c-2.1-1.2-4.2-1.2-6.4,0l-3.1,1.8c-0.1-0.1-0.2-0.1-0.3-0.2
		c-0.2,0.2-0.4,0.4-0.5,0.6l-3,1.7v-0.1l-10.4,6h0.1l-1.2,0.7v-9.4c1,0.6,2,1.2,3,1.8c1.4-1.7,2.8-3.4,4.2-5.2
		c-2.4-1.4-4.8-2.9-7.2-4.3v-7.9c0.7,0.4,1.3,0.8,2,1.2c1.2-2.4,2.2-4.2,2.9-5.5c-1.6-1-3.3-1.9-4.9-2.9v-1.6v-11.8
		c0-0.1,0-0.1,0-0.2V235l2.9-2.5c0.5,0.4,1.2,0.8,2,1l-0.4,20.2c-0.5,0.1-0.9,0.2-1.4,0.5c-1.2,0.6-2,1.6-2.3,2.9
		c-0.4,1.4-0.2,2.7,0.5,4c0.8,1.3,1.9,2.1,3.3,2.5c1.4,0.5,2.7,0.4,3.9-0.3c1.2-0.6,2-1.6,2.4-2.9c0.2-0.9,0.2-1.8,0-2.7l10.7-5.9
		c0.7,0.8,1.6,1.4,2.7,1.8c1.4,0.4,2.7,0.3,4-0.3c1.2-0.6,2-1.6,2.4-2.9c0.3-1.3,0.1-2.6-0.6-3.9c-0.7-1.2-1.8-2.1-3.2-2.6
		c-1.4-0.4-2.7-0.3-4,0.3c-1.2,0.7-2,1.6-2.4,3c-0.2,0.7-0.2,1.3-0.1,2l-11.1,6c-0.5-0.5-1.1-0.9-1.9-1.2l0.5-20.3
		c0.3-0.1,0.6-0.3,0.9-0.4c1.2-0.7,2-1.6,2.4-2.9c0.3-1.3,0.2-2.6-0.6-3.9c-0.8-1.3-1.8-2.1-3.2-2.6c-1.4-0.5-2.7-0.4-4,0.3
		c-1.2,0.6-2,1.6-2.3,2.9c-0.3,1-0.3,2,0.1,2.9l-1.1,1v-21.7c3.9,2.2,7.9,4.5,11.8,6.7c9.3,5.5,18.6,11,27.9,16.5
		c0.9-1.8,1.8-3.6,2.7-5.6c-12.9-7.6-26.2-15.3-40-23.2c-0.3,0.8-0.8,1.9-1.5,3.3c-0.3,0.6-0.6,1.2-0.9,1.7v-6v-0.2
		c0-0.1,0-0.1,0-0.2c-0.1-0.6-0.6-1.2-1.5-1.8L266,188.4l20.4-50.4c1.5-3.6,3.6-4.6,6.2-3l16.4,9.5l3.2,1.9v12.8l11-6.4l95.5,55.1
		c2.7,1.6,3.3,4.2,1.9,7.8l-6.7,16.6l-6.2,15.4l-0.2,0.5l-6.2,15.2l-22,54.7c-3.2,6.7-6.9,13.1-11.3,19.2c-1.2,1.6-2.4,3.2-3.6,4.8
		c-0.5,0.6-0.9,1.2-1.4,1.7c-0.6,0.8-1.3,1.5-1.9,2.3c-2.6,3-5.4,6-8.3,8.8c-6.9,6.7-14.8,12.8-23.6,18.4l-1.7,1.1h-0.1l-113.2,65.3
		h-0.1c-3.1,1.8-6.1,2-8.8,0.4L79.3,367.3c-1.3-0.8-1.9-1.6-1.9-2.4c0-0.9,0.9-1.8,2.5-2.7L144.9,324.7z M296.8,199.6
		c2.7,1.5,5.3,3,7.9,4.5c3.9,2.3,7.9,4.7,11.8,7c0.2-0.7,0.5-1.4,0.8-2.1c0.7-1.3,1.4-2.4,2.1-3.3c-6.9-4-13.9-8.1-20.9-12.2
		c-0.1,0.9-0.4,2.2-0.9,3.7C297.5,198.2,297.2,198.9,296.8,199.6z M295.8,192c-6-3.5-12.1-7-18.2-10.4c-0.7,1.9-1.5,3.8-2.3,5.7
		c5.9,3.3,11.8,6.6,17.6,9.9C293.4,195.7,294.4,193.9,295.8,192z M293.4,283.6c2,1.2,4.1,2.4,6.1,3.6c1.2-1.8,2.3-3.5,3.3-5.2
		c-2.3-1.4-4.7-2.8-7.1-4.2c-0.3,0.5-0.8,1.9-1.6,4.3C294,282.7,293.7,283.2,293.4,283.6z M236.8,380.3l26.4,15.2l6-3.5l-36-20.9
		c-1,1.2-2.1,2.5-3.3,3.7c-0.3,0.3-0.6,0.5-0.9,0.8L236.8,380.3L236.8,380.3z M185.9,330.3c-1.5-0.2-3.2-0.3-4.9-0.3
		c-2,0.1-3.9,0.2-5.8,0.5c-3.4,0.7-6.4,1.8-9.1,3.4l0.1,0.1c-3.8,2.2-5.8,4.8-6.2,7.8c-0.1,0.3-0.1,0.6-0.1,0.9c0,3.4,2,6.2,6,8.6
		c4.1,2.3,9,3.5,14.7,3.3c5.8-0.1,10.8-1.4,14.9-3.9h-0.1c4.1-2.5,6.2-5.5,6.2-8.9c0,0,0-0.1,0-0.2c0-3.3-2-6.1-6-8.4
		C192.9,331.8,189.6,330.7,185.9,330.3z M192,319.3l-17.3-10l-6.1,3.5l18.3,10.6C188.4,321.7,190.1,320.3,192,319.3z M174.7,345.5
		c-1.5-0.9-2.3-2-2.3-3.3c0-1.3,0.8-2.4,2.4-3.3c0,0,0-0.1,0.1-0.1c0.1-0.1,0.2-0.1,0.4-0.2c1.5-0.8,3.2-1.2,5.3-1.3
		c2.1,0,3.9,0.4,5.4,1.2c0.1,0,0.1,0.1,0.2,0.1c0.1,0.1,0.3,0.2,0.5,0.3c1.2,0.8,1.8,1.8,1.8,3c0,1.3-0.8,2.4-2.4,3.3
		c0,0-0.1,0.1-0.1,0.1c-1.6,0.9-3.5,1.3-5.6,1.3c-1.9,0.1-3.6-0.3-5-1C175.1,345.6,174.9,345.6,174.7,345.5z M197.5,373.4l26.4,15.2
		l-0.1,0.1l9.9,5.7c1-0.6,2.2-1.3,3.8-2c1-0.5,1.9-0.9,2.7-1.2l-36.7-21.2L197.5,373.4z M181.2,372.9l-11.5-6.6
		c-1.5,1-3.4,2.2-5.7,3.6l11.3,6.5L181.2,372.9z M184.9,380.6l20.9,12.1c0.8-0.7,1.9-1.5,3.3-2.3c0.9-0.5,1.7-0.9,2.4-1.3l-20.6-12
		L184.9,380.6z M124.1,348.2l0.1,1.5c-0.2-1-0.2-2-0.2-2.9l3.1,1.8L124.1,348.2z M329.9,178.9c-6.9-4-13.9-8.1-20.9-12.2
		c-0.1,0.9-0.4,2.2-0.9,3.7c-0.2,0.9-0.5,1.7-0.9,2.3c2.7,1.5,5.3,3,7.9,4.5c3.9,2.3,7.9,4.7,11.8,7c0.2-0.7,0.5-1.4,0.8-2.1
		C328.4,180.9,329.1,179.8,329.9,178.9z M298.2,182.2c4,2.3,8.1,4.6,12.2,6.9c9.3,5.5,18.6,11,27.9,16.5c0.9-1.8,1.8-3.6,2.7-5.6
		c-12.9-7.6-26.2-15.3-40-23.2c-0.3,0.8-0.8,1.9-1.5,3.3C299,180.8,298.6,181.6,298.2,182.2z M331.1,186.8c4.1,2.3,8.1,4.7,12.1,7.1
		c0.8-2,1.5-4,2.1-5.8c-3.9-2.4-8-4.7-12.1-7.1c-0.3,0.9-0.7,2-1.2,3.4C331.8,185.3,331.5,186.1,331.1,186.8z M320.8,213.6
		c4.1,2.3,8.1,4.7,12.1,7.1c0.8-2,1.5-4,2.1-5.8c-3.9-2.4-8-4.7-12.1-7.1c-0.3,0.9-0.7,2-1.2,3.4
		C321.5,212.1,321.2,212.9,320.8,213.6z M377.9,199.9c-0.1,0-0.1,0-0.2-0.1c0,0-0.1-0.1-0.1-0.1c-3.7-2.2-7.6-3.2-11.6-3.1
		c-1.6,0.1-3.2,0.3-4.7,0.8c-2.2,0.6-4.4,1.7-6.4,3.2l0.3,0.3c-3.8,3-6.4,7.1-7.8,12.3c-1.3,5.3-1,10.6,0.8,16.1h0.1
		c2.1,5.9,5.7,10.6,10.7,13.9c2,1.4,4.1,2.4,6.1,2.9l-0.1,0.1c3.6,1.1,7.2,1.2,10.8,0.3c0.2-0.1,0.4-0.1,0.6-0.2
		c1.3-0.4,2.5-0.9,3.6-1.5l2.6-1.6l0.9-0.8c1.7-1.5,3.2-3.4,4.4-5.6c3-5.2,3.9-11.1,2.8-17.7l-0.3,0.1c-0.7-4.1-2.2-7.8-4.5-11.2
		C383.7,204.5,381,201.9,377.9,199.9L377.9,199.9z M374.7,279.3c-0.2,0.8-0.6,2.1-1.2,3.9c-0.2,0.8-0.4,1.4-0.7,1.9
		c2.2,1.3,4.3,2.6,6.5,3.9c0.7-2,1.3-3.9,1.9-5.8C379.1,281.8,376.9,280.5,374.7,279.3z M371.2,280.6c0.4-1.1,0.8-2,1.1-2.7
		c-6.4-3.8-12.8-7.6-19.3-11.3c-0.1,0.8-0.3,2-0.6,3.7c-0.3,0.9-0.6,1.8-0.9,2.5c6.1,3.5,12.3,7.1,18.4,10.8
		C370.3,282.6,370.7,281.7,371.2,280.6z M339.8,277.6c-0.2,0.9-0.5,1.7-0.9,2.3c2.7,1.5,5.3,3,7.9,4.5c3.9,2.3,7.9,4.7,11.8,7
		c0.2-0.7,0.5-1.4,0.8-2.1c0.7-1.3,1.4-2.4,2.1-3.3c-6.9-4-13.9-8.1-20.9-12.2C340.6,274.8,340.3,276,339.8,277.6z M349,267.9
		c0.6-1.2,1.1-2.1,1.5-2.8c-6.1-3.6-12.3-7.2-18.5-10.7c-0.1,0.7-0.4,1.8-0.8,3.2c-0.3,1.1-0.6,2.1-0.9,2.9
		c5.9,3.3,11.8,6.6,17.6,9.9C348.2,269.8,348.5,268.9,349,267.9z M355.1,260.4c9.5,5.5,19,11,28.3,16.6c0.6-1.9,1.3-3.8,2.1-5.7
		c-18.8-11.2-37.6-22.2-56.7-33c-0.6,1.8-1.4,3.7-2.3,5.6c9.7,5.5,19.2,11,28.5,16.4V260.4z M324.3,250c-0.8,1.9-1.5,3.8-2.2,5.8
		c1.7,0.9,3.3,1.9,4.9,2.9c0.9-2.4,1.6-4.3,2.4-5.8C327.7,251.9,326,251,324.3,250z M319.8,262c-0.7,1.9-1.5,3.8-2.3,5.7
		c5.9,3.3,11.8,6.6,17.6,9.9c0.5-1.7,1.5-3.5,2.9-5.3C331.9,268.9,325.9,265.4,319.8,262z M312.6,279.4c4.5,2.5,8.9,5.1,13.3,7.6
		c0.8-1.8,1.8-3.5,3-5.2c-4.6-2.7-9.3-5.4-14-8C314.2,275.5,313.4,277.4,312.6,279.4z M330,289.3c4,2.3,8.1,4.6,12.2,6.9
		c9.3,5.5,18.6,11,27.9,16.5c0.9-1.8,1.8-3.6,2.7-5.6c-12.9-7.6-26.2-15.3-40-23.2c-0.3,0.8-0.8,1.9-1.5,3.3
		C330.8,287.9,330.4,288.7,330,289.3z M363,293.9c4.1,2.3,8.1,4.7,12.1,7.1c0.8-2,1.5-4,2.1-5.8c-3.9-2.4-8-4.7-12.1-7.1
		c-0.3,0.9-0.7,2-1.2,3.4C363.6,292.4,363.3,293.2,363,293.9z M367,318.5c-2.5-1.5-5.1-3-7.6-4.5c-0.4,1.3-0.9,2.5-1.5,3.6
		c-0.3,0.7-0.7,1.4-1.1,2c2.3,1.4,4.7,2.8,7,4.1C364.9,321.9,366,320.1,367,318.5z M353.2,317.4c1.3-2.2,2.6-3.9,3.7-4.9
		c-2.5-1.5-5-3-7.5-4.4c-0.4,1.1-0.9,2.3-1.5,3.6c-0.4,0.8-0.8,1.5-1.2,2C348.9,314.8,351.1,316.1,353.2,317.4z M160,395l22.2,12.8
		c1.4-1.1,3.6-2.1,6.5-3.1L166,391.6L160,395z M186.5,410.4l26.1,15.1l6-3.5l-27.1-15.7c-0.9,0.7-2,1.6-3.3,2.7
		C187.6,409.6,187.1,410,186.5,410.4z M211.4,395.8L211.4,395.8l26.3,15.2l6-3.5l-29.3-16.9c-0.7,0.6-1.5,1.3-2.5,2.2
		c-0.8,0.7-1.6,1.4-2.2,1.9L211.4,395.8z M214,408.2c0.9-0.7,1.8-1.3,2.5-1.9l-38-22l-6.1,3.5l26.4,15.2l-0.1,0.1l12.6,7.3
		C212.1,409.8,213,409,214,408.2z M218.8,410.5c-0.9,1.1-1.7,2-2.6,2.7l8.9,5.1l6-3.5l-10.9-6.3
		C219.9,409.2,219.4,409.8,218.8,410.5z M238.2,397l12,6.9l6-3.5l-13.1-7.6c-0.7,0.7-1.7,1.5-2.9,2.6
		C239.5,396,238.9,396.5,238.2,397z"/>
	<path class="st19" d="M306.1,165.3c-1.4,1.9-2.4,3.6-2.9,5.3c-5.8-3.3-11.7-6.6-17.6-9.9c0.8-2,1.6-3.9,2.3-5.7
		C294,158.3,300.1,161.8,306.1,165.3z M294.2,179.8c-4.4-2.5-8.9-5-13.3-7.6c0.8-2,1.6-3.9,2.4-5.6c4.7,2.7,9.4,5.4,14,8
		C295.9,176.3,294.9,178,294.2,179.8z M109.9,353.1l0.2-0.1c0,0.1,0,0.2,0,0.3L109.9,353.1z M97.5,360.3l6-3.5l3.1,1.8
		c-1.4,1.7-2.2,3.5-2.4,5.5L97.5,360.3z M142.7,379.5l13.5,7.8l-6,3.5l-17.2-9.9l0.1,0C136.5,380.8,139.7,380.3,142.7,379.5z
		 M168.7,380.1l-6.1,3.5l-12.3-7.2c0.1,0,0.1-0.1,0.2-0.1c2.1-1.2,3.7-2.5,5-3.9L168.7,380.1z M166.1,364.2
		c-0.7,0.3-1.5,0.7-2.3,1.1c-1.6,0.8-2.9,1.5-4.1,2.2l-1.4-0.8c0.1-0.4,0.1-0.9,0.1-1.4c0-2.7-1-5.2-3.1-7.4L166.1,364.2z
		 M141.9,350.2l0.8,0.5c-0.2,0.1-0.4,0.2-0.6,0.3c-0.1,0-0.2,0-0.3-0.1C141.8,350.6,141.9,350.4,141.9,350.2z M224.3,373.1l-13.8-8
		l3.9-2.3l13.3,7.7C226.6,371.2,225.5,372,224.3,373.1z M340.6,349.9c-0.6,0.6-1.2,1.2-1.8,1.8v-2.9
		C339.4,349.2,340,349.6,340.6,349.9z M350.4,339.7c-1.6,1.7-3.2,3.4-4.6,5.1c-2.3-1.4-4.6-2.9-7-4.3v-7.8
		C342.8,335.1,346.6,337.4,350.4,339.7z M303.3,296.6c0.1,0.1,0.2,0.1,0.3,0.2l-0.8,0.5C302.9,297,303.1,296.8,303.3,296.6z
		 M295.4,292.8c-1.4,1.7-2.8,3.4-4.2,5.2c-1-0.6-2-1.2-3-1.8v-7.7C290.6,289.9,293,291.4,295.4,292.8z M293.1,276.2
		c-0.7,1.3-1.7,3.1-2.9,5.5c-0.7-0.4-1.3-0.8-2-1.2v-7.2C289.8,274.3,291.5,275.3,293.1,276.2z M298.6,193.5c7,4.1,14,8.1,20.9,12.2
		c-0.8,0.9-1.5,2-2.1,3.3c-0.3,0.7-0.6,1.4-0.8,2.1c-3.9-2.3-7.9-4.7-11.8-7c-2.6-1.5-5.3-3.1-7.9-4.5c0.3-0.6,0.6-1.4,0.9-2.3
		C298.2,195.7,298.5,194.5,298.6,193.5z M275.3,187.4c0.8-2,1.6-3.9,2.3-5.7c6.1,3.4,12.2,6.9,18.2,10.4c-1.4,1.9-2.4,3.6-2.9,5.3
		C287.1,194.1,281.2,190.7,275.3,187.4z M295.8,277.8c2.4,1.4,4.8,2.8,7.1,4.2c-1,1.7-2.1,3.4-3.3,5.2c-2-1.2-4.1-2.4-6.1-3.6
		c0.3-0.4,0.5-1,0.7-1.5C294.9,279.7,295.5,278.3,295.8,277.8z M228.9,375.7c0.3-0.2,0.6-0.5,0.9-0.8c1.3-1.2,2.4-2.4,3.3-3.7
		l36,20.9l-6,3.5l-26.4-15.2l0.1-0.1L228.9,375.7z M168.6,312.7l6.1-3.5l17.3,10c-1.9,1-3.5,2.4-5,4L168.6,312.7z M211.6,389
		c-0.8,0.3-1.6,0.8-2.4,1.3c-1.4,0.8-2.5,1.6-3.3,2.3l-20.9-12.1l6.1-3.5L211.6,389z M163.9,369.9c2.3-1.4,4.2-2.6,5.7-3.6l11.5,6.6
		l-6,3.5L163.9,369.9z M240.2,391.1c-0.8,0.3-1.7,0.8-2.7,1.2c-1.5,0.7-2.8,1.4-3.8,2l-9.9-5.7l0.1-0.1l-26.4-15.2l6-3.5
		L240.2,391.1z M326.9,184.3c-3.9-2.3-7.9-4.7-11.8-7c-2.6-1.5-5.3-3.1-7.9-4.5c0.3-0.6,0.6-1.4,0.9-2.3c0.5-1.5,0.8-2.8,0.9-3.7
		c7,4.1,14,8.1,20.9,12.2c-0.8,0.9-1.5,2-2.1,3.3C327.4,182.9,327.1,183.6,326.9,184.3z M323,207.8c4.1,2.3,8.1,4.7,12.1,7.1
		c-0.7,1.9-1.4,3.8-2.1,5.8c-3.9-2.4-8-4.7-12.1-7.1c0.3-0.7,0.7-1.5,0.9-2.4C322.3,209.8,322.7,208.7,323,207.8z M333.3,181
		c4.1,2.3,8.1,4.7,12.1,7.1c-0.7,1.9-1.4,3.8-2.1,5.8c-3.9-2.4-8-4.7-12.1-7.1c0.3-0.7,0.7-1.5,0.9-2.4
		C332.6,183,333,181.9,333.3,181z M361.7,286c-0.8,0.9-1.5,2-2.1,3.3c-0.3,0.7-0.6,1.4-0.8,2.1c-3.9-2.3-7.9-4.7-11.8-7
		c-2.6-1.5-5.3-3.1-7.9-4.5c0.3-0.6,0.6-1.4,0.9-2.3c0.5-1.5,0.8-2.8,0.9-3.7C347.8,277.9,354.8,282,361.7,286z M329,281.8
		c-1.3,1.6-2.3,3.3-3,5.2c-4.4-2.5-8.9-5-13.3-7.6c0.8-2,1.6-3.9,2.4-5.6C319.7,276.4,324.4,279.1,329,281.8z M335.1,277.7
		c-5.8-3.3-11.7-6.6-17.6-9.9c0.8-2,1.6-3.9,2.3-5.7c6.1,3.4,12.2,6.9,18.2,10.4C336.5,274.2,335.6,276,335.1,277.7z M347.9,311.6
		c0.6-1.2,1.1-2.4,1.5-3.6c2.5,1.5,5,3,7.5,4.4c-1.1,1.1-2.4,2.7-3.7,4.9c-2.2-1.3-4.3-2.5-6.5-3.8C347,313,347.4,312.3,347.9,311.6
		z M356.7,319.5c0.4-0.6,0.8-1.3,1.1-2c0.6-1.1,1.1-2.3,1.5-3.6c2.5,1.5,5.1,3.1,7.6,4.5c-1,1.7-2.1,3.4-3.3,5.2
		C361.4,322.3,359.1,320.9,356.7,319.5z M365.1,288.1c4.1,2.3,8.1,4.7,12.1,7.1c-0.7,1.9-1.4,3.8-2.1,5.8c-3.9-2.4-8-4.7-12.1-7.1
		c0.3-0.7,0.7-1.5,0.9-2.4C364.4,290.1,364.8,289,365.1,288.1z M191.5,406.4l27.1,15.7l-6,3.5l-26.1-15.1c0.5-0.4,1.1-0.9,1.6-1.3
		C189.6,408,190.7,407.1,191.5,406.4z M188.7,404.7c-2.9,1-5.1,2-6.5,3.1L160,395l6-3.5L188.7,404.7z M243.1,392.8l13.1,7.6l-6,3.5
		l-12-6.9c0.7-0.4,1.3-1,2-1.5C241.4,394.3,242.4,393.4,243.1,392.8z"/>
	<path class="st20" d="M351.5,272.7c0.3-0.7,0.6-1.5,0.9-2.5c0.3-1.6,0.5-2.8,0.6-3.7c6.5,3.7,12.9,7.5,19.3,11.3
		c-0.3,0.7-0.7,1.6-1.1,2.7c-0.5,1.1-0.9,2-1.3,2.9C363.8,279.8,357.7,276.2,351.5,272.7z M379.4,288.9c-2.2-1.2-4.4-2.5-6.5-3.9
		c0.3-0.5,0.5-1.2,0.7-1.9c0.6-1.9,1-3.2,1.2-3.9c2.2,1.3,4.3,2.6,6.5,3.9C380.7,285.1,380,287,379.4,288.9z M330.3,260.6
		c0.3-0.8,0.7-1.8,0.9-2.9c0.4-1.5,0.6-2.6,0.8-3.2c6.2,3.5,12.3,7.1,18.5,10.7c-0.4,0.7-0.9,1.6-1.5,2.8c-0.5,1-0.9,1.8-1.1,2.5
		C342.1,267.2,336.2,263.9,330.3,260.6z M327,258.7c-1.6-1-3.3-2-4.9-2.9c0.7-2,1.5-3.9,2.2-5.8c1.7,1,3.4,1.9,5.1,2.8
		C328.7,254.3,327.9,256.3,327,258.7z"/>
	<path class="st21" d="M355.1,260.3v0.1c9.5,5.5,19,11,28.3,16.6c0.6-1.9,1.3-3.8,2.1-5.7c-18.8-11.2-37.6-22.2-56.7-33
		c-0.6,1.8-1.4,3.7-2.3,5.6C336.3,249.4,345.8,254.8,355.1,260.3z"/>
	<path class="st3" d="M377.8,172l3.7-2.1l1.2-0.7h0.1c0.7-0.4,1.1-1.5,1.1-3.2v-1.3v-14.3v-3.5v-20.6c0-3.4-1.5-6-4.5-7.7
		l-70.5-40.6c-1.5-0.9-2.6-1.1-3.3-0.7l-5,2.8c0.8-0.4,1.9-0.2,3.3,0.7l70.5,40.7c3,1.7,4.5,4.3,4.5,7.7v39.7
		C378.8,170.5,378.5,171.6,377.8,172z"/>
	<path class="st22" d="M159.9,342.7c0-0.3,0-0.6,0.1-0.9c0.3-3,2.4-5.6,6.2-7.8l8.6,4.9c-1.5,0.9-2.3,2-2.4,3.3
		c0,1.3,0.8,2.4,2.3,3.3c0.2,0.1,0.3,0.1,0.5,0.2l-9.4,5.6C161.9,349,159.9,346.1,159.9,342.7z M361.8,139.7L361.8,139.7l-0.1-12.3
		c3,1.7,5.6,4.4,7.7,7.9c2.2,3.6,3.2,7.2,3.2,10.6c0,3.3-0.9,5.6-2.9,6.9c-0.1,0-0.2,0.1-0.3,0.2l-0.1-0.1c0.1,0,0.1-0.1,0.2-0.1
		L361.8,139.7L361.8,139.7z M358.9,243.1c-5-3.3-8.5-7.9-10.7-13.9l20.3-6.7L365,246C363,245.4,360.9,244.5,358.9,243.1z
		 M385.9,207.9c2.3,3.4,3.8,7.1,4.5,11.2c0,0.1,0,0.2-0.1,0.3l-21.4,2.5l8.9-21.9C381,201.9,383.7,204.5,385.9,207.9z"/>
	<path class="st23" d="M201.7,341.8c0,0.1,0,0.1,0,0.2c0,3.4-2.1,6.4-6.2,8.9l-9.5-5.5c0,0,0-0.1,0.1-0.1c1.6-0.9,2.4-2,2.4-3.3
		c0-1.2-0.6-2.2-1.8-3l9.2-5.5C199.7,335.7,201.7,338.5,201.7,341.8z M368.6,221.9l0.2-0.1h-0.1l0.1-0.2l0.2,0.3l16,19
		c-0.5,0.5-0.9,1-1.4,1.5l-0.9,0.8l-2.6,1.6c-1.1,0.7-2.3,1.2-3.6,1.5c-0.2,0-0.4,0.1-0.6,0.2c-3.5,0.9-7.1,0.8-10.8-0.3l0.1-0.1
		l3.6-23.5V221.9z"/>
	
		<linearGradient id="SVGID_00000176044357138330987770000016565130423393840060_" gradientUnits="userSpaceOnUse" x1="47.3092" y1="153.0415" x2="62.7117" y2="126.2978" gradientTransform="matrix(-1 0 0 1 416.835 0)">
		<stop  offset="0.4863" style="stop-color:#B80065"/>
		<stop  offset="0.5333" style="stop-color:#658000"/>
	</linearGradient>
	<path style="fill-rule:evenodd;clip-rule:evenodd;fill:url(#SVGID_00000176044357138330987770000016565130423393840060_);" d="
		M354.4,126.2L354.4,126.2l-0.6,0.3C354,126.3,354.2,126.3,354.4,126.2z"/>
	
		<linearGradient id="SVGID_00000075841490525334448330000011671325642934374584_" gradientUnits="userSpaceOnUse" x1="-371.8465" y1="238.8651" x2="-320.2775" y2="238.8651" gradientTransform="matrix(-0.2943 -0.9557 -0.9459 0.326 492.6079 -186.674)">
		<stop  offset="7.450980e-02" style="stop-color:#B80065"/>
		<stop  offset="9.803919e-02" style="stop-color:#9F7900"/>
		<stop  offset="0.4784" style="stop-color:#9F7900"/>
		<stop  offset="0.5059" style="stop-color:#AA3800"/>
		<stop  offset="0.9529" style="stop-color:#AA3800"/>
		<stop  offset="0.9725" style="stop-color:#658000"/>
	</linearGradient>
	
		<polygon style="fill-rule:evenodd;clip-rule:evenodd;fill:url(#SVGID_00000075841490525334448330000011671325642934374584_);" points="
		368.5,221.6 367.9,220.6 368.5,221.6 	"/>
	<path class="st26" d="M368.5,221.6l0.1,0.1l-0.1,0.2L368.5,221.6L368.5,221.6z M368.6,221.8l0.2-0.1L368.6,221.8L368.6,221.8z"/>
	
		<linearGradient id="SVGID_00000163768965346721691160000007167553899892867757_" gradientUnits="userSpaceOnUse" x1="172.1837" y1="177.7262" x2="230.9096" y2="177.7262" gradientTransform="matrix(-1 0 0 1 416.835 0)">
		<stop  offset="0.3412" style="stop-color:#007DC3"/>
		<stop  offset="0.5725" style="stop-color:#92D1FF"/>
	</linearGradient>
	<path style="fill-rule:evenodd;clip-rule:evenodd;fill:url(#SVGID_00000163768965346721691160000007167553899892867757_);" d="
		M244.4,131.2v23v9.6V193l-5.7,3.3h0.1l-7.1,4.1c-1,0.5-1.5,1.1-1.6,1.6c0,0,0,0.1,0,0.2c0,0.1-0.1,0.2-0.1,0.3v0.1l0.1,0.1v24.3
		l-4.3,4.5l-6.5,3.7l-31.4-112.9c0,0,0.1,0,0.1,0l24.3,14c2.1,1.2,4.2,1.2,6.3,0.1l12.6-7.3h0.1l2.2-1.3l-0.1-0.1l9.7-5.5
		c1-0.6,1.5-1.1,1.5-1.6V131.2z M186.3,219.5l-0.1-2.8v-0.9l0.1,0.1c0-0.1,0-0.1-0.1-0.2v-0.2c0-0.1,0-0.1,0.1-0.2v-4.6
		c0.1,0,0.3,0,0.4-0.1l3.5,12.4l-2.4-1.4c-1-0.6-1.5-1.1-1.5-1.6v-0.3C186.3,219.7,186.3,219.6,186.3,219.5z"/>
	
		<linearGradient id="SVGID_00000170986874812952350110000007524735481528890001_" gradientUnits="userSpaceOnUse" x1="172.1838" y1="264.7783" x2="230.9097" y2="264.7783" gradientTransform="matrix(-1 0 0 1 416.835 0)">
		<stop  offset="0.3412" style="stop-color:#007DC3"/>
		<stop  offset="0.5725" style="stop-color:#92D1FF"/>
	</linearGradient>
	<path style="fill-rule:evenodd;clip-rule:evenodd;fill:url(#SVGID_00000170986874812952350110000007524735481528890001_);" d="
		M219.3,235l6.5-3.7l-5.8,6.1L219.3,235z M186.3,210.6C186.3,210.6,186.3,210.6,186.3,210.6l0.1,4.6c0,0.1,0,0.1-0.1,0.2V210.6z
		 M186.3,215.8L186.3,215.8l-0.1-0.2C186.3,215.7,186.3,215.8,186.3,215.8z M186.3,216.7l0.1,2.8c0,0.1,0,0.1-0.1,0.2V216.7z
		 M186.3,220c0.1,0.5,0.6,1.1,1.5,1.6l2.4,1.4l17,61l9-5.5l13.8-14.2v3c-0.1,0.2-0.1,0.4,0,0.6l-0.1-0.1l0.1,3.7
		c-0.1,0.2-0.1,0.4,0,0.7v39.1l-11.7,6.7c-2.1,1.3-4.2,1.3-6.3,0.1l-24.3-14c-1.2-0.7-1.7-1.4-1.5-2.1l-0.1-3.7l0.1,0.1
		c-0.1-0.2-0.1-0.4,0-0.6v-0.5v-0.9v-2.8l0-24.5L186.3,220z"/>
	
		<linearGradient id="SVGID_00000174594523237589843000000014806239149233202317_" gradientUnits="userSpaceOnUse" x1="128.4482" y1="308.1721" x2="187.1741" y2="308.1721" gradientTransform="matrix(-1 0 0 1 416.835 0)">
		<stop  offset="0.3412" style="stop-color:#0CABE3"/>
		<stop  offset="0.5725" style="stop-color:#92D1FF"/>
	</linearGradient>
	<path style="fill-rule:evenodd;clip-rule:evenodd;fill:url(#SVGID_00000174594523237589843000000014806239149233202317_);" d="
		M246.6,339.9v-6l-16.5-9.7v-8.7v-4.3v-39.1c0.2,0.5,0.7,1,1.5,1.4l3.9,2.2l19.2,68.7L246.6,339.9z M280.2,310.4l-8-28.6l14.4-8.2
		c1-0.6,1.5-1.3,1.5-1.9v1.6v7.2v7.9v7.7v9.4l-5.9,3.4c-0.5,0.3-0.9,0.6-1.1,0.8L280.2,310.4z"/>
	<path class="st2" d="M288.7,316.3l17.8,10.3c2.1,1.2,4.2,1.2,6.3,0.1l12.5-7.3h0.1l2.2-1.3V318l9.6-5.5c1-0.6,1.5-1.2,1.5-1.6v-0.2
		c0-0.1,0-0.1,0-0.2c-0.1-0.6-0.6-1.2-1.5-1.8l-24.2-14c-2.1-1.2-4.2-1.2-6.4,0l-3.1,1.8l-0.8,0.5l-3,1.7v-0.1l-10.4,6h0.1l-1.2,0.7
		l-5.9,3.4c-0.5,0.3-0.9,0.6-1.1,0.8l4.9-2.8l2.4,8.9l0.1,0L288.7,316.3z"/>
	
		<linearGradient id="SVGID_00000131339809860994603660000006315742908347411862_" gradientUnits="userSpaceOnUse" x1="77.7588" y1="343.6195" x2="136.4848" y2="343.6195" gradientTransform="matrix(-1 0 0 1 416.835 0)">
		<stop  offset="0.3412" style="stop-color:#0CABE3"/>
		<stop  offset="0.5725" style="stop-color:#92D1FF"/>
	</linearGradient>
	<path style="fill-rule:evenodd;clip-rule:evenodd;fill:url(#SVGID_00000131339809860994603660000006315742908347411862_);" d="
		M288.7,316.3l16.1,58.1l1.7,1c0.1,0.1,0.2,0.1,0.3,0.2c2,1,4,1,5.9-0.2l24.5-14c1-0.6,1.5-1.3,1.5-1.9v-5v-2.8v-2.9v-8.3v-7.8v-8.2
		v-7.6V311c0,0.4-0.5,0.9-1.5,1.6l-9.6,5.5v0.1l-2.2,1.3h-0.1l-12.5,7.3c-2.1,1.2-4.2,1.1-6.3-0.1L288.7,316.3z"/>
	
		<linearGradient id="SVGID_00000178167420697196102370000014568911500123969199_" gradientUnits="userSpaceOnUse" x1="128.4482" y1="242.1314" x2="187.1739" y2="242.1314" gradientTransform="matrix(-1 0 0 1 416.835 0)">
		<stop  offset="0.3412" style="stop-color:#0CABE3"/>
		<stop  offset="0.5725" style="stop-color:#92D1FF"/>
	</linearGradient>
	<path style="fill-rule:evenodd;clip-rule:evenodd;fill:url(#SVGID_00000178167420697196102370000014568911500123969199_);" d="
		M230.1,202.6c0.2,0.5,0.7,1,1.6,1.5l13.8,8l-2.9,1.7h-0.1c0,0-0.1,0-0.1,0.1l-12.5,13V202.6z M288.2,259.7c0,0.1,0,0.1,0,0.2v11.8
		c0,0.6-0.5,1.2-1.5,1.9l-14.4,8.2L254.1,217l1.8,1c2.1,1.2,4.2,1.2,6.3,0.1l12.5-7.3h0.1l2.2-1.2l-0.1-0.1l9.7-5.5
		c1-0.6,1.5-1.1,1.5-1.5v6v0.7v21.7v4.1V259.7z M231.6,273.6c-0.9-0.5-1.4-1-1.5-1.4c-0.1-0.2-0.1-0.5,0-0.7l-0.1-3.7l0.1,0.1
		c-0.1-0.2-0.1-0.4,0-0.6v-3l1.7-1.8l3.7,13.4L231.6,273.6z"/>
	<polygon class="st3" points="280.5,311.2 288.6,315.9 286.1,307 281.2,309.8 280.2,310.4 	"/>
	<polygon class="st7" points="304.8,374.4 288.7,316.3 288.6,315.9 288.6,315.9 280.5,311.2 297.1,370.7 305.1,375.3 	"/>
	<path class="st18" d="M154.2,74.4l35,28.7l-0.1,0.1l-2.4,1.9l-35-28.7L154.2,74.4z M242.6,213.8L242.6,213.8l47.3,169.5h-2.8
		l-45.7-164.1l1.1-5.3L242.6,213.8C242.5,213.8,242.6,213.8,242.6,213.8z"/>
	<path class="st7" d="M210.2,336.8V334l18.2,10.7l-0.1,20.6l-18.1-10.7v-5.2V336.8z M169,146.9l-4.6-16.3l-0.7-2.7l-11.8,11.7
		l-0.1,0.1V76.3l35,28.7l-8.4,8.3l-0.1,0.1l-0.4,0.4l-2.1,2l11.4,41l12.9,46.1l12.5,44.7l28.8-28.5l45.7,164.1l-25.9-15.1l-1.5-5.3
		l-3.8-13.8l-1.3-4.5l-19.2-68.7l-3.7-13.4l-0.9-3.1l-0.8,0.8v0L207.3,284l-17-61l-3.5-12.4L169,146.9z"/>
	<path class="st23" d="M184.4,109.7l-6,3.6l8.4-8.3l2.4-1.9l0.1-0.1l7.2-4.3L184.4,109.7z M230.1,226.8l12.5-13v0.1l-1.1,5.3
		l-28.8,28.5l1.5-4.3l5.8-6l5.8-6.1L230.1,226.8z M246.6,334v6v3.7v5.2v5.6l-18.2,10.7h-0.1l0.1-20.6L246.6,334z M163.7,127.9
		l0.7,2.7l-4.7,4.3l-7.9,4.7L163.7,127.9z M230.1,260.3L230.1,260.3l0.8-0.9l0.9,3.1l-1.7,1.8l-13.8,14.2l-9,5.5L230.1,260.3z"/>
	<polygon class="st1" points="289.9,383.3 299.1,377.9 297.1,370.7 280.5,311.2 280.2,310.4 272.2,281.8 254.1,217 251.7,208.3 
		245.5,212.1 242.6,213.8 	"/>
	<path class="st32" d="M414.5,252.1l-6.7-4.4l-0.1,0l6.2-15.4l11.3-6.6L414.5,252.1z M370.2,348.2l-7.1-4.5c0.5-0.6,0.9-1.1,1.4-1.7
		c1.3-1.6,2.5-3.2,3.6-4.8c4.3-6,8.1-12.4,11.3-19.2l22-54.7l6.6,4l0.3,0.2L386,322.6c0,0.1,0,0.1,0,0.2c-0.2,0.4-0.4,0.8-0.5,1.3
		c-2.9,6.1-6.3,11.8-10.2,17.4C373.7,343.7,372,346,370.2,348.2L370.2,348.2z"/>
	<path class="st33" d="M420.7,215.6c1.4-3.6,0.8-6.2-1.9-7.8l-95.5-55.1l2.7-1.6l28.7,16.5l69.1,39.9h-0.1c4.9,2.5,6.1,6.7,3.7,12.7
		l-2.2,5.4l-11.3,6.6L420.7,215.6z M407.6,248.2l0.2-0.5h0.1l6.7,4.4l-5.7,14.1c-0.3,0.4-0.6,0.8-0.8,1.2l-6.6-4L407.6,248.2z"/>
</g>
<g>
	<path class="st5" d="M383.4,463.5c0-3.9,2.4-7.3,7.3-10.1c3-1.7,6.3-2.9,10.1-3.6c-0.1,0.4-0.2,0.9-0.2,1.4
		c-0.3,1.5-0.4,2.6-0.5,3.2c-0.4,0.6-1.1,1.6-1.9,2.9c-0.7,1.1-1.4,2-2.1,2.7c-1.1,1.2-1.8,2.5-2.3,4c-0.5,1.6-0.6,3.1-0.3,4.6
		c0.4,0.9,1.2,1.4,2.2,1.6c0.9,0.2,1.8,0.1,2.8-0.2c1.4-0.5,2.5-0.9,3.3-1.4c0.3-0.2,0.6-0.4,0.9-0.6c-0.3,0.3-0.6,0.6-1,0.9
		c-1.5,1.4-2.2,2.8-2.1,4.3c-0.1,0.8,0.2,1.4,0.9,1.9c0.5,0.4,1.2,0.7,2.1,0.8c1.7,0.2,3.4,0.2,5,0c1.8-0.3,3.3-0.8,4.7-1.6
		c0.9-0.6,1.6-1.6,2-2.9c0.2-0.5,0.4-1.6,0.8-3.5v1.7c0.6,0.4,1.2,0.6,1.7,0.6c0.7,0,1.3-0.2,1.8-0.6c-0.1-2,0-4,0.4-6
		c0.2-1.1,0.5-2.2,0.8-3.3l12.5,7.3c-1.1,2.3-3.2,4.3-6.4,6.2c-4.9,2.8-10.7,4.2-17.6,4.2c-6.9,0-12.8-1.4-17.6-4.2
		C385.8,470.9,383.4,467.5,383.4,463.5"/>
	<path class="st34" d="M422.5,362.8c0,0.1-0.1,0.1-0.1,0.2c0,0-0.1,0-0.1-0.1C422.3,362.9,422.4,362.8,422.5,362.8z"/>
	<path class="st34" d="M405.8,464.7c-0.2,0.3-0.3,0.5-0.5,0.8c-0.4,0.5-0.9,1.1-1.7,1.7c-0.1,0.1-0.2,0.2-0.3,0.3
		c0.5-0.4,0.8-0.9,1.1-1.4c0.3-0.8,0.6-2.1,0.8-3.7c0.3-1.7,0.6-2.9,0.8-3.7c0,0.5,0.1,0.9,0.4,1.3c0.2,0.3,0.5,0.6,0.8,0.7
		C406.9,462.3,406.5,463.7,405.8,464.7z"/>
	<path class="st7" d="M458.7,343.9c-0.5,0-0.9,0.1-1.4,0.2c-1,0.1-2,0.4-2.9,0.7c0.6-1,1-2.1,1.3-3.2c0.1-0.3,0.2-0.6,0.2-0.9
		c0.3,0.3,0.5,0.5,0.7,0.8C457.4,342.4,458.1,343.3,458.7,343.9z"/>
	<path class="st7" d="M426.7,361.6c-0.4-0.4-0.7-0.8-1-1.1c-0.1-0.1-0.2-0.3-0.3-0.4l-0.8-1.4c-0.2-0.5-0.4-1.1-0.3-1.7
		c0-0.6,0.2-1.2,0.4-1.8c0.3-0.6,0.9-1.7,1.9-3.1c0-0.1,0.1-0.1,0.2-0.2l0.2-0.3c0.1-0.1,0.1-0.1,0.2-0.2c0.2-0.3,0.5-0.5,0.7-0.8
		l0.6-0.8c0.1-0.2,0.3-0.3,0.3-0.5c1.3-2,1.9-4.1,1.7-6.3c0.6,0.1,1.3,0.5,2.1,1.2c0.8,0.8,1.5,1.2,2,1.4c0.5,0,1,0,1.6-0.3
		c0.2-0.1,0.3-0.1,0.5-0.2c0.2,0.2,0.4,0.4,0.6,0.6c0.9,0.9,2,1.5,3.1,2c0.2,0.1,0.5,0.2,0.7,0.3c1.9,0.5,3.8,0.6,5.8,0.5
		c0.9-0.1,1.8-0.3,2.6-0.6l-0.1,0.1c-1.2,1.2-2.1,2.5-2.7,3.9c-0.2,0.6-0.4,1.1-0.5,1.7c-0.1,0.6-0.2,1.3-0.2,2c0,0.8,0.3,2.2,1,4.3
		c0.4,1.2,0.7,2.2,0.9,3c0.1,0.3,0.1,0.5,0.2,0.7c0,0.2,0,0.4,0,0.5c0,0.6-0.5,1.3-1.6,2c-1.1,0.8-2,1.2-2.7,1.2c-1.8,0-4.9-1-9.1-3
		C431.5,363.1,428.9,362.1,426.7,361.6z"/>
	<path class="st3" d="M449,354.6c-0.1,0.2-0.2,0.5-0.3,0.7c0,0.1,0,0.1,0,0.2l-0.1,0.2c-0.1,0.2-0.1,0.4-0.2,0.6v0
		c0,0-0.1,0.1-0.1,0.2c-0.3,1.2,0.1,2.1,1.2,2.9c0.9,0.7,2,1,3.3,1c0.2,1.1,0.5,2.4,0.7,3.9c0.3,1.9,0.6,4,0.9,6.4
		c-0.3,0.7-0.4,1.6-0.4,2.7c0,0.6,0.1,1.5,0.1,2.7c-0.2,0.9-0.6,1.7-1.3,2.4c-0.5,0.5-1.2,0.9-2,1.2c-1.4,0.5-3.1,0.7-5.1,0.7
		c-3.3,0.1-6.2-0.4-8.8-1.5c-3.1-1.4-5.2-3.4-6.1-6.1c0-0.6,0-1.8,0-3.7c0-1.6,0-2.8-0.2-3.7c-0.4-0.5-0.9-1.1-1.5-1.7
		c-0.4-0.4-0.9-0.9-1.7-1.5c-0.3-0.2-0.5-0.4-0.8-0.6c2.2,0.5,4.9,1.5,8.1,3c4.2,2,7.2,3,9.1,3c0.8,0,1.7-0.4,2.7-1.2
		c1.1-0.8,1.6-1.5,1.6-2c0-0.1,0-0.3,0-0.5c0-0.2-0.1-0.5-0.2-0.7c-0.2-0.8-0.5-1.7-0.9-3c-0.7-2.1-1-3.5-1-4.3c0-0.7,0.1-1.4,0.2-2
		c0.1-0.6,0.3-1.2,0.5-1.7c0.6-1.4,1.4-2.7,2.7-3.9c0,0,0.5-0.1,1.4-0.3c1.1-0.4,2.3-1.4,3.6-3.1c0.9-0.3,1.8-0.6,2.9-0.7
		c0.5-0.1,0.9-0.1,1.4-0.2c0.3,0.3,0.5,0.6,0.7,0.8c0.5,0.5,0.8,1.1,1,1.8c0.2,0.7,0.3,1.4,0.3,2.1c-0.3-0.5-0.7-1.2-1.2-1.9
		c-0.6-0.8-1-1.4-1.3-1.8c-1.9,1.2-3.6,2.5-5,3.9c-0.3,0.3-0.6,0.6-0.9,1c-0.1,0.1-0.2,0.2-0.2,0.2c0,0,0,0-0.1,0.1
		c0,0.1-0.1,0.1-0.1,0.2c-0.9,1.1-1.7,2.2-2.3,3.3C449.3,354,449.2,354.3,449,354.6z"/>
	<path class="st7" d="M446.7,318.5C446.7,318.5,446.7,318.5,446.7,318.5l0.1,0.1c0.7,1,1,2,0.9,3c0,0.3-0.1,0.6-0.3,0.8
		c0,0-0.1,0-0.2,0c-0.1,0.1-0.3,0.1-0.5,0.1h-0.2c-0.1,0-0.2,0-0.2-0.1l0,0c-0.1,0-0.2-0.1-0.3-0.1c-0.2-0.1-0.3-0.3-0.5-0.5
		l-0.8-1.1c-0.3-0.3-0.6-0.6-0.8-0.8c-0.2-0.2-0.4-0.4-0.6-0.5l-0.1,0c-0.2-0.2-0.4-0.3-0.6-0.4c-0.1-0.1-0.2-0.1-0.3-0.2
		c-0.1-0.1-0.3-0.1-0.5-0.2c0.4-0.6,0.8-1,1.1-1.3c0.5-0.5,0.9-0.7,1.4-0.8c0.2,0,0.3,0.1,0.4,0.1l0.1,0c0.1,0,0.1,0.1,0.2,0.1
		C445.5,317.3,446.2,317.8,446.7,318.5L446.7,318.5z"/>
	<path class="st35" d="M443.3,400.7c0.1,0.3,0.2,0.7,0.2,1c0,0.2,0.1,0.5,0.1,0.7C443.6,401.7,443.5,401.2,443.3,400.7z"/>
	<path class="st13" d="M436.7,413.7c-1.2-0.1-2.4-0.3-3.4-0.6c1.7-0.9,3.1-1.5,4.2-1.9c0.7,0.6,1.4,0.9,2.1,1c0.9,0.2,1.7,0,2.4-0.4
		c2.2-0.7,4.3-1.8,6.5-3.4c1.6-1.2,3.5-2.8,5.5-4.9c0.2-0.3,0.5-0.5,0.8-0.9c0-0.1,0-0.1,0-0.1c0,0,0,0,0.1-0.1c0,0,0.1-0.1,0.1-0.2
		c0-0.1,0.1-0.1,0.2-0.2c0,0,0-0.1,0-0.1c0-0.1,0.1-0.1,0.1-0.2c0.9-1.2,1.6-2.5,2.3-3.9c0.4-0.9,0.8-1.8,1.1-2.8
		c0.3-0.8,0.5-1.7,0.6-2.5l0,0c0-0.1,0-0.2,0-0.3c0.3-1.7,0.4-3.5,0.3-5.2c3.1,1.9,4.6,4.8,4.6,8.6l-0.5,2.9
		c-0.6,2.3-1.4,4.4-2.6,6.4c-3.6,6.1-9.5,9.2-17.7,9.2C441,414.1,438.8,413.9,436.7,413.7z"/>
	<path class="st35" d="M441.5,393.3c0.1-0.1,0.2-0.2,0.3-0.2C441.7,393.1,441.6,393.2,441.5,393.3
		C441.5,393.3,441.5,393.3,441.5,393.3z"/>
	<path class="st23" d="M459.6,387.1c0.1,1.7,0,3.5-0.3,5.2c0,0.1,0,0.2,0,0.3l0,0c-0.5,1.9-1,3.6-1.7,5.3c-0.6,1.4-1.4,2.7-2.3,3.9
		c0,0.1-0.1,0.1-0.1,0.2c0,0,0,0.1,0,0.1c-0.1,0-0.1,0.1-0.2,0.2c0,0,0,0.1-0.1,0.2c0,0-0.1,0-0.1,0.1c0,0,0,0,0,0.1
		c-0.3,0.3-0.5,0.6-0.8,0.9c-2,2.1-3.9,3.7-5.5,4.9c-2.2,1.6-4.3,2.7-6.5,3.4c-0.7,0.5-1.5,0.6-2.4,0.4c-0.7-0.1-1.4-0.5-2.1-1
		c1-0.5,1.8-0.9,2.3-1.1c0.9-0.4,1.6-0.9,2.1-1.3c1-1.3,1.6-2.9,1.7-4.6v-0.1c0-0.2,0-0.4,0-0.5c0-0.1,0-0.1,0-0.2
		c0-0.4,0-0.7,0-1.1c0-0.2,0-0.5-0.1-0.7c0-0.1,0-0.1,0-0.2c0.3-0.3,0.7-0.5,1.1-0.8c4.1-2.9,7-6,8.5-9.2c1.1-0.7,1.9-1.3,2.6-1.9
		c1.2-0.9,2.2-1.9,3.1-3c0.2-0.3,0.5-0.6,0.7-0.8c0,0.1,0,0.1,0,0.2C459.6,386.3,459.6,386.7,459.6,387.1z"/>
	<path class="st1" d="M430.7,394.4l-6.5-3.7c-0.1-0.1-0.1-0.2-0.1-0.3c-1.5-2.6-3.1-4.3-5.1-5.3c0.1-0.2,0.2-0.5,0.3-0.9
		c0,0,0-0.1,0-0.2l0-0.1c0.2-0.6,0.3-1,0.3-1.2c0.6-0.1,1.3-0.4,2.1-0.7c0.9-0.4,1.6-0.7,2-0.9c1.7-0.7,3.1-1,4.2-0.8
		c4,0.8,6,3.5,6.1,8.1c0,0.1,0,0.3,0,0.5c0,0.3-0.8,1.6-2.4,4.1C431.4,393.4,431,394,430.7,394.4z"/>
	
		<linearGradient id="SVGID_00000058566553629543273080000010024385031588153736_" gradientUnits="userSpaceOnUse" x1="-133.6302" y1="-634.9879" x2="-132.6396" y2="-634.9879" gradientTransform="matrix(5.000000e-06 1 -1 -0.5775 -207.9761 97.1657)">
		<stop  offset="0.4392" style="stop-color:#F0F0FF"/>
		<stop  offset="0.7294" style="stop-color:#FFFFFF"/>
	</linearGradient>
	<path style="fill-rule:evenodd;clip-rule:evenodd;fill:url(#SVGID_00000058566553629543273080000010024385031588153736_);" d="
		M426.8,330.1c0.1,0.6,0.2,1.2,0.5,1.7C427,331.3,426.8,330.7,426.8,330.1C426.8,330.1,426.8,330.1,426.8,330.1z"/>
	
		<linearGradient id="SVGID_00000083089704069878912910000004478998232486505896_" gradientUnits="userSpaceOnUse" x1="-157.2189" y1="-652.6915" x2="-157.1725" y2="-652.6915" gradientTransform="matrix(5.000000e-06 1 -1 -0.5775 -207.9761 97.1657)">
		<stop  offset="0.4392" style="stop-color:#F0F0FF"/>
		<stop  offset="0.7294" style="stop-color:#FFFFFF"/>
	</linearGradient>
	<path style="fill-rule:evenodd;clip-rule:evenodd;fill:url(#SVGID_00000083089704069878912910000004478998232486505896_);" d="
		M444.8,317c0,0-0.1-0.1-0.2-0.1c0,0,0.1,0,0.1,0L444.8,317z"/>
	
		<linearGradient id="SVGID_00000114767631600277693230000008808879309753019030_" gradientUnits="userSpaceOnUse" x1="-156.7525" y1="-654.6857" x2="-156.7024" y2="-654.6857" gradientTransform="matrix(5.000000e-06 1 -1 -0.5775 -207.9761 97.1657)">
		<stop  offset="0.4392" style="stop-color:#F0F0FF"/>
		<stop  offset="0.7294" style="stop-color:#FFFFFF"/>
	</linearGradient>
	<path style="fill-rule:evenodd;clip-rule:evenodd;fill:url(#SVGID_00000114767631600277693230000008808879309753019030_);" d="
		M446.7,318.6C446.7,318.5,446.7,318.5,446.7,318.6L446.7,318.6L446.7,318.6z"/>
	
		<linearGradient id="SVGID_00000031182186647053969410000012137146385966054333_" gradientUnits="userSpaceOnUse" x1="-125.2538" y1="-644.865" x2="-124.1849" y2="-644.865" gradientTransform="matrix(5.000000e-06 1 -1 -0.5775 -207.9761 97.1657)">
		<stop  offset="0.4392" style="stop-color:#F0F0FF"/>
		<stop  offset="0.7294" style="stop-color:#FFFFFF"/>
	</linearGradient>
	<path style="fill-rule:evenodd;clip-rule:evenodd;fill:url(#SVGID_00000031182186647053969410000012137146385966054333_);" d="
		M437.6,344.7l-1,0.6c-0.2,0-0.3,0.1-0.5,0.2C436.8,345.1,437.3,344.9,437.6,344.7z"/>
	<path class="st40" d="M432.4,467.5l-12.5-7.3c0.3-0.9,0.6-1.7,1-2.6c0.1-0.2,0.1-0.4,0.1-0.7l29.9,17.4l2.4-1.4l0.5-1.4l1,0.5v0
		l40.1-23.1v-2.7l-2.2-1.3v-1.3l8.8,5.1l-49.9,29.7L432.4,467.5z"/>
	<path class="st40" d="M383.4,439.1l4.9-2.9v1.7l13.1,7.6c-0.1,0.9-0.2,1.7-0.4,2.5c0,0.3-0.1,0.7-0.2,1.2L383.4,439.1"/>
	<path class="st6" d="M494.7,435.3l-40.1,23.2l-2.4-1.4l40.2-23.2l2.5,1.4L494.7,435.3z M494.7,446.3L453,470.6v-1.3l39.5-23v-1.3
		L494.7,446.3z M450.8,460.6l-30.9-17.9v0c0.2-0.7,0.5-1.4,0.9-2.2l32.4,18.7L450.8,460.6z M401,431.8l-12.8-7.4l2.3-1.3l0.9,0.5
		l9.6,5.5C401,429.9,401,430.8,401,431.8z M412.4,438.4l-3-1.7c0.1-0.3,0.1-0.5,0.2-0.8c0.2-0.5,0.3-1.1,0.4-1.5l2.7,1.6
		C412.6,436.8,412.5,437.6,412.4,438.4z"/>
	<polygon class="st23" points="453,469.3 453,470.6 494.7,446.3 494.7,449 454.7,472.2 454.7,472.1 453.8,471.4 453.7,471.6 
		453.2,473 450.8,474.4 450.8,460.6 453.2,459.3 453.8,460.2 454.7,458.5 494.7,435.3 494.7,437.8 492.5,439.1 453,462 453,466.4 	
		"/>
	<path class="st41" d="M453.7,432v-4.2l37.9-22v4.4c-0.5,0.4-1.1,0.7-1.7,1.1c-0.6,0.3-1.5,0.9-2.9,1.7c-0.7,0.4-1.4,0.8-2.3,1.3
		c-0.3,0.2-0.6,0.4-1,0.5c-0.2,0.1-0.3,0.2-0.5,0.3c-2.3,1.3-4,2.4-5.3,3.2c-3.4,2.3-7.6,5-12.7,7.9c-4.4,2.6-7.8,4.3-10.1,5.2
		c-0.3,0.1-0.6,0.2-0.9,0.3c-0.2,0-0.4,0.1-0.5,0.2C453.8,432,453.7,432,453.7,432z M453,466.4V462l39.5-22.9v4.6c0,0,0,0-0.1,0.1
		c-0.5,0.4-1.1,0.7-1.7,1.1c-1,0.6-3.1,1.8-6.4,3.6c-2.6,1.5-4.6,2.7-6,3.6c-3.5,2.4-7.9,5.1-13.2,8.2c-4.6,2.7-8.1,4.5-10.5,5.5
		c-0.3,0.1-0.6,0.2-0.9,0.3c-0.2,0.1-0.4,0.1-0.6,0.2C453.1,466.3,453.1,466.3,453,466.4z M451.9,449.6V446l41.7-24.1v4.7
		c-0.5,0.4-1.1,0.8-1.8,1.1c-0.8,0.5-2.4,1.5-4.9,2.9c-0.4,0.2-0.9,0.5-1.4,0.8c-2.7,1.5-4.7,2.7-6.1,3.6c-3.5,2.4-7.9,5.2-13.2,8.2
		c-4.6,2.7-8.1,4.5-10.5,5.4c-0.3,0.1-0.6,0.2-0.9,0.3c-0.2,0.1-0.4,0.1-0.6,0.2c0,0-0.1,0-0.2,0L451.9,449.6z"/>
	<path class="st42" d="M453.7,434.8V432c0,0,0.1,0,0.2,0c0.2-0.1,0.3-0.1,0.5-0.2c0.3-0.1,0.6-0.2,0.9-0.3c2.3-0.9,5.7-2.6,10.1-5.2
		c5.1-2.9,9.3-5.6,12.7-7.9c1.2-0.8,3-1.9,5.3-3.2c0.2-0.1,0.3-0.2,0.5-0.3c0.3-0.2,0.7-0.4,1-0.5c0.8-0.5,1.6-0.9,2.3-1.3
		c1.4-0.8,2.4-1.3,2.9-1.7c0.6-0.4,1.2-0.7,1.7-1.1v1.3v1.2L453.7,434.8z M453,469.3v-2.9c0.1,0,0.1,0,0.2,0
		c0.2-0.1,0.4-0.1,0.6-0.2c0.3-0.1,0.6-0.2,0.9-0.3c2.4-1,5.9-2.8,10.5-5.5c5.3-3.1,9.7-5.8,13.2-8.2c1.4-0.9,3.4-2.1,6-3.6
		c3.3-1.8,5.4-3,6.4-3.6c0.6-0.4,1.2-0.8,1.7-1.1c0,0,0.1,0,0.1-0.1v0.1v1.3v1.3L453,469.3z M423.8,432.9l28.1,16.7v3.6l-29.2-17
		c0.2-0.5,0.4-1,0.7-1.5C423.5,434.2,423.7,433.6,423.8,432.9z M391.5,413.7l9.3,5.5c0,0.9,0.1,1.9,0.1,2.9c0,0.5,0,1,0,1.4
		l-9.3-5.4v-1.3v-2.5V413.7z M413.1,430.7l-1.9-1.1c0.2-0.8,0.3-1.5,0.4-2.2c0.2-0.4,0.3-0.9,0.4-1.3c0-0.1,0-0.1,0-0.2l1,0.6
		c0,0.7,0,1.4,0,2.1C413.1,428.8,413.1,429.5,413.1,430.7z"/>
	<path class="st13" d="M388.3,424.4l12.8,7.4c0,0.6,0.1,1.2,0.1,1.9c0,1.1,0.1,2.7,0.3,4.8c0.1,2.7,0.1,5-0.1,7.1l-13.1-7.6v-1.7
		v-10.7V424.4z M453.2,459.3l-32.4-18.7c0.1-0.4,0.3-0.7,0.5-1.1l30.6,17.8l0.4-0.2l2.4,1.4l-0.9,1.8L453.2,459.3z M419.9,442.7
		l30.9,17.9v13.7L421,457c0.1-1-0.1-2.1-0.8-3.2c-0.7-1-1.6-1.9-2.9-2.9C417.8,448.4,418.8,445.7,419.9,442.7z M401,429.1l-9.6-5.5
		l0.6-1.2l9,5.2c0,0.6,0,1,0.1,1.4C401,429,401,429,401,429.1z M410.4,433.1l2.6,1.5c-0.1,0.5-0.1,0.9-0.2,1.3l-2.7-1.6
		C410.2,433.9,410.3,433.4,410.4,433.1z M409.4,436.6l3,1.7c-0.5,2.9-0.8,5-1,6.1c0,0.3-0.1,0.7-0.2,1.1c-0.2-0.2-0.4-0.3-0.6-0.5
		c-0.7-0.4-1.4-0.7-2.1-0.8c0-0.9,0-1.9,0.1-2.9C408.7,440,409,438.4,409.4,436.6z"/>
	<path class="st1" d="M494.7,429.9l-40.6,23.4h-2.2l41.7-24.1L494.7,429.9z M492.1,420.3l-3.5-2l1.4-0.8l3.4,2l-0.9,1.8L492.1,420.3
		z M451.9,446l-27.6-16.1c0-0.3,0.1-0.7,0.1-1c0-0.5,0-0.9,0-1.4l27.5,15.9V446z M422.2,437.3l29.7,17.3v2.7l-30.6-17.8
		C421.6,438.7,421.9,438,422.2,437.3z M454.3,437l0.1-0.2l0.9,0.7L454.3,437z M453.7,471.6l0.1-0.2l0.9,0.8L453.7,471.6z
		 M389.3,407.2l10.6,6.2c0.1,0.6,0.2,1.3,0.4,1.9c0,0.2,0.1,0.5,0.1,0.7l-8.9-5.2l-0.5-0.3l-1.7-1V407.2z M389.3,418.1l11.6,6.7
		c0,1.1,0,2,0.1,2.7l-9-5.2l-2.7-1.6V418.1z M413,423.3l-0.4-0.2l0.1-0.8c0,0.1,0.1,0.3,0.2,0.4C412.9,422.9,412.9,423.1,413,423.3z
		 M411,430.7l2.1,1.2c0,0.7,0,1.6-0.1,2.5c0,0,0,0.1,0,0.1l-2.6-1.5c0.2-0.6,0.3-1.1,0.4-1.4C410.8,431.3,410.9,431,411,430.7z"/>
	<polygon class="st43" points="493.6,419.4 495.8,418.2 495.8,431.8 492.4,433.8 452.2,457 451.9,457.2 451.9,454.6 454.1,453.3 
		494.7,429.9 494.7,421.3 493.6,421.9 451.9,446 451.9,443.5 492.1,420.3 492.7,421.2 	"/>
	<path class="st7" d="M493.6,419.4l-3.4-2l2.2-1.3l3.5,2L493.6,419.4z M492.1,420.3l-40.3,23.2l-27.5-15.9c0-1.3-0.1-2.6-0.4-3.9
		l27.5,16l2.3-1.3l0.5-1.4l0.9,0.5v0l33.5-19.3L492.1,420.3z M494.7,429.9l-1.1-0.6v-2.6v-4.7l1.1-0.6V429.9z M422.6,436.3l29.2,17
		h2.2l-2.2,1.3l-29.7-17.3C422.3,436.9,422.5,436.6,422.6,436.3z M400,413.4l-10.6-6.2l3.3-1.9l7.1,4.2
		C399.7,410.7,399.7,412,400,413.4z M400.9,424.9l-11.6-6.7l2.2-1.3v1.3l9.3,5.4C400.9,424,400.9,424.4,400.9,424.9z M413.1,432
		l-2.1-1.2c0.1-0.4,0.2-0.8,0.3-1.1l1.9,1.1C413.1,431.1,413.1,431.5,413.1,432z"/>
	<path class="st44" d="M493.6,426.6v2.6l-41.7,24.1v-3.6l2.2-0.5c0.1,0,0.1,0,0.2,0c0.2,0,0.4-0.1,0.6-0.2c0.3-0.1,0.6-0.2,0.9-0.3
		c2.4-1,5.9-2.8,10.5-5.4c5.3-3.1,9.7-5.8,13.2-8.2c1.4-0.9,3.4-2.1,6.1-3.6c0.5-0.3,0.9-0.5,1.4-0.8c2.5-1.4,4.2-2.4,4.9-2.9
		C492.5,427.3,493,427,493.6,426.6z M451.9,449.6l-28.1-16.7c0.2-1,0.4-2,0.5-3l27.6,16.1V449.6z M400.8,419.2l-9.3-5.5v-2.9
		l8.9,5.2C400.6,417,400.7,418,400.8,419.2z M413.1,426.6l-1-0.6c0-0.1,0.1-0.3,0.1-0.4l0.4-2.4l0.4,0.2
		C413,424.3,413.1,425.4,413.1,426.6z"/>
	<polygon class="st23" points="455.2,424.4 493.7,402.2 493.7,404.6 491.6,405.8 453.7,427.8 453.7,432 453.7,434.8 453.7,436.1 
		493.7,412.8 493.7,415.4 492.3,416.2 490.1,417.4 488.7,418.3 455.2,437.6 455.2,437.6 454.4,436.9 454.3,437 453.8,438.4 
		451.5,439.7 451.5,426.5 453.8,425.2 454.4,426.1 	"/>
	<path class="st6" d="M493.7,402.2l-38.5,22.2l-18.5-10.7c2,0.2,4.3,0.4,6.8,0.4c8.2,0,14.1-3.1,17.7-9.2c1.2-2,2-4.1,2.6-6.4
		l0.5-2.9c0-3.8-1.5-6.7-4.6-8.6c0-0.4-0.1-0.8-0.1-1.1c0,0,0-0.1,0-0.2c0.2-0.2,0.9-1,2.1-2.3l32.2,18.6L493.7,402.2z M493.7,412.8
		l-40,23.3v-1.2l37.9-22v-1.2L493.7,412.8z M428,380.3c-1.1-0.2-2.5,0.1-4.2,0.8c-0.4,0.2-1.1,0.5-2,0.9c-0.8,0.3-1.5,0.6-2.1,0.7
		c0.5-1.5,1.2-3,2.2-4.6c0.6-1,1.5-2.2,2.7-3.7c0,0,0-0.1,0.1-0.1l0.3-0.4c0.8-1.1,1.5-2,2-2.7l3.8-2.2c0,1.9,0,3.1,0,3.7
		c-0.8,0.6-1.4,1.5-1.8,2.6c-0.1,0.3-0.2,0.6-0.3,0.9C428.5,377.1,428.2,378.4,428,380.3z M453.2,380.1c-0.2,0.2-0.4,0.4-0.6,0.6
		C452.8,380.4,452.9,380.2,453.2,380.1L453.2,380.1z M451.5,426.5l-20.8-12c0.5-0.3,1.1-0.6,1.7-0.9c0,0,0.1-0.1,0.1-0.1
		c0.1,0,0.2-0.1,0.3-0.1c0,0,0.1-0.1,0.2-0.1l20.7,12L451.5,426.5z M405.8,383.5l10.1-5.8c-0.5,1.1-1,2.3-1.5,3.7
		c-0.6,0.6-1.8,1.3-3.6,2.1c-1,0.5-1.9,1-2.6,1.4L405.8,383.5z M396.9,388.6l1.6,2.9l-3.3-1.9L396.9,388.6z M394.5,390.9l12.1,7
		c-0.2,0.2-0.3,0.4-0.5,0.6c-0.3,0.4-0.6,0.8-0.9,1.2l-13.7-8l2.1-1.2L394.5,390.9z"/>
	<path class="st13" d="M451.5,439.7l-27.5-16c0-0.2-0.1-0.5-0.1-0.7c-0.1-0.5-0.4-1.2-0.9-1.9c-0.6-0.8-0.9-1.4-1-1.9
		c1.6-1.1,3.6-2.2,5.9-3.3c0.6-0.3,1.4-0.7,2.5-1.3c0.1-0.1,0.2-0.1,0.3-0.2l20.8,12V439.7z M455.2,424.4l-0.9,1.7l-0.5-0.9
		l-20.7-12c0.1,0,0.1-0.1,0.2-0.1c1,0.2,2.2,0.4,3.4,0.6L455.2,424.4z M406.6,397.9l-12.1-7l0.6-1.3l3.3,1.9l0.2,0.4
		c0.6,1.2,1.9,2.3,4,3.4l4.1,2.4C406.7,397.8,406.6,397.8,406.6,397.9z M391.5,391.7l13.7,8c-0.3,0.3-0.5,0.6-0.8,0.8
		c-0.5,0.5-1.1,1.1-1.8,1.6c-1.6,1.6-2.5,3.7-2.7,6.3c0,0.4-0.1,0.8-0.1,1.2l-7.1-4.2l-1.1-0.6V391.7z M415.2,410.1
		c-0.9,1-1.6,1.9-2.2,2.9c-0.3,0.5-0.6,0.9-0.8,1.4c-0.3-0.9-0.8-1.7-1.3-2.5c0.1-0.7,0.5-1.1,1.3-1.4c0.4-0.2,1.1-0.3,2.1-0.4
		C414.5,410.2,414.8,410.1,415.2,410.1z"/>
	<path class="st45" d="M455.4,331.5c0-0.8,0-1.1,0-1.2c0-0.1,0-0.2,0-0.3c0-2-0.3-3.8-0.8-5.4c-0.9-2.7-2.4-5-4.6-6.8
		c-1.4-1.2-2.6-1.8-3.8-1.8c-0.8,0-1.4,0.3-1.6,0.9l-0.1,0c-0.1-0.1-0.2-0.1-0.3-0.1l-0.2,0c0.3-0.5,0.5-0.8,0.7-1
		c0.3-0.4,0.7-0.6,1.1-0.5c2.1,0,3.8,0.1,5,0.4c1.9,0.4,3.3,1.2,4.3,2.4c0.4,0.4,0.6,1,0.9,1.7c0.2,0.7,0.4,1.2,0.5,1.5
		c0.1,0.1,0.1,0.2,0.1,0.2c0.6,0.7,1,1.5,1.1,2.3c0.1,0.7,0,1.5-0.2,2.5c-0.1,0.2-0.2,0.5-0.3,0.9c-0.1,0.5-0.3,1-0.5,1.7
		c-0.3,1-0.4,1.9-0.4,2.6C456,331.5,455.7,331.5,455.4,331.5z M442.6,319.1c0,0.2,0,0.4,0,0.7c0,0.1,0.2,0.8,0.7,2.1
		c0.5,1.4,0.7,2.2,0.7,2.4c0,1.5-0.5,3-1.4,4.6c-0.5,0.4-1.2,0.8-1.9,1.3c-2.5,1.6-4.5,2.4-6,2.4c-2.3,0-4.9-0.8-7.8-2.5
		c0,0,0,0,0-0.1v0c0,0,0-0.1,0-0.1c-0.1-1.2,0.2-2.4,0.8-3.5c0.4-0.8,1.2-1.8,2.2-3c1.5-2,3.2-3.4,5.3-4.4c2.4-1.1,4.6-1.1,6.7-0.2
		c0.2,0,0.3,0.1,0.5,0.2C442.3,319,442.5,319,442.6,319.1z M450.2,331c-0.1,0.2-0.2,0.4-0.3,0.6c-0.1,0.1-0.1,0.2-0.2,0.3
		c-0.5,0.9-1,1.7-1.6,2.2c-0.2,0.1-0.4,0.3-0.5,0.4c-0.6,0.4-1.3,0.6-2,0.6c0-0.3,0-0.5,0-0.8c-0.2,0-0.4-0.1-0.5-0.1
		c0.2-0.5,0.4-1,0.6-1.6c1-4.4,1.5-6.6,1.5-6.7c0-1-0.3-2.1-0.9-3.5v0l0,0c0.1,0,0.2,0.1,0.2,0.1h0.2c0.2,0,0.4,0,0.5-0.1
		c0.1,0,0.1,0,0.2,0c0.1,0,0.1,0.1,0.2,0.1c1.1,1.5,1.9,2.9,2.2,4.1c0.2,0.7,0.3,1.9,0.2,3.4C449.9,330.4,450,330.7,450.2,331z"/>
	<path class="st46" d="M454.3,331.6c-0.4,0-0.8,0-1-0.1c-0.6-0.8-1.3-1.4-2.1-1.8c-0.2-0.1-0.3-0.2-0.5-0.3c0,0.1-0.1,0.1-0.1,0.2
		c0,0,0,0.1,0,0.1l-0.5,1.1c0,0,0,0.1,0,0.1c-0.2-0.3-0.3-0.6-0.3-1c0.1-1.6,0-2.7-0.2-3.4c-0.4-1.2-1.1-2.6-2.2-4.1
		c0-0.1-0.1-0.1-0.2-0.1c0.2-0.2,0.3-0.4,0.3-0.8c0.1-1.1-0.2-2.1-0.9-3l-0.1,0v-0.1h0v0c-0.5-0.7-1.2-1.2-1.9-1.5l-0.1-0.1
		c0,0-0.1,0-0.1,0c0.2-0.6,0.8-0.9,1.6-0.9c1.1,0.1,2.4,0.7,3.8,1.8c2.2,1.8,3.7,4.1,4.6,6.8c0.5,1.6,0.8,3.5,0.8,5.4
		c0,0.1,0,0.2,0,0.3c0,0,0,0.4,0,1.2c0,0-0.1,0-0.2,0l-0.5,0C454.6,331.6,454.5,331.6,454.3,331.6z M427.3,331.9
		c-0.3-0.5-0.4-1.1-0.5-1.7c2.9,1.7,5.5,2.5,7.8,2.5c1.5,0,3.5-0.8,6-2.4c0.7-0.5,1.4-1,1.9-1.3c1-1.6,1.4-3.1,1.4-4.6
		c0-0.2-0.2-1-0.7-2.4c-0.5-1.4-0.7-2.1-0.7-2.1c0-0.3,0-0.5,0-0.7c0.2,0.1,0.4,0.2,0.6,0.4l0.1,0c0.2,0.2,0.4,0.3,0.6,0.5
		c0.3,0.3,0.5,0.5,0.8,0.8l0.8,1.1c0.1,0.2,0.3,0.3,0.5,0.5c0.1,0,0.2,0.1,0.3,0.1v0c0.6,1.3,0.9,2.5,0.9,3.5c0,0.1-0.5,2.3-1.5,6.7
		c-0.2,0.6-0.4,1.1-0.6,1.6c-0.4,0-0.8,0.1-1.2,0.3c-0.4,0.2-0.8,0.6-1.2,1.1l-0.3,0.3c-0.2,0.3-0.5,0.6-0.9,1
		c-0.3,0.4-0.7,0.6-1,0.8l-0.3,0.2h0c-0.2,0-0.3,0-0.4-0.1c-1.3-0.2-2.2-0.3-2.7-0.5c-1.1-0.4-1.9-0.9-2.4-1.7l-0.1-0.1
		c-2.2-0.4-3.9-0.9-4.9-1.5L427.3,331.9z"/>
	<path class="st47" d="M453.2,391.5c-0.6,0.4-1.2,0.8-1.8,1.2c-2.2,1.4-3.7,2.4-4.5,2.9l-1.5,1.2c-0.1,0.1-0.3,0.2-0.4,0.3
		c-0.1,0-0.2,0.1-0.3,0.2L444,398c-0.4,0.4-0.8,0.8-1.2,1.2c0,0,0,0.1,0,0.1c0.1,0.1,0.1,0.2,0.2,0.3c-0.2,0-0.5,0-0.7,0.1
		c-0.5,0.5-1.1,1-1.9,1.6c-1.4,1-2.2,1.7-2.6,2c-0.5,0.4-1.1,0.9-2,1.7c-0.8,0.6-1.6,1-2.3,1c0.1-0.8,0.7-1.6,1.7-2.4
		c0.7-0.6,1.1-0.9,1.2-1c0.4-0.4,0.7-0.8,0.9-1.2c-0.9,0.2-1.9,0.9-3.1,2.1c-1.2,1.2-2.3,1.8-3.1,2.1l0-0.5c0-0.1,0-0.2,0.1-0.3
		c0.2-0.6,0.6-1.2,1.2-1.8c0.1,0,0.1-0.1,0.2-0.2c0.4-0.4,0.7-0.7,0.9-0.9l0.3-0.3c0.2-0.2,0.3-0.4,0.4-0.6c0.1-0.2,0.2-0.3,0.3-0.5
		c-0.5,0.2-1,0.5-1.4,1.1c0,0-0.1,0.1-0.2,0.2c-0.2,0.3-0.5,0.7-0.9,1.2c-0.4,0.6-0.8,1.1-1.1,1.3c-0.5,0.4-1,0.5-1.6,0.4
		c0.1-0.3,0.2-0.7,0.3-1c0.2-0.6,0.6-1.2,1-1.8c0.9-1.1,1.5-2,1.9-2.6c-0.5,0.3-1.2,0.9-2,2c-0.7,1-1.4,1.5-2.1,1.7
		c-0.1-0.5,0-1.1,0.2-1.7c0-0.1,0.3-0.6,0.8-1.5l-1.2-0.7c1.1-1.2,2.3-2.1,3.6-2.8c0.4-0.2,0.8-0.4,1.2-0.5c1-0.4,2.1-0.6,3.2-0.6
		c0.3-0.1,0.7-0.1,1.1-0.2c0.5,0,0.9,0,1.2,0c1-0.1,1.7-0.3,2.1-0.8c0.2-0.1,0.4-0.3,0.5-0.5l0.2-0.2c0.1-0.1,0.1-0.1,0.2-0.2
		c0,0,0,0,0.1-0.1c0.1-0.1,0.1-0.1,0.2-0.2l0.6-0.6c1.2-1.2,2.4-2.6,3.8-4.3l3.2-3.9c0.8-1.1,1.4-1.8,1.8-2.2
		c0.1-0.1,0.2-0.2,0.3-0.3c0.2-0.2,0.3-0.3,0.4-0.5l0.8-0.6c0.2-0.2,0.4-0.4,0.6-0.6c0.6-0.1,1.1-0.3,1.6-0.5
		c0.9-0.5,1.7-1.4,2.4-2.5c0.7-2.1,1.1-3.2,1.1-3.3c0-3.4-0.5-6.5-1.4-9.3c-0.9-2.6-2.3-4.9-4.1-6.9c-0.3-0.3-0.5-0.6-0.8-0.8
		c-1-1-1.9-1.6-2.8-2.1c0.1-0.3,0.3-0.6,0.5-0.9c0.6-1.1,1.3-2.3,2.3-3.3c0,0,0.1-0.1,0.1-0.2c0.1,0,0.1,0,0.1-0.1
		c0.1-0.1,0.2-0.2,0.2-0.2c0.3-0.3,0.6-0.6,0.9-1c1.4-1.4,3.1-2.7,5-3.9c0.3,0.4,0.7,1,1.3,1.8c0.5,0.7,0.9,1.4,1.2,1.9
		c0.2,0.5,0.4,1.2,0.5,1.9c0.2,1.1,0.3,2.3,0.3,3.8c0,0.7,0.1,1.6,0.1,2.9c0,1.1,0.1,2.1,0.2,2.9c0,0.2,0.1,0.4,0.1,0.7
		c0.1,0.8,0.2,1.9,0.3,3.2c0,0.3,0,0.5,0.1,0.8c0.2,2,0.3,3.6,0.6,4.8c0,0.8,0.1,1.7,0.3,2.7c0.1,0.6,0.3,1.5,0.5,2.7
		c0.4,2.3,0.5,4.1,0.2,5.6c-0.5,0.7-1.3,1.6-2.2,2.6c-0.1,0.1-0.1,0.1-0.2,0.2c-1.2,1.3-1.9,2.1-2.1,2.3c-0.2,0.3-0.4,0.6-0.7,0.8
		c-0.9,1-1.9,2-3.1,3C455.1,390.1,454.2,390.8,453.2,391.5z"/>
	<path class="st47" d="M445.6,335.2c-0.5,1.5-1.2,2.9-2,4.2c-0.3,0.5-0.7,0.9-1,1.4c-0.9,1.1-1.8,2-2.8,2.8
		c-0.7,0.5-1.3,0.9-2.1,1.2c-0.3,0.1-0.8,0.4-1.5,0.8c-0.6,0.3-1.1,0.4-1.6,0.3c-0.5-0.2-1.2-0.6-2-1.4c-0.8-0.7-1.5-1.1-2.1-1.2
		c-0.5-0.1-0.7-0.4-0.8-0.8c-0.1-0.3-0.1-0.7-0.1-1.3c0-0.7,0-1.2,0-1.5c-0.1-0.6-0.3-1-0.6-1.3c-1.1-1-1.7-2.2-2.1-3.9
		c0-0.1,0-0.2-0.1-0.3c0.4,0.3,0.8,0.6,1.3,0.9c2.9,2,6.4,3,10.4,3c0.4,0,0.8-0.1,1.2-0.2c0.1,0,0.3,0.1,0.4,0.1h0l0.3-0.2
		c0.4-0.2,0.7-0.4,1-0.8c0.4-0.4,0.7-0.7,0.9-1l0.3-0.3c0.4-0.5,0.8-0.9,1.2-1.1c0.4-0.2,0.8-0.3,1.2-0.3c0.2,0,0.3,0.1,0.5,0.1
		C445.6,334.6,445.6,334.9,445.6,335.2z"/>
	<path class="st47" d="M413,423.3c0-0.2,0-0.4-0.1-0.6c-0.1-0.1-0.1-0.3-0.2-0.4c-0.2-0.6-0.4-1.2-0.6-1.8c-0.2-0.9-0.4-1.8-0.4-2.6
		c0-0.4,0-0.9,0-1.3c0.1-0.7,0.2-1.4,0.4-2.1c0.2-0.5,0.5-1,0.8-1.4c0.6-1,1.3-2,2.2-2.9c0.8-0.9,1.8-1.8,2.9-2.7
		c0,0,0.1-0.1,0.1-0.1c0.5,0.4,1.2,0.8,1.9,1.1c0.2,0.1,0.5,0.2,0.7,0.3c0.2,0.1,0.3,0.1,0.5,0.2c0.5,0.2,1,0.3,1.5,0.4
		c0.3,0,1.6,0.3,3.9,0.7c0.2,0,0.4,0.1,0.6,0.1c1.5,0.3,2.4,0.6,2.6,0.9c0.1,0.1,0.1,0.4,0.2,1.1c0.1,0.5,0.2,1.2,0.2,2.1
		c0,0.1,0,0.2,0,0.4c-1.1,0.6-1.9,1-2.5,1.3c-2.4,1.1-4.4,2.2-5.9,3.3c0.1,0.5,0.4,1.1,1,1.9c0.5,0.8,0.8,1.4,0.9,1.9
		c0,0.2,0.1,0.5,0.1,0.7c0.2,1.3,0.4,2.6,0.4,3.9c0,0.5,0,0.9,0,1.4c0,0.3,0,0.7-0.1,1c-0.1,1-0.2,2-0.5,3c-0.1,0.6-0.3,1.2-0.5,1.8
		c-0.2,0.5-0.5,1-0.7,1.5c-0.2,0.4-0.3,0.7-0.5,1c-0.3,0.8-0.6,1.5-0.9,2.1c-0.2,0.4-0.3,0.8-0.5,1.1c-0.3,0.8-0.6,1.5-0.9,2.2v0
		c-1.2,3-2.1,5.7-2.7,8.2c0,0,0,0,0,0.1c-0.4,0.8-0.8,1.8-1.2,3.1c-0.3,0.8-0.6,1.7-0.9,2.7c0,0.1-0.1,0.3-0.2,0.5
		c-0.3,0.9-0.7,2.6-1.4,5c-1.1,2.8-2.8,4.2-4.9,4.2c-0.4,0-1.2-0.6-2.6-1.9h-0.1c0.6-1,1.1-2.4,1.4-4c0.1-0.2,0.1-0.5,0.2-0.7
		c0.2-1.3,0.4-2.3,0.5-3c0.2-1.1,0.5-2.1,0.8-2.9c0.1-0.1,0.1-0.3,0.2-0.4c0.4-1,0.8-2.1,1.1-3.3c0.5-1.5,0.9-3.2,1.3-5
		c0.1-0.4,0.2-0.7,0.2-1.1c0.2-1.2,0.6-3.2,1-6.1c0.1-0.8,0.2-1.6,0.4-2.5c0.1-0.4,0.1-0.9,0.2-1.3c0,0,0-0.1,0-0.1
		c0-1,0.1-1.8,0.1-2.5c0-0.5,0-0.9,0-1.3c0-1.2,0-1.8,0-2c0-0.7,0-1.4,0-2.1C413.1,425.4,413,424.3,413,423.3z"/>
	<path class="st47" d="M422.3,363c0-0.1,0.1-0.2,0.1-0.2c0.3-0.6,0.6-1.3,0.9-1.8c0.1,0.3,0.2,0.6,0.3,0.9c0,0.1,0.1,0.3,0.2,0.4
		c0.3,0.8,0.5,1.6,0.7,2.4c0.2,0.8,0.4,1.5,0.5,2.2c0.2,1,0.3,2,0.3,2.8c0,0.3-0.1,0.9-0.3,1.8c0,0.3-0.1,0.6-0.2,0.9
		c-0.1,0.6-0.3,1.3-0.4,2c-1.2,1.5-2,2.7-2.7,3.7c-1,1.6-1.7,3.1-2.2,4.6c0,0.2-0.1,0.6-0.3,1.2l0,0.1c0,0.1,0,0.1,0,0.2
		c-0.1,0.4-0.2,0.7-0.3,0.9c-0.1,0.8-0.3,1.5-0.7,2.2l-0.9-0.6c-2-1.1-3.4-1.5-4.3-1l-1.8,1.1c-0.5-0.4-1.2-0.9-1.9-1.3l-1.3-0.7
		c0.7-0.5,1.6-0.9,2.6-1.4c1.8-0.9,2.9-1.6,3.6-2.1c0.6-1.3,1.1-2.6,1.5-3.7c0.1-0.4,0.3-0.7,0.4-1.1c1.7-4.1,2.7-6.3,2.8-6.7
		c0.9-2,1.7-3.8,2.6-5.5C421.9,363.9,422.1,363.4,422.3,363z"/>
	<path class="st48" d="M398.7,457.3c0-0.1,0.1-0.1,0.1-0.2c0.7-1.1,1.1-1.9,1.2-2.6c0.1-0.7,0.2-1.7,0.5-3.2c0.1-0.5,0.2-1,0.2-1.4
		c0-0.2,0.1-0.4,0.1-0.6c0.1-0.4,0.1-0.8,0.2-1.2c0.2-0.8,0.3-1.6,0.4-2.5c0.2-2,0.2-4.4,0.1-7.1c-0.2-2.1-0.3-3.7-0.3-4.8
		c0-0.7-0.1-1.3-0.1-1.9c0-1-0.1-1.9,0-2.7c0-0.1,0-0.1,0-0.2c0-0.3-0.1-0.8-0.1-1.4c0-0.7,0-1.6-0.1-2.7c0-0.4,0-0.8,0-1.3
		c0-0.4,0-0.9,0-1.4c0-1,0-2-0.1-2.9c-0.1-1.2-0.2-2.2-0.3-3.2c0-0.3-0.1-0.5-0.1-0.7c-0.2-0.7-0.3-1.3-0.4-1.9
		c-0.2-1.4-0.3-2.7-0.2-3.9c0-0.4,0.1-0.8,0.1-1.2c0.3-2.6,1.2-4.7,2.7-6.3c0.7-0.5,1.3-1.1,1.8-1.6c0.4,0.3,0.8,0.6,1.2,0.9
		c2,1.3,3,3.3,3,6.2c0,0.3-0.1,1-0.4,1.9c-0.3,0.9-0.4,1.5-0.4,1.8c0,0.1,0.1,1.2,0.4,3.3c0.1,1.1,0.3,2.4,0.5,4
		c0,0.4,0.1,0.8,0.2,1.1c0.1,0.5,0.3,1.1,0.4,1.6c0.5,1.8,1.2,3.2,1.9,4.2c0.2,0.3,0.5,0.6,0.7,0.9c0-0.1,0-0.1,0.1-0.2
		c-0.1,0.4-0.3,0.9-0.4,1.3c-0.1,0.7-0.2,1.4-0.4,2.2c-0.1,0.4-0.2,0.8-0.3,1.1c-0.1,0.3-0.1,0.6-0.2,0.9c-0.1,0.4-0.2,0.9-0.4,1.4
		c-0.1,0.4-0.2,0.8-0.3,1.2c-0.1,0.5-0.3,1-0.4,1.5c-0.1,0.3-0.1,0.5-0.2,0.8c-0.4,1.7-0.7,3.3-0.9,4.7c-0.3,0.4-0.6,0.9-0.8,1.7
		c0,0.1-0.1,1-0.2,2.9c-0.1,1.2-0.2,2.1-0.4,2.8c0,0.1,0,0.1-0.1,0.2c-0.3,0.9-0.7,1.9-1.3,3.2c-0.3,0.6-0.7,1.3-1.1,2.1
		c-0.7,1.3-1.8,3.2-3.3,5.7C400.7,459.6,399.8,458.7,398.7,457.3z"/>
	<path class="st48" d="M426.7,334.1c-0.2-1-0.2-2.2-0.1-3.5c0-0.2,0-0.3,0.1-0.5v0c0.1,0.6,0.2,1.2,0.5,1.8l2.2,2.1
		c1.1,0.6,2.7,1.1,4.9,1.5l0.1,0.1c0.6,0.8,1.4,1.3,2.4,1.7c0.6,0.2,1.5,0.4,2.7,0.5c-0.4,0.2-0.8,0.2-1.2,0.2c-4,0-7.5-1-10.4-3
		C427.6,334.7,427.1,334.4,426.7,334.1z"/>
	<path class="st48" d="M426.6,352.2c0.1-0.3,0.2-0.6,0.3-0.9c0-0.1,0-0.2,0.1-0.3c0.5-1.7,0.9-3.5,1.2-5.7c0.1-0.7,0.3-3,0.7-7
		c0.4,0.3,0.6,0.7,0.6,1.3c0,0.3,0,0.7,0,1.5c0,0.6,0,1.1,0.1,1.3c0.1,0.4,0.4,0.7,0.8,0.8c0.2,2.2-0.4,4.3-1.7,6.3
		c-0.1,0.2-0.2,0.3-0.3,0.5l-0.6,0.8c-0.3,0.3-0.5,0.5-0.7,0.8c0,0.1-0.1,0.1-0.2,0.2l-0.2,0.3C426.7,352,426.6,352.1,426.6,352.2z"
		/>
	<path class="st48" d="M453.9,339.3c0.5,1.2,0.4,2.5-0.4,3.8c-0.4,0.7-1,1.3-1.7,1.8c-0.7,0.5-1.4,0.9-2.2,1.1
		c-0.5,0.1-1.1,0.3-1.6,0.4c-1.2,0.3-2.4,0.4-3.6,0.4c0,0,0-0.1,0-0.2c-0.2-0.5-0.2-0.8-0.2-1.1c0-0.4,0-0.8,0.1-1.2
		c0-0.1,0-0.3,0.1-0.4c0.1-0.7,0.4-1.4,0.7-2.1c0.8-1.8,2.1-2.8,3.9-3.2c0.4-0.1,0.8-0.1,1.2-0.1c1.3,0,2.5,0.2,3.6,0.7
		C453.8,339.3,453.9,339.3,453.9,339.3z"/>
	<path class="st48" d="M430.6,365.4c-0.6,1.4-1.5,2.9-2.6,4.4c-0.2,0.3-0.6,0.8-1.1,1.5c-0.5,0.7-1.2,1.6-2,2.7l-0.3,0.4
		c0,0,0,0.1-0.1,0.1c0.2-0.8,0.3-1.4,0.4-2c0.1-0.3,0.1-0.6,0.2-0.9c0.2-0.9,0.3-1.6,0.3-1.8c0-0.8-0.1-1.8-0.3-2.8
		c-0.1-0.7-0.3-1.4-0.5-2.2c-0.2-0.8-0.4-1.5-0.7-2.4c-0.1-0.1-0.1-0.3-0.2-0.4c-0.1-0.3-0.2-0.6-0.3-0.9c0.1-0.2,0.2-0.3,0.3-0.5
		l0.9-1.7l0.8,1.4c0.1,0.1,0.2,0.2,0.3,0.4c0.3,0.4,0.6,0.7,1,1.1c0.3,0.2,0.5,0.4,0.8,0.6c0.8,0.7,1.3,1.2,1.7,1.5
		C429.7,364.3,430.2,364.8,430.6,365.4z"/>
	<path class="st48" d="M455.5,376.9c0-0.8-0.1-1.9-0.5-3.2c-0.4-1.7-0.7-2.8-0.7-3.1c-0.3-2.4-0.6-4.5-0.9-6.4
		c-0.2-1.4-0.5-2.7-0.7-3.9c-1.3,0-2.3-0.3-3.3-1c-1.1-0.8-1.4-1.7-1.2-2.9c0-0.1,0-0.1,0.1-0.2v0c0-0.3,0.1-0.5,0.2-0.6l0.1-0.2
		c0,0,0-0.1,0-0.2c0.1-0.2,0.2-0.4,0.3-0.7c0.9,0.4,1.8,1.1,2.8,2.1c0.3,0.3,0.5,0.6,0.8,0.8c1.8,2,3.2,4.3,4.1,6.9
		c1,2.7,1.4,5.8,1.4,9.3c0,0.1-0.4,1.2-1.1,3.3c-0.7,1.2-1.4,2-2.4,2.5c-0.5,0.3-1,0.5-1.6,0.5h-0.1l0.1,0c0.1-0.1,0.2-0.2,0.3-0.3
		c0,0,0,0,0-0.1c0.1-0.1,0.1-0.1,0.2-0.2c0.1-0.1,0.3-0.3,0.4-0.4C454.8,378.4,455.3,377.7,455.5,376.9z"/>
	<path class="st48" d="M430.8,414.5c-0.1,0.1-0.2,0.1-0.3,0.2c0-0.1,0-0.3,0-0.4c-0.1-0.9-0.2-1.6-0.2-2.1c-0.1-0.7-0.2-1-0.2-1.1
		c-0.2-0.3-1.1-0.6-2.6-0.9c-0.2,0-0.4-0.1-0.6-0.1c-2.4-0.4-3.7-0.7-3.9-0.7c-0.5-0.1-1-0.3-1.5-0.4c-0.2-0.1-0.3-0.1-0.5-0.2
		c-0.3-0.1-0.5-0.2-0.7-0.3c-0.7-0.3-1.4-0.7-1.9-1.1c0,0,0,0,0.1-0.1c0.5-0.4,1.1-0.9,1.9-1.5c0,0,0.1-0.1,0.2-0.1
		c0.7,0.4,1.2,0.6,1.5,0.7c1.1,0.5,2,0.6,2.6,0.2c0,0,0.1,0,0.1-0.1l5-2.9c-0.2,0.4-0.3,0.7-0.3,1c0.6,0.1,1.1,0,1.6-0.4
		c0.3-0.3,0.7-0.7,1.1-1.3c0.4-0.6,0.7-1,0.9-1.2l1.4-0.8c-0.1,0.2-0.2,0.4-0.4,0.6l-0.3,0.3c-0.2,0.3-0.5,0.6-0.9,0.9
		c-0.1,0.1-0.1,0.1-0.2,0.2c-0.6,0.6-1,1.2-1.2,1.8c0,0.1-0.1,0.2-0.1,0.3l0,0.5c0.9-0.2,1.9-0.9,3.1-2.1c1.2-1.2,2.2-1.9,3.1-2.1
		c-0.2,0.4-0.5,0.8-0.9,1.2c-0.1,0.1-0.5,0.4-1.2,1c-1,0.9-1.6,1.7-1.7,2.4c0.8,0,1.5-0.4,2.3-1c0.9-0.8,1.5-1.3,2-1.7
		c0.4-0.3,1.2-1,2.6-2c0.8-0.6,1.4-1.1,1.9-1.6c0.2,0,0.5-0.1,0.7-0.1c0.1,0.3,0.2,0.7,0.3,1c0.2,0.5,0.3,1.1,0.3,1.7
		c0.1,0.4,0.1,0.7,0,1.1c0,0,0,0.1,0,0.2c0,0.2,0,0.3,0,0.5v0.1c-0.1,1.8-0.7,3.3-1.7,4.6c-0.6,0.4-1.3,0.9-2.1,1.3
		c-0.5,0.3-1.3,0.6-2.3,1.1c-1.1,0.4-2.5,1-4.2,1.9c-0.1,0-0.1,0.1-0.2,0.1c-0.1,0-0.1,0.1-0.2,0.1c-0.1,0-0.2,0.1-0.3,0.1
		c0,0-0.1,0.1-0.1,0.1C431.9,413.9,431.3,414.2,430.8,414.5z"/>
	<path class="st48" d="M405.3,465.5c0.2-0.3,0.4-0.5,0.5-0.8h0.1c1.4,1.3,2.3,1.9,2.6,1.9c2.2,0,3.8-1.4,4.9-4.2
		c0.7-2.5,1.1-4.2,1.4-5c0.1-0.2,0.1-0.4,0.2-0.5c0.3-1,0.6-1.9,0.9-2.7c0.5-1.3,0.9-2.3,1.2-3.1c0.3,0.9,0.5,1.8,0.5,2.7
		c0,0.5,0,0.9-0.1,1.3c-0.1,0.5-0.3,1-0.5,1.5c-0.2,0.4-0.5,1-0.8,1.7c-0.4,0.9-0.8,2-1.3,3.3c-0.9,2.2-1.5,3.9-2.1,5
		c-0.4,1-0.9,1.7-1.8,2.3c-0.9,0.6-1.8,0.8-2.7,0.5c-1.2-0.5-2.1-0.9-2.6-1.4C405,467.2,404.8,466.3,405.3,465.5z"/>
	<path class="st49" d="M444.4,346.8c-0.4,0-0.7,0-1.1,0c-0.5,0-1.1-0.1-1.6-0.2c-1.2-0.2-2.4-0.7-3.3-1.3c-0.1-0.1-0.2-0.1-0.3-0.2
		c-0.2-0.1-0.3-0.2-0.5-0.4c0.7-0.3,1.4-0.7,2.1-1.2c1-0.7,2-1.7,2.8-2.8c0.4-0.4,0.7-0.9,1-1.4c0.9-1.3,1.5-2.7,2-4.2
		c0.7,0,1.4-0.2,2-0.6c0.2-0.1,0.4-0.2,0.5-0.4c0.8,0.7,1.7,1.5,2.7,2.2c0.9,0.7,1.8,1.4,2.7,2.1c0.2,0.3,0.3,0.5,0.4,0.8
		c0,0-0.1,0-0.2,0c-1.1-0.5-2.3-0.7-3.6-0.7c-0.4,0-0.8,0-1.2,0.1c-1.7,0.3-3,1.4-3.9,3.2c-0.3,0.7-0.6,1.4-0.7,2.1
		c0,0.1-0.1,0.3-0.1,0.4c-0.1,0.4-0.1,0.8-0.1,1.2c0,0.3,0.1,0.7,0.2,1.1C444.4,346.7,444.4,346.8,444.4,346.8z M424.2,390.7
		l-5.9-3.4c0.4-0.7,0.6-1.4,0.7-2.2c1.9,1,3.6,2.7,5.1,5.3C424.1,390.5,424.2,390.6,424.2,390.7z M406.6,397.9
		c0-0.1,0.1-0.1,0.1-0.2l13.5,7.8c0,0,0.1,0.1,0.1,0.1c-0.1,0-0.1,0.1-0.2,0.1c-0.8,0.6-1.4,1.1-1.9,1.5c0,0-0.1,0-0.1,0.1
		c0,0-0.1,0.1-0.1,0.1c-1.1,0.9-2.1,1.8-2.9,2.7c-0.3,0-0.6,0-0.9,0.1c-1,0.1-1.6,0.2-2.1,0.4c-0.8,0.3-1.2,0.8-1.3,1.4
		c0.6,0.8,1,1.6,1.3,2.5c-0.2,0.6-0.3,1.3-0.4,2.1c0,0.4,0,0.9,0,1.3c0,0.8,0.2,1.7,0.4,2.6c0.2,0.6,0.3,1.2,0.6,1.8l-0.1,0.8
		l-0.4,2.4c0,0.1-0.1,0.3-0.1,0.4c0,0.1,0,0.1,0,0.2c0,0.1-0.1,0.1-0.1,0.2c-0.3-0.3-0.5-0.5-0.7-0.9c-0.7-1.1-1.4-2.5-1.9-4.2
		c-0.1-0.5-0.3-1-0.4-1.6c-0.1-0.4-0.1-0.8-0.2-1.1c-0.2-1.6-0.4-3-0.5-4c-0.3-2.1-0.4-3.2-0.4-3.3c0-0.3,0.1-0.9,0.4-1.8
		c0.3-0.9,0.4-1.6,0.4-1.9c0-2.9-1-4.9-3-6.2c-0.5-0.3-0.9-0.5-1.2-0.9c0.3-0.3,0.6-0.6,0.8-0.8c0.3-0.4,0.7-0.8,0.9-1.2
		C406.3,398.3,406.4,398.1,406.6,397.9z M408.4,444.3c0.1,0.2,0.4,0.5,0.8,0.9c0.3,0.4,0.4,0.7,0.3,1.1c-0.1,1.1-0.3,2.3-0.7,3.6
		c-0.3,1-0.7,2-1.2,3.1c0,0,0,0.1-0.1,0.1c-0.3,0.7-0.8,1.7-1.5,3c-0.6,1.3-1,2.4-1.4,3.2c-0.4,1.2-0.7,1.8-0.9,2.1
		c-0.4,0.8-0.9,1.3-1.6,1.5c-1,0.2-2,0-2.9-0.7c-1-0.7-1.6-1.5-1.8-2.5c0.1-0.6,0.5-1.4,1.2-2.4c1.1,1.4,2,2.3,2.6,2.6
		c1.5-2.5,2.6-4.4,3.3-5.7c0.4-0.7,0.8-1.4,1.1-2.1c0.6-1.2,1-2.3,1.3-3.2c0-0.1,0-0.1,0.1-0.2c0.2-0.7,0.3-1.6,0.4-2.8
		c0.1-1.8,0.2-2.8,0.2-2.9c0.3-0.8,0.6-1.3,0.8-1.7C408.4,442.4,408.4,443.4,408.4,444.3z"/>
	<path class="st18" d="M436.6,345.3l1-0.6c0.1,0.1,0.3,0.2,0.5,0.4c0.1,0.1,0.2,0.1,0.3,0.2c1,0.6,2.1,1,3.3,1.3
		c0.5,0.1,1,0.2,1.6,0.2c0.4,0,0.7,0,1.1,0c1.1,0,2.3-0.2,3.6-0.4c0.5-0.1,1-0.2,1.6-0.4c0.8-0.2,1.5-0.6,2.2-1.1
		c0.7-0.5,1.3-1.1,1.7-1.8c0.8-1.3,0.9-2.6,0.4-3.8c-0.1-0.3-0.2-0.6-0.4-0.8l2.4,2.1c0,0.3-0.1,0.6-0.2,0.9
		c-0.3,1.2-0.7,2.2-1.3,3.2c-1.3,1.7-2.5,2.7-3.6,3.1c-1,0.3-1.4,0.4-1.4,0.3l0.1-0.1c-0.8,0.3-1.7,0.5-2.6,0.6
		c-1.9,0.2-3.9,0-5.8-0.5c-0.2-0.1-0.5-0.2-0.7-0.3c-1.2-0.5-2.2-1.1-3.1-2C437,345.7,436.8,345.5,436.6,345.3z"/>
	<path class="st50" d="M429,375.4c0.4-1.1,1-2,1.8-2.6c1,2.7,3,4.7,6.1,6.1c2.6,1.1,5.5,1.6,8.8,1.5c2,0,3.7-0.2,5.1-0.7
		c0.8-0.3,1.5-0.7,2-1.2c0.7-0.7,1.1-1.4,1.3-2.4c0.5,0.3,0.9,0.6,1.4,0.9c-0.3,0.7-0.8,1.5-1.5,2.2c-0.1,0.1-0.2,0.2-0.4,0.4
		c0,0-0.1,0.1-0.2,0.2c0,0,0,0,0,0.1c-0.1,0.1-0.2,0.2-0.3,0.3l-0.1,0c-0.2,0.2-0.3,0.4-0.5,0.6l-0.8,0.6c-0.1,0.1-0.3,0.3-0.4,0.5
		c-0.1,0-0.2,0.1-0.3,0.3c-1.6,0.6-3.6,0.9-5.8,0.9c-4.8,0-9.1-1.4-12.8-4.3C430.9,377.5,429.8,376.4,429,375.4z M434.1,400.9
		l-1.4,0.8c0.1-0.1,0.1-0.2,0.2-0.2c0.5-0.5,0.9-0.9,1.4-1.1C434.3,400.6,434.2,400.7,434.1,400.9z"/>
	<path class="st13" d="M443.5,401.6c0-0.3-0.1-0.7-0.2-1c-0.1-0.4-0.2-0.7-0.3-1c0-0.1-0.1-0.2-0.2-0.3c0,0,0-0.1,0-0.1
		c0.4-0.4,0.7-0.8,1.2-1.2l0.6-0.6c0.1-0.1,0.2-0.2,0.3-0.2c0.1-0.1,0.3-0.2,0.4-0.3l1.5-1.2c0.8-0.5,2.2-1.5,4.5-2.9
		c0.7-0.4,1.3-0.8,1.8-1.2c-1.6,3.3-4.4,6.3-8.5,9.2c-0.4,0.3-0.8,0.5-1.1,0.8C443.5,401.5,443.5,401.6,443.5,401.6z"/>
	<path class="st1" d="M433,395.8l-2.3-1.3c0.3-0.5,0.7-1,1-1.6c1.6-2.4,2.4-3.8,2.4-4.1c0-0.2,0-0.3,0-0.5c-0.1-4.6-2.2-7.3-6.1-8.1
		c0.3-1.9,0.5-3.2,0.8-4.1c0.1-0.3,0.2-0.6,0.3-0.9c0.8,1,1.9,2.1,3.5,3.2c3.7,2.8,8,4.3,12.8,4.3c2.3,0,4.2-0.3,5.8-0.9
		c-0.4,0.4-1,1.2-1.8,2.2l-3.2,3.9c-1.4,1.7-2.6,3.1-3.8,4.3l-0.6,0.6c-0.1,0.1-0.2,0.2-0.3,0.2c-0.1,0.1-0.2,0.1-0.2,0.2l-0.2,0.2
		c-0.2,0.2-0.4,0.3-0.5,0.5c-0.5,0.5-1.2,0.7-2.1,0.8c-0.3,0-0.6,0-1.2,0c-0.5,0-0.9,0.1-1.1,0.2C435,395.1,434,395.4,433,395.8z"/>
	<path class="st51" d="M459.2,392.6c-0.2,0.9-0.4,1.7-0.6,2.5c-0.3,1-0.7,1.9-1.1,2.8C458.2,396.3,458.7,394.5,459.2,392.6z"/>
	<path class="st13" d="M399.5,379.8l5.6,3.2l0.7,0.4l2.4,1.4l1.3,0.7c0.7,0.4,1.4,0.9,1.9,1.3c0.6,0.5,1.1,0.9,1.5,1.4
		c0.2,0.2,0.4,0.5,0.5,0.7c0,0,0,0.1,0,0.1l8.8,16.4c0.4,0.7,0.3,1-0.4,0.8c-0.3-0.1-0.8-0.3-1.5-0.7c0,0-0.1-0.1-0.1-0.1l-13.5-7.8
		l-4.1-2.4c-2-1.1-3.3-2.3-4-3.4l-0.2-0.4l-1.6-2.9l-0.3-0.6l-2.5-4.6l-1.6-2.9l-1.6-3l-1.1-2c-0.6-1.2,0.1-1.2,2.1,0l1.3,0.7l3.4,2
		L399.5,379.8z"/>
	<path class="st7" d="M418.3,387.3l5.9,3.4l6.5,3.7l2.3,1.3c-0.4,0.2-0.8,0.3-1.2,0.5c-1.3,0.7-2.5,1.6-3.6,2.8l1.2,0.7
		c-0.5,1-0.8,1.5-0.8,1.5c-0.3,0.6-0.4,1.1-0.2,1.7c0.7-0.2,1.4-0.7,2.1-1.7c0.8-1.1,1.4-1.8,2-2c-0.4,0.6-1,1.4-1.9,2.6
		c-0.5,0.6-0.8,1.2-1,1.8l-5,2.9c0,0-0.1,0-0.1,0.1c-0.6,0.3-1.5,0.2-2.6-0.2c0.7,0.2,0.8-0.1,0.4-0.8l-8.8-16.4c0,0,0-0.1,0-0.1
		c-0.2-0.2-0.3-0.5-0.5-0.7c-0.4-0.5-0.8-1-1.5-1.4l1.8-1.1c0.9-0.5,2.3-0.1,4.3,1L418.3,387.3z"/>
	<path class="st1" d="M407.2,460.7c-0.3-0.2-0.6-0.4-0.8-0.7c-0.3-0.4-0.4-0.8-0.4-1.3c-0.3,0.8-0.6,2-0.8,3.7
		c-0.3,1.6-0.5,2.9-0.8,3.7c-0.3,0.5-0.6,1-1.1,1.4c0.1-0.1,0.2-0.2,0.3-0.3c0.8-0.7,1.4-1.2,1.7-1.7c-0.5,0.9-0.3,1.7,0.6,2.4
		c0.5,0.4,1.3,0.9,2.6,1.4c1,0.3,1.9,0.1,2.7-0.5c0.8-0.6,1.4-1.3,1.8-2.3c0.5-1.2,1.2-2.8,2.1-5c0.5-1.3,1-2.4,1.3-3.3
		c0.3-0.7,0.6-1.3,0.8-1.7c0.2-0.5,0.4-1,0.5-1.5c0.1-0.4,0.1-0.9,0.1-1.3c0-0.9-0.2-1.8-0.5-2.7c0,0,0,0,0-0.1
		c1.3,1,2.3,1.9,2.9,2.9c0.7,1.1,1,2.1,0.8,3.2c0,0.2-0.1,0.4-0.1,0.7c-0.4,0.8-0.7,1.7-1,2.6c-0.3,1.1-0.6,2.2-0.8,3.3
		c-0.4,2-0.5,4-0.4,6c-0.5,0.5-1.1,0.7-1.8,0.6c-0.6,0-1.1-0.3-1.7-0.6v-1.7c-0.4,1.9-0.7,3-0.8,3.5c-0.5,1.3-1.2,2.2-2,2.9
		c-1.4,0.8-3,1.3-4.7,1.6c-1.6,0.2-3.2,0.2-5,0c-0.9-0.1-1.5-0.4-2.1-0.8c-0.7-0.5-1-1.1-0.9-1.9c-0.1-1.5,0.6-2.9,2.1-4.3
		c0.4-0.3,0.7-0.6,1-0.9c-0.3,0.2-0.6,0.4-0.9,0.6c-0.8,0.5-1.9,0.9-3.3,1.4c-1,0.3-1.9,0.4-2.8,0.2c-1.1-0.2-1.8-0.7-2.2-1.6
		c-0.3-1.5-0.2-3,0.3-4.6c0.5-1.5,1.3-2.8,2.3-4c0.7-0.7,1.4-1.6,2.1-2.7c0.9-1.3,1.5-2.2,1.9-2.9c-0.1,0.7-0.5,1.6-1.2,2.6
		c0,0-0.1,0.1-0.1,0.2c-0.6,1.1-1,1.9-1.2,2.4c0.3,1,0.9,1.8,1.8,2.5c1,0.7,1.9,0.9,2.9,0.7c0.7-0.2,1.2-0.7,1.6-1.5
		c0.2-0.2,0.4-0.9,0.9-2.1c0.3-0.9,0.8-2,1.4-3.2c0.7-1.3,1.2-2.3,1.5-3c0,0,0-0.1,0.1-0.1c0.5-1.1,0.9-2.1,1.2-3.1
		c0.4-1.3,0.6-2.5,0.7-3.6c0.1-0.4-0.1-0.7-0.3-1.1c-0.4-0.4-0.7-0.7-0.8-0.9c0.8,0.1,1.5,0.4,2.1,0.8c0.2,0.1,0.4,0.3,0.6,0.5
		c-0.4,1.8-0.8,3.4-1.3,5c-0.3,1.2-0.7,2.3-1.1,3.3c0,0.1-0.1,0.2-0.2,0.4c-0.3,0.8-0.6,1.7-0.8,2.9c-0.1,0.7-0.3,1.7-0.5,3
		C407.3,460.3,407.3,460.5,407.2,460.7z"/>
</g>
<g>
	<path class="st5" d="M357.7,407l-12.9,7.4c-0.1,0-0.1-0.1-0.2-0.1c-1.7-1-3.7-1.5-6.1-1.6l10-5.7c0.9,0.1,1.9,0.2,2.9,0.2
		c2,0,3.8-0.2,5.5-0.7L357.7,407z"/>
	<path class="st5" d="M325.6,422.7c0,0.8,0.2,1.6,0.7,2.4l-26,14.9c-0.3,0-0.6,0-0.9,0.1L264,419.6l7.7-4.4v4.4l28,15.5h0.1
		l27.1-15.6C326.1,420.4,325.6,421.5,325.6,422.7z"/>
	<path class="st52" d="M299,388c0-1.4,0.8-2.6,2.5-3.6c0.1-0.1,0.2-0.1,0.2-0.2c1.6-0.9,3.5-1.4,5.7-1.5c0.3,0,0.6-0.1,0.9-0.1
		c0.8,0,1.5,0,2.2,0.1c1.7,0.2,3.1,0.7,4.4,1.4c0.1,0,0.2,0.1,0.3,0.1c1.7,1,2.5,2.2,2.5,3.7c0,0.2,0,0.3-0.1,0.6
		c-0.1,0.4-0.2,0.7-0.4,1c-0.5,0.8-1.2,1.6-2.4,2.3c-0.2,0.1-0.3,0.2-0.5,0.3c-1.7,0.8-3.7,1.3-6.1,1.3c-1.7,0-3.2-0.2-4.5-0.6
		c-0.7-0.2-1.3-0.5-1.9-0.8c-0.1,0-0.1-0.1-0.2-0.1c-0.1,0-0.2-0.1-0.2-0.1c-1-0.6-1.7-1.3-2.2-2.1c-0.1-0.1-0.1-0.2-0.1-0.3
		C299.1,388.8,299,388.4,299,388z"/>
	<path class="st52" d="M350.8,391.4c0.3,0,0.6-0.1,0.9-0.1c2.6,0,4.8,0.5,6.6,1.6c0.9,0.5,1.6,1.1,2.1,1.7c0.5,0.6,0.7,1.3,0.7,2.1
		c0,0.2,0,0.3-0.1,0.6c-0.1,0.4-0.2,0.7-0.4,1c-0.5,0.8-1.2,1.6-2.4,2.3c-1.8,1-4,1.5-6.6,1.5c-1,0-2-0.1-2.9-0.3V393l-1.6-0.9
		C348.3,391.7,349.5,391.5,350.8,391.4z"/>
	<path class="st52" d="M331.2,414.5c0.1-0.1,0.2-0.1,0.2-0.2c1.6-0.9,3.5-1.4,5.7-1.5c0.3,0,0.6-0.1,0.9-0.1c0.2,0,0.4,0,0.6,0
		c2.4,0.1,4.4,0.6,6.1,1.6c0.1,0,0.1,0.1,0.2,0.1c1.4,0.8,2.3,1.8,2.5,2.9c0.1,0.3,0.1,0.5,0.1,0.8c0,0.2,0,0.3-0.1,0.6
		c-0.1,0.4-0.2,0.7-0.4,1c-0.5,0.8-1.2,1.6-2.4,2.3c-1.8,1-4,1.5-6.6,1.5c-2.5,0-4.7-0.5-6.4-1.4c-0.1,0-0.1-0.1-0.2-0.1
		c-0.1,0-0.2-0.1-0.2-0.1c-1-0.6-1.7-1.3-2.2-2.1c-0.2-0.4-0.4-0.8-0.4-1.3c0-0.1,0-0.2,0-0.3c0-0.1,0-0.2,0-0.2
		C328.7,416.6,329.6,415.4,331.2,414.5z"/>
	<path class="st52" d="M283.5,441.7c0.1-0.1,0.2-0.1,0.2-0.2c1.6-0.9,3.5-1.4,5.7-1.5c0.3,0,10.6-0.1,10.9-0.1h-10
		c2.6,0,4.8,0.5,6.6,1.6c1.5,0.8,2.4,1.8,2.7,3c0.1,0.3,0.1,0.5,0.1,0.8c0,0.2,0,0.3-0.1,0.6c-0.1,0.4-0.2,0.7-0.4,1
		c-0.5,0.8-1.2,1.6-2.4,2.3c-1.8,1-4,1.5-6.6,1.5c-2.6,0-4.8-0.5-6.6-1.5c-0.1,0-0.2-0.1-0.2-0.1c-1-0.6-1.7-1.3-2.2-2.1
		c-0.3-0.5-0.4-1-0.4-1.6c0-0.1,0-0.2,0-0.2C281,443.8,281.9,442.7,283.5,441.7z"/>
	<path class="st53" d="M328.6,417.9c0,0.1,0,0.1,0,0.2c0,0.1,0,0.2,0,0.3c0,0.5,0.2,0.9,0.4,1.3c-0.3,0.5-0.4,1.1-0.4,1.6
		c0,0.3,0.1,0.7,0.2,1c0.1,0.4,0.3,0.7,0.5,1c0.5,0.6,1.2,1.2,2.1,1.8c1.6,0.9,3.5,1.4,5.7,1.6c0.3,0,0.5,0,0.8,0
		c2.6,0,4.8-0.5,6.6-1.6c1.4-0.8,2.3-1.8,2.7-2.9c0.1-0.3,0.1-0.6,0.1-0.9c0-0.5-0.2-1.1-0.5-1.6c0.2-0.3,0.3-0.6,0.4-1
		c0-0.2,0.1-0.4,0.1-0.6c0-0.3,0-0.5-0.1-0.8c0.1,0,0.1,0.1,0.2,0.1c2.5,1.4,3.8,3.2,3.8,5.2c0,2-1.3,3.8-3.8,5.2
		c-2.5,1.4-5.5,2.2-9.1,2.2c-3.5,0-6.6-0.7-9.1-2.2c-1.5-0.8-2.5-1.8-3.1-2.8c-0.4-0.7-0.7-1.5-0.7-2.4c0-1.2,0.4-2.3,1.2-3.2
		C327.3,418.9,327.9,418.4,328.6,417.9z"/>
	<path class="st53" d="M350.9,405.3c0.3,0,0.5,0,0.8,0c2.6,0,4.8-0.5,6.6-1.6c1.4-0.8,2.3-1.8,2.7-2.9c0.1-0.3,0.1-0.6,0.1-0.9
		c0-0.5-0.2-1.1-0.5-1.6c0.2-0.3,0.3-0.6,0.4-1c0-0.2,0.1-0.4,0.1-0.6c0-0.8-0.2-1.4-0.7-2.1l0.1,0c2.5,1.4,3.8,3.2,3.8,5.2
		c0,2-1.3,3.8-3.8,5.2c-1.1,0.6-2.3,1.1-3.6,1.5c-1.7,0.5-3.5,0.7-5.5,0.7c-1,0-1.9-0.1-2.9-0.2l0.2-0.1v-2
		C349.5,405.1,350.2,405.2,350.9,405.3z"/>
	<path class="st53" d="M299.6,445.9c0-0.2,0.1-0.4,0.1-0.6c0-0.3,0-0.5-0.1-0.8c0.1,0,0.1,0.1,0.2,0.1c2.5,1.4,3.8,3.2,3.8,5.2
		c0,2-1.3,3.8-3.8,5.2c-2.5,1.4-5.5,2.2-9.1,2.2c-3.5,0-6.6-0.7-9.1-2.2c-2.5-1.4-3.7-3.2-3.7-5.2c0-1.8,1-3.4,3-4.8
		c0,0.1,0,0.2,0,0.2c0,0.6,0.1,1.1,0.4,1.6c-0.3,0.5-0.4,1.1-0.4,1.6c0,0.3,0.1,0.7,0.2,1c0.3,1.1,1.1,2,2.6,2.8
		c1.6,0.9,3.5,1.4,5.7,1.6c0.3,0,0.5,0,0.8,0c2.6,0,4.8-0.5,6.6-1.6c1.4-0.8,2.3-1.8,2.7-2.9c0.1-0.3,0.1-0.6,0.1-0.9
		c0-0.5-0.2-1.1-0.5-1.6C299.4,446.6,299.5,446.3,299.6,445.9z"/>
	<path class="st18" d="M271.7,405.1l27.6-15.9c0,0.1,0.1,0.2,0.1,0.3c-0.3,0.5-0.4,1.1-0.4,1.6c0,0.3,0.1,0.7,0.2,1
		c0.1,0.4,0.3,0.7,0.5,1.1L280,404.4l21.1,12.2l39.8-22.8l-21.3-12.1l-4.4,2.5c-0.1,0-0.2-0.1-0.3-0.1c-1.3-0.7-2.7-1.2-4.4-1.4
		l10.3-5.9l26.3,15.3l1.6,0.9l-49,28.2L271.7,405.1z M301.8,394.9c1.6,0.9,3.5,1.4,5.7,1.6c0.3,0,0.5,0,0.8,0c2.6,0,4.8-0.5,6.6-1.6
		c1.1-0.6,1.9-1.4,2.4-2.2c0.9,0.3,1.7,0.7,2.5,1.1c1.1,0.6,2,1.4,2.7,2.2c0.8,1,1.3,2.1,1.3,3.2c-0.1,2.3-1.4,4.1-4,5.5
		c-2.6,1.5-5.7,2.3-9.3,2.3c-1.8,0-3.5-0.2-5-0.5c-1.7-0.4-3.2-1-4.5-1.8c-2.1-1.2-3.4-2.6-3.8-4.2c-0.1-0.4-0.1-0.8-0.1-1.2
		c0-2,1.2-3.8,3.5-5.2C301,394.4,301.4,394.7,301.8,394.9z M325.5,388.1c1.2,0,2.2,0.3,2.9,0.8c1,0.4,1.5,1,1.5,1.8
		c0,0.1,0,0.2-0.1,0.3c-0.2,0.5-0.7,1-1.4,1.3c-0.8,0.5-1.8,0.8-3.1,0.8c-1.1,0-2.1-0.2-3.1-0.6c-0.8-0.5-1.1-1.1-1.1-1.8
		c0-0.8,0.4-1.4,1.1-1.9c0.7-0.4,1.6-0.6,2.6-0.7C325.1,388.1,325.3,388.1,325.5,388.1z M295.5,405.1c1.2,0,2.2,0.3,3,0.8
		c1,0.4,1.5,1,1.5,1.6c-0.1,0.8-0.6,1.3-1.5,1.8c-0.8,0.6-1.8,0.8-3.1,0.8c-1.1,0-2.1-0.2-3.1-0.7c-0.8-0.5-1.1-1.2-1.1-1.9
		c0-0.7,0.4-1.3,1.1-1.8C293.1,405.3,294.2,405.1,295.5,405.1z"/>
	<path class="st54" d="M314.9,394.9c-1.8,1.1-4,1.6-6.6,1.6c-0.3,0-0.6,0-0.8,0c-2.2-0.2-4.1-0.7-5.7-1.6c-0.5-0.3-0.9-0.5-1.2-0.8
		c-0.4-0.3-0.7-0.6-0.9-1c-0.2-0.3-0.4-0.7-0.5-1.1c-0.1-0.3-0.2-0.6-0.2-1c0-0.5,0.1-1.1,0.4-1.6c0.4,0.8,1.1,1.5,2.2,2.1
		c0.1,0,0.2,0.1,0.2,0.1c0.1,0,0.1,0.1,0.2,0.1c0.6,0.3,1.2,0.6,1.9,0.8c1.3,0.4,2.8,0.6,4.5,0.6c2.3,0,4.4-0.4,6.1-1.3
		c0.2-0.1,0.3-0.2,0.5-0.3c1.1-0.7,1.9-1.4,2.4-2.3c0.3,0.6,0.5,1.1,0.5,1.6c0,0.3,0,0.6-0.1,0.9c-0.1,0.2-0.2,0.5-0.3,0.7
		C316.9,393.6,316.1,394.3,314.9,394.9z M351.7,402.1c2.6,0,4.8-0.5,6.6-1.5c1.1-0.7,1.9-1.4,2.4-2.3c0.3,0.6,0.5,1.1,0.5,1.6
		c0,0.3,0,0.6-0.1,0.9c-0.4,1.1-1.3,2.1-2.7,2.9c-1.8,1.1-4,1.6-6.6,1.6c-0.3,0-0.6,0-0.8,0c-0.7,0-1.4-0.1-2.1-0.3v-3.2
		C349.7,402,350.7,402.1,351.7,402.1z M331.2,421.8c0.1,0,0.2,0.1,0.2,0.1c0.1,0,0.1,0.1,0.2,0.1c1.7,1,3.9,1.4,6.4,1.4
		c2.6,0,4.8-0.5,6.6-1.5c1.1-0.7,1.9-1.4,2.4-2.3c0.3,0.6,0.5,1.1,0.5,1.6c0,0.3,0,0.6-0.1,0.9c-0.4,1.1-1.3,2.1-2.7,2.9
		c-1.8,1.1-4,1.6-6.6,1.6c-0.3,0-0.6,0-0.8,0c-2.2-0.2-4.1-0.7-5.7-1.6c-1-0.5-1.7-1.1-2.1-1.8c-0.2-0.3-0.4-0.7-0.5-1
		c-0.1-0.3-0.2-0.6-0.2-1c0-0.5,0.1-1.1,0.4-1.6C329.5,420.5,330.2,421.2,331.2,421.8z M283.5,449c0.1,0,0.2,0.1,0.2,0.1
		c1.8,1,4,1.5,6.6,1.5c2.6,0,4.8-0.5,6.6-1.5c1.1-0.7,1.9-1.4,2.4-2.3c0.3,0.6,0.5,1.1,0.5,1.6c0,0.3,0,0.6-0.1,0.9
		c-0.4,1.1-1.3,2.1-2.7,2.9c-1.8,1.1-4,1.6-6.6,1.6c-0.3,0-0.6,0-0.8,0c-2.2-0.2-4.1-0.7-5.7-1.6c-1.5-0.8-2.3-1.8-2.6-2.8
		c-0.1-0.3-0.2-0.6-0.2-1c0-0.5,0.1-1.1,0.4-1.6C281.8,447.7,282.5,448.4,283.5,449z"/>
	<path class="st7" d="M299.7,435.1l-28-15.5v-4.4v-10.1l28.1,16.1L299.7,435.1L299.7,435.1z"/>
	<path class="st7" d="M317.7,388.5c0-0.2,0.1-0.4,0.1-0.6c0-1.4-0.8-2.7-2.5-3.7l4.4-2.5l21.3,12.1l-39.8,22.8L280,404.4l19.7-11.3
		c0.2,0.3,0.5,0.7,0.9,1c-2.3,1.4-3.5,3.2-3.5,5.2c0,0.4,0,0.8,0.1,1.2c0.4,1.6,1.7,3,3.8,4.2c1.3,0.8,2.8,1.4,4.5,1.8
		c1.5,0.3,3.2,0.5,5,0.5c3.6,0,6.7-0.8,9.3-2.3c2.6-1.4,3.9-3.2,4-5.5c0-1.1-0.5-2.2-1.3-3.2c-0.7-0.8-1.6-1.5-2.7-2.2
		c-0.8-0.4-1.6-0.8-2.5-1.1c0.1-0.2,0.2-0.5,0.3-0.7c0.1-0.3,0.1-0.6,0.1-0.9c0-0.5-0.2-1.1-0.5-1.6
		C317.5,389.2,317.6,388.9,317.7,388.5z M322.3,388.8c-0.8,0.5-1.1,1.2-1.1,1.9c0,0.7,0.4,1.3,1.1,1.8c1,0.4,2,0.6,3.1,0.6
		c1.3,0,2.4-0.3,3.1-0.8c0.8-0.3,1.2-0.8,1.4-1.3c0-0.1,0.1-0.2,0.1-0.3c0-0.8-0.5-1.3-1.5-1.8c-0.8-0.6-1.7-0.8-2.9-0.8
		c-0.2,0-0.4,0-0.7,0C323.9,388.2,323,388.4,322.3,388.8z M291.1,407.5c0,0.8,0.4,1.4,1.1,1.9c1,0.5,2,0.7,3.1,0.7
		c1.3,0,2.3-0.3,3.1-0.8c0.9-0.4,1.4-1,1.5-1.8c0-0.7-0.5-1.2-1.5-1.6c-0.8-0.5-1.8-0.8-3-0.8c-1.3,0-2.4,0.2-3.2,0.6
		C291.5,406.3,291.1,406.9,291.1,407.5z"/>
	<path class="st55" d="M348.8,407l-0.2,0.1l-10,5.7c-0.2,0-0.4,0-0.6,0c-0.3,0-0.6,0-0.9,0.1c-2.2,0.1-4.1,0.6-5.7,1.5
		c-0.1,0-0.2,0.1-0.2,0.2c-1.6,0.9-2.5,2.1-2.5,3.4c-0.7,0.5-1.3,1-1.8,1.5l-27.1,15.6v-13.8l49-28.2v8.8v3.2V407z"/>
</g>
<polygon class="st1" points="184.4,109.7 178.4,113.3 214.2,243.4 219.9,237.4 "/>
<polygon class="st18" points="175.8,115.8 178.4,113.3 214.2,243.4 212.6,247.7 "/>
<g>
	<ellipse class="st7" cx="133" cy="370.4" rx="36.6" ry="18.5"/>
	<g>
		<path class="st53" d="M147.5,373.1c1.5-1.1,2.2-2.6,2.1-4.4c0,0.2,0.1,0.4,0.1,0.6c-0.1,2-1.1,3.6-3.1,4.5
			C146.9,373.5,147.2,373.3,147.5,373.1z"/>
		<polygon class="st53" points="128.6,361.1 128.3,361.9 129,359.3 		"/>
		<path class="st47" d="M158.5,231.7c0.5-0.9,1.3-1.8,2.3-2.6c0.7-0.6,1.6-1.1,2.7-1.6c0.6-0.3,1.3-0.6,2.1-0.9c0.4,0.8,0.4,1.4,0,2
			c-0.2,0.4-0.7,0.8-1.5,1.4c-0.7,0.4-1.2,0.8-1.4,1.2c-0.1,0.1-0.1,0.1-0.1,0.2l0,0.1c-0.1,0.1-0.1,0.3-0.2,0.4
			c0,0.2-0.1,0.3-0.1,0.5c0,0.2,0.1,0.4,0.2,0.7h-0.3l-0.5,2.1c-0.1-0.1-0.1-0.1-0.2-0.2c-0.9-1.3-2-2.2-3.1-2.8
			C158.4,231.9,158.5,231.8,158.5,231.7z M126.6,229.3c0.1-0.9,0.5-1.8,1.3-2.5c0,0,0.1,0,0.1-0.1c0.1,0,0.1-0.1,0.2-0.1
			c0.1,0,0.1-0.1,0.2-0.1l1.6,3c0-0.4,0-0.7,0-1c0.7-0.3,1.2-1.1,1.6-2.6c0.2-1.8,0.3-2.8,0.3-2.8c0-0.7-0.1-1.4-0.2-2.1
			c1.3,3,1.9,6.2,2,9.6l-4.2,3.5l-1.1-1.5l-0.5,0.4C126.9,231.6,126.5,230.4,126.6,229.3z M175.9,231.4c0.4,0,0.7,0,1.1,0.1
			c0.1,0,0.3,0.1,0.4,0.2c-0.1,3.8-1.2,7.4-3.2,10.7c-0.2-0.2-0.4-0.3-0.6-0.5c-0.2-0.2-0.5-0.4-0.7-0.6c-1-0.7-2-1.2-3.1-1.6
			c-0.5-0.2-1-0.4-1.5-0.4c1-2.6,2.3-5,3.8-7.2c-0.5,1.4-0.9,3-1.3,4.7l0.5,0.5c-0.3,0.1,0,0.1,0.7-0.2c0.9-0.3,1.9-1.7,3-4.1
			c0.1-0.1,0.1-0.3,0.2-0.4c0.2-0.4,0.3-0.8,0.4-1.1C175.7,231.4,175.8,231.4,175.9,231.4z"/>
		<path class="st48" d="M157.6,233.6c0,0-0.1-0.1-0.1-0.1l0.3-0.1c0.1-0.5,0.3-1.1,0.5-1.5c1.1,0.5,2.1,1.5,3.1,2.8
			c0.1,0.1,0.1,0.1,0.2,0.2l-0.4,1.3c0,0,0-0.1,0-0.1c-0.7-1.1-1.5-1.9-2.5-2.3C158.3,233.8,158,233.7,157.6,233.6z M129.7,222
			c0-0.1,0-0.1,0-0.2c0-0.9-0.1-1.8-0.2-2.7c0-0.1,0-0.1,0-0.2c0-0.4-0.1-0.9-0.2-1.3c0-0.1,0-0.2,0-0.4c0-0.3-0.1-0.7-0.2-1
			c1,1.5,1.8,3,2.5,4.7c0,0,0.1,0,0.1,0.1c0.1,0.7,0.2,1.4,0.2,2.1c0,0.1-0.1,1-0.3,2.8c-0.4,1.5-0.9,2.4-1.6,2.6L129.7,222z
			 M169.9,239.7c1.1,0.3,2.1,0.9,3.1,1.6c0.2,0.2,0.5,0.4,0.7,0.6c0.2,0.1,0.4,0.3,0.6,0.5c-0.5,0.8-1,1.5-1.6,2.2
			c0-0.1,0-0.3,0-0.5c0-0.2-0.1-0.4-0.1-0.5c0-0.1-0.1-0.2-0.1-0.4c-0.2-0.6-0.5-1.2-0.9-1.6c-0.3-0.3-0.5-0.6-0.9-0.8
			c-0.3-0.2-0.6-0.3-1-0.5c-0.3,0-0.5-0.1-0.8-0.1c-0.3,0-0.6,0-0.8,0c0.1-0.3,0.2-0.6,0.4-0.9C168.8,239.3,169.3,239.5,169.9,239.7
			z M173,231c0.1-0.2,0.4-0.3,0.7-0.3c0.1,0.3,0.2,0.5,0.3,0.8c0.1,0.6,0.1,1.2,0.1,1.8c0.1-0.5,0.4-1,0.8-1.4
			c0.2-0.2,0.4-0.3,0.7-0.4c0.1,0,0.1,0,0.2,0c-0.1,0.3-0.3,0.7-0.4,1.1c-0.1,0.1-0.1,0.3-0.2,0.4c-1,2.4-2,3.8-3,4.1
			c-0.7,0.3-0.9,0.3-0.7,0.2l-0.5-0.5c0.4-1.7,0.8-3.2,1.3-4.7C172.5,231.7,172.7,231.4,173,231z"/>
		<path class="st18" d="M158.8,239.8c-0.4-1.9-1.9-3.6-4.3-5.3c-0.1,0-0.1-0.1-0.2-0.1c0.8-0.2,1.7-0.4,2.7-0.8
			c0.6,0,1.1,0.1,1.6,0.3c1,0.4,1.9,1.2,2.5,2.3c0,0,0,0.1,0,0.1l-1.9,7.5C159.1,241.6,159,240.3,158.8,239.8z"/>
		<path class="st18" d="M172.1,246.9c0,0.1,0,0.1-0.1,0.2c-0.3,0.3-0.5,0.6-0.7,0.8v0c-0.2-0.7-0.4-1.5-0.5-2.3c0,0,0-0.1,0-0.1
			c-0.2-1.2-1.3-2.2-3.1-3c-0.4-0.2-0.9-0.4-1.5-0.5c-0.4-0.1-0.9-0.2-1.3-0.4l1.2-0.8c0.6-0.3,1.3-0.5,1.9-0.5c0.3,0,0.6,0,0.8,0
			c0.3,0,0.6,0.1,0.8,0.1c0.4,0.1,0.7,0.3,1,0.5c0.3,0.2,0.6,0.4,0.9,0.8c0.4,0.4,0.7,0.9,0.9,1.6c0,0.1,0.1,0.2,0.1,0.4
			c0,0.2,0.1,0.4,0.1,0.5c0,0.2,0,0.3,0,0.5C172.7,245.4,172.5,246.2,172.1,246.9z"/>
		<path class="st18" d="M130.3,241.5L130.3,241.5c-1.3,1.1-3.1,1.6-5.2,1.5c-0.7,0-1.4-0.1-2.2-0.3c-3.2-0.6-5.9-2.9-8.1-6.8
			l0.3-1.4c2.9,2.1,5.7,3.6,8.7,4.5c1.1,0.3,2.3,0.6,3.4,0.7L130.3,241.5z"/>
		<path class="st18" d="M148.8,367l1.1,0.1l-0.1,0.5c4.8-1.3,8.5-0.5,11.2,2.2c0.4,0.4,0.4,0.9,0.1,1.5c-0.1,0.1-0.2,0.2-0.3,0.4
			c-0.3,0.5-0.6,1-1,1.4c-0.3,0.4-0.7,0.9-1.2,1.3c-2.6,2.4-6,3.3-10.2,2.9c-1.7,0-3.4,0.1-5.1,0.3c-1.5,0.3-2.9,0.5-4.4,0.8
			c0.2-0.1,0.4-0.1,0.5-0.2c0.7-0.3,1.4-0.6,2-0.9c1.9-0.9,3.7-2.1,5.3-3.6c1.9-1,3-2.5,3.1-4.5c0-0.2,0-0.4-0.1-0.6L148.8,367z"/>
		<polygon class="st18" points="132.8,352.1 132.6,357.7 128.6,361.1 129,359.3 129.6,356.5 128.8,355.3 128.7,353.2 128.6,351.6 
			131.8,351.9 		"/>
		<path class="st56" d="M131.5,375c0-0.2-0.1-0.4-0.2-0.6c0.4-5.1,0.9-10.3,1.4-15.6l-0.1-1.2l0.2-5.6c0.3-2.2,0.5-4.4,0.7-6.6
			c0.3-3.2,0.7-6.4,1-9.6c0.2-1.8,0.3-3.6,0.5-5.4c0-0.4,0.1-0.8,0.1-1.3c0.1-0.6,0.1-1.1,0-1.7c0-0.2-0.1-0.5-0.1-0.7l-1.4-4.5
			c0-0.2-0.1-0.4-0.2-0.7l-0.5-1.9c0,0-0.1,0.1-0.1,0.1c-0.9-2.9-1.9-5.8-3.1-8.7c-0.8-2.2-1.5-4.3-2.3-6.5c0-0.1-0.1-0.2-0.1-0.3
			c0,0.1,0,0.3-0.1,0.4c-0.4,3.2-1.1,8.4-2.2,15.7c-1.4,10.7-2.3,18-2.5,22.1c-0.1,0.9-0.1,1.7-0.1,2.3c0,0.2,0,1.8,0,4.9
			c0,1.6,0,3.1,0.1,4.6c0,0.2,0,0.3,0,0.5c0.1,1.6,0.1,3.2,0.2,4.7c0.3,3.4,0.6,6.2,0.9,8.4c-2.2,1.4-4.6,1.8-7.2,1.3
			c-1.3-3.3-2.1-6.7-2.5-10.2c-0.1-0.7-0.2-1.5-0.2-2.2c0-0.1,0-0.2,0-0.3c-0.2-2.5-0.1-5.1,0.1-7.8c0-0.3,0.1-0.7,0.1-1
			c0.2-2.5,0.4-5,0.6-7.6c0.5-7.1,1.6-14.1,3.4-21c0.4-1.4,0.5-2.8,0.3-4.3c-0.2-1.5-0.4-2.9-0.5-4.4c-0.8-6.2-1.7-12.3-2.7-18.5
			c-0.5-3-0.4-5.9,0.3-8.9c1.3,3.2,3.6,5.6,6.7,7.2c0.6,0.3,1.2,0.7,1.8,1.1c2.8,2.1,5.8,3.1,8.9,3c0.3,1.1,0.7,2.3,1.2,3.6
			c0.3,1,0.6,1.9,0.9,2.7c0.6,1.7,0.9,2.8,1.1,3.1c0.9,3.2,2.3,7.4,4.2,12.5c0.9,2.6,1.5,5.1,1.8,7.4c0.1,0.9,0.2,1.8,0.3,2.7
			c0,0.6,0.1,1.2,0.1,1.8c0,1,0,2.1-0.1,3.2c-0.2,3.7-0.6,7.8-1.3,12.3c-0.3,1.9-0.6,3.7-0.8,5.3c-0.2,1.4-0.4,2.8-0.6,4
			c-0.5,3.4-0.8,6-1,7.6c-0.2,1.8-0.5,4.6-0.9,8.3c-0.5,3.7-0.8,6.4-0.9,8.1c0,0.5-0.1,1.1-0.1,2c-1.5,0.2-2.7-0.2-3.5-1.2
			C132.2,377.3,131.8,376.3,131.5,375z"/>
		<path class="st55" d="M147.4,354.5c-0.3,3.5-0.3,7-0.1,10.5c0.1,1,0.5,1.7,1.4,2.1l0.8,1.6c0.1,1.8-0.6,3.3-2.1,4.4
			c-0.3,0.2-0.6,0.5-0.9,0.7c-1.6,1.5-3.4,2.7-5.3,3.6c-0.6,0.3-1.3,0.6-2,0.9c-0.2,0.1-0.4,0.1-0.5,0.2c-0.8,0.3-1.6,0.5-2.4,0.6
			c0-0.8,0.1-1.5,0.1-2c0.1-1.7,0.5-4.4,0.9-8.1c0.4-3.8,0.7-6.5,0.9-8.3c0.2-1.6,0.5-4.2,1-7.6c0.2-1.2,0.4-2.5,0.6-4
			c0.2-1.6,0.5-3.4,0.8-5.3c0.7-4.6,1.1-8.7,1.3-12.3c0.1-1.1,0.1-2.2,0.1-3.2c0-0.6,0-1.2-0.1-1.8c-0.1-0.9-0.2-1.8-0.3-2.7
			c-0.4-2.3-1-4.8-1.8-7.4c-1.9-5.1-3.3-9.3-4.2-12.5c-0.1-0.4-0.5-1.4-1.1-3.1c-0.3-0.8-0.6-1.6-0.9-2.7c-0.5-1.4-0.9-2.6-1.2-3.6
			c1.1,0,2.3-0.2,3.5-0.5c0.5-0.1,1.1-0.2,1.6-0.4c0.8-0.3,1.7-0.6,2.5-1c2.4-1.1,4.9-2.3,7.6-3.7c0.5,1.2,1,2.3,1.4,3.5
			c1.9,5.4,2.9,11.1,2.8,16.9c0,3-0.2,6-0.4,8.9c-0.1,1-0.1,2-0.2,3c-0.2,1.8-0.3,3.5-0.5,5.3c-0.2,2-0.5,4-0.8,6
			c-1.1,7-1.9,14.1-2.5,21.1c0,0.2,0,0.5-0.1,0.7C147.4,354.4,147.4,354.4,147.4,354.5z M130,333.4c-0.2,1.3-0.4,2.6-0.5,3.9
			c0,0.3-0.1,0.7-0.1,1c0,0.2,0,0.4-0.1,0.6c-0.3,3-0.6,6.1-0.7,9.1c0,0.5,0,1.1-0.1,1.6c0,0.1,0,0.3,0,0.4c0,1,0,2.1,0.2,3.1
			l0.2,2.2l0.8,1.2l-1.4,5.4l-0.7,1.6l-1.1,2c-0.2,0.3-0.5,0.5-0.7,0.8c0,0,0,0.1-0.1,0.1l-1.9,1.5c-0.1,0-0.1,0.1-0.2,0.2
			c-0.4-2.2-0.7-4.9-0.9-8.4c-0.1-1.5-0.1-3-0.2-4.7c0-0.2,0-0.3,0-0.5c0-1.5-0.1-3-0.1-4.6c0-3.1,0-4.7,0-4.9c0-0.6,0-1.3,0.1-2.3
			c0.3-4.1,1.1-11.4,2.5-22.1c1-7.3,1.8-12.6,2.2-15.7c0-0.1,0-0.3,0.1-0.4c0,0.1,0.1,0.2,0.1,0.3c0.8,2.2,1.5,4.3,2.3,6.5
			c1.1,2.8,2.2,5.7,3.1,8.7c-1,3.4-1.7,6.8-2.4,10.3C130.3,331.3,130.1,332.3,130,333.4z"/>
		<path class="st45" d="M111.3,226.4c-0.2-8,3.7-12.9,11.7-14.6c3.2-0.7,5.2-0.3,6,1.2c0-0.1-0.1-0.1-0.2-0.2
			c-0.6,1.4-1.2,3.2-1.8,5.3c-0.1,2.2-0.6,4-1.5,5.6c-1.8,3-4.8,4.5-9.1,4.5c-2.1,0-3.8-0.3-5.1-1
			C111.3,226.9,111.3,226.7,111.3,226.4z M112.6,231c0.2,0,0.4,0.1,0.5,0.1c-0.1,0-0.3,0-0.4,0.1C112.6,231.2,112.6,231.1,112.6,231
			z M120.2,232.7c-0.7,0-2-0.3-3.9-0.8c-0.7-0.2-1.3-0.4-2-0.6c0.7,0.1,1.4,0.2,2.1,0.2c5.7,0,9.8-2.4,12.3-7.1c0,0.3-0.1,0.6-0.2,1
			c-0.1,0.5-0.3,1-0.5,1.5c-0.8,0.8-1.2,1.6-1.3,2.5C125.1,231.6,122.9,232.7,120.2,232.7z M122.1,236.4c0.3,0,0.6,0,0.9,0
			c-1.1,0.3-2.2,0.2-3.3-0.1C120.4,236.4,121.2,236.4,122.1,236.4z"/>
		<path class="st45" d="M168,240.2c-0.7,0-1.3,0.2-1.9,0.5l-1.2,0.8l-3,2.1c-0.7,0.3-1.4,0.7-2.1,1.2c-0.3,0.2-0.7,0.4-1,0.7
			l0.4-1.7l1.9-7.5l0.4-1.3l0.5-2.1h0.3c-0.1-0.2-0.2-0.4-0.2-0.7l0.2-1c0-0.1,0.1-0.1,0.1-0.2c0.3-0.3,0.7-0.7,1.4-1.2
			c0.8-0.6,1.4-1.1,1.5-1.4c0.4-0.5,0.4-1.2,0-2c-0.8,0.3-1.5,0.6-2.1,0.9l1.6-6.1c0.1-0.6,0.9-0.9,2.1-0.9c0.2,0,0.5,0,0.7,0
			l-0.5,2.1c-0.2,0.8,0,1.6,0.6,2.3c0.6,0.7,1.5,1.2,2.5,1.5c1.1,0.3,2.1,0.2,3-0.1c0.9-0.4,1.5-0.9,1.6-1.8l0.5-1.9
			c0.1,0,0.1,0.1,0.2,0.1c1.1,0.7,1.6,1.3,1.4,1.9l-1.8,7c-0.3,0.1-0.5,0.2-0.7,0.4c-0.4,0.4-0.6,0.9-0.8,1.4
			c0.1-0.6,0.1-1.2-0.1-1.8c0-0.3-0.1-0.6-0.3-0.8c-0.3,0-0.5,0.1-0.7,0.3c-0.3,0.3-0.6,0.7-0.8,1c-1.5,2.2-2.8,4.6-3.8,7.2
			C168.3,239.6,168.1,239.9,168,240.2z M111.6,228.7c-0.1-0.5-0.3-1-0.3-1.6c1.4,0.7,3.1,1,5.1,1c4.3,0,7.4-1.5,9.1-4.5
			c0.9-1.6,1.4-3.4,1.5-5.6c0.6-2.1,1.2-3.9,1.8-5.3c0.1,0,0.1,0.1,0.2,0.2c0.2,0.4,0.3,1,0.3,1.6c0,0.1,0,0.3,0,0.4v0.1
			c0,0,0,0.1,0,0.2c0,0.1,0,0.1,0,0.2s0,0.1-0.1,0.1c0,0.2,0,0.4-0.1,0.7c0.1,0.3,0.1,0.7,0.2,1c0,0.1,0,0.3,0,0.4
			c0.1,0.4,0.1,0.8,0.2,1.3c0,0.1,0,0.1,0,0.2c0.1,0.9,0.2,1.8,0.2,2.7c0,0,0,0.1,0,0.2l0.2,6.5c0,0.3,0,0.7,0,1l-1.6-3
			c0,0-0.1,0-0.2,0.1c0,0-0.1,0.1-0.2,0.1c0,0,0,0.1-0.1,0.1c0.2-0.5,0.4-1,0.5-1.5c0.1-0.4,0.1-0.7,0.2-1
			c-2.4,4.7-6.5,7.1-12.3,7.1c-0.7,0-1.4-0.1-2.1-0.2c0.7,0.2,1.4,0.4,2,0.6c1.9,0.5,3.2,0.8,3.9,0.8c2.7,0,4.8-1.1,6.4-3.3
			c-0.1,1.1,0.3,2.3,1.2,3.6c-0.2,0.3-0.4,0.5-0.5,0.7c-1.4,1.5-2.9,2.4-4.3,2.8c-0.3,0-0.5,0-0.9,0c-0.8,0-1.7,0-2.5-0.1
			c-1.1-0.3-2.3-1-3.5-2c-0.1-0.1-0.3-0.3-0.5-0.4c-1.2-0.8-2.2-1.7-2.9-2.7c0.1,0,0.2-0.1,0.4-0.1c-0.2,0-0.4-0.1-0.5-0.1
			C112.1,230.4,111.8,229.6,111.6,228.7z M170,252.9c-0.1,0.6-0.9,0.9-2.2,1c-1.1,0.1-2.4-0.1-3.9-0.4c1.4-1.1,2.8-2.2,4.1-3.4
			l2.3-1.9c0.3,0,0.6-0.1,0.9-0.3L170,252.9z M138.7,378.5c1.5-0.3,3-0.6,4.4-0.8c1.7-0.3,3.4-0.4,5.1-0.3c4.3,0.4,7.7-0.5,10.2-2.9
			c0.5-0.4,0.9-0.9,1.2-1.3c0.4-0.4,0.7-0.9,1-1.4c0,1.4-0.5,2.6-1.7,3.8c-1.1,1.1-2.5,1.9-4.1,2.3c-1.1,0.1-2.8,0.3-5.4,0.3
			c-2.3,0.1-4.1,0.3-5.4,0.5v1.7c-0.5,0.1-1.5,0.3-3,0.6c-1.4,0.4-2.5,0.6-3.2,0.6c-2.4,0.3-4.1-0.9-5.1-3.6c0.8,0.9,2,1.3,3.5,1.2
			C137.1,379,137.9,378.8,138.7,378.5z M123.7,368.1c0.1-0.1,0.1-0.1,0.2-0.2l1.9-1.5c0,0,0.1-0.1,0.1-0.1c0.3-0.2,0.5-0.5,0.7-0.8
			c-1.4,5.7-4.5,7.4-9.4,5c-0.5-0.2-0.7-0.6-0.7-1.2C119.1,369.9,121.5,369.4,123.7,368.1z M132.6,357.7l0.1,1.2l-5,4.7l0.7-1.6
			l0.3-0.8L132.6,357.7z"/>
		<path class="st49" d="M128.9,234.6c-0.8,0.9-1.3,1.8-1.5,2.8c-0.2,0.7-0.3,1.5-0.2,2.3c-1.1-0.1-2.3-0.4-3.4-0.7
			c-2.9-0.9-5.8-2.4-8.7-4.5h0.1l0.5-0.6c0.2,0.1,0.4,0.3,0.5,0.4c1.2,1,2.3,1.6,3.5,2c1.2,0.3,2.3,0.3,3.3,0.1
			c1.5-0.4,2.9-1.3,4.3-2.8c0.2-0.2,0.4-0.5,0.5-0.7l0.5-0.4l1.1,1.5C129.3,234.2,129.1,234.4,128.9,234.6z"/>
		<path class="st1" d="M145.6,236.4c1.5-0.2,3.3-0.6,5.3-1c0.1,0,0.2-0.1,0.3-0.1c0,0,0.1,0,0.2,0c0.2-0.1,1.1-0.4,2.8-0.9h0.1
			c0.1,0,0.1,0.1,0.2,0.1c2.4,1.7,3.9,3.5,4.3,5.3c0.1,0.5,0.3,1.8,0.4,3.9c-1,0.2-2.4,0.5-4.2,1.1h-0.1c-0.1,0-0.1,0-0.2,0
			l-0.6,0.2c-0.6,0.1-1.1,0.3-1.6,0.4c-1.5,0.4-2.6,0.6-3.6,0.8c-1.4,0.3-4.1,0.7-8.1,1.3c-0.6,0.1-1.2,0.1-1.8,0.2
			c-0.6-0.6-1.3-1.1-2.1-1.5c-0.5-0.4-1.1-0.9-1.6-1.3c-1.6-1.2-3.4-2.4-5.1-3.4v-0.1l-3.2-1.8c0-0.8,0-1.6,0.2-2.3
			C133.4,237.7,139.5,237.3,145.6,236.4z M159.8,244.8c0.7-0.5,1.4-0.9,2.1-1.2l3-2.1c0.4,0.1,0.8,0.3,1.3,0.4
			c0.5,0.2,1,0.3,1.5,0.5c1.8,0.8,2.9,1.8,3.1,3c0,0,0,0.1,0,0.1c0.1,0.8,0.3,1.5,0.5,2.3v0c-0.3,0.2-0.6,0.3-0.9,0.3l-2.3,1.9
			c-1.3,1.2-2.7,2.3-4.1,3.4c-4.7,3.6-9.7,6.6-15,9.1c-1.6,0.8-3.3,1.5-5,2.1c-0.3,0.1-0.6,0.2-0.9,0.3c-7.3,0.7-10.2-2.7-8.7-10.1
			c0.3-1.7,1.2-3.1,2.6-4.2l2.7,0.1c0.6,0,1.2,0,1.8,0c6.3-0.2,12.1-2.1,17.3-5.5C159.2,245.2,159.5,245,159.8,244.8z"/>
		<path class="st57" d="M157.6,233.6c0,0-0.1-0.1-0.1-0.1l-0.4,0.1C157.2,233.6,157.4,233.6,157.6,233.6z"/>
		<path class="st58" d="M200.3,182.9c0-5.8-1.8-11.9-5.4-18c-3.6-6.2-7.9-10.8-13-13.7c-0.7-0.4-1.5-0.8-2.2-1.1
			c-3.7-1.7-6.9-1.9-9.7-0.7c-0.4,0.2-0.7,0.3-1,0.5c-3.6,2-5.4,6-5.4,11.8c0,5.8,1.8,11.9,5.4,18.1c3.6,6.2,7.9,10.7,12.9,13.6
			c4,2.3,7.5,3.1,10.6,2.3c0.8-0.2,1.6-0.5,2.4-1c0.4-0.2,0.7-0.4,1-0.7C198.9,191.9,200.3,188.1,200.3,182.9z M164,182.7
			c-5-8.6-7.5-17-7.5-25.1c0-8.1,2.5-13.6,7.5-16.5c1.3-0.7,2.6-1.3,4.1-1.5c2.8-0.5,5.8-0.2,9.1,1c1.5,0.6,3.1,1.3,4.8,2.3
			c6.7,3.8,12.4,9.7,17.2,17.6c0.3,0.5,0.5,0.9,0.8,1.4c5,8.6,7.4,17,7.4,25.1c0,0.9,0,1.9-0.1,2.7c-0.5,6.3-2.7,10.8-6.7,13.4
			c-0.2,0.1-0.4,0.3-0.7,0.4c-1.5,0.9-3.1,1.4-4.8,1.6c-0.2,0-0.3,0-0.5,0.1c0,0,0,0-0.1,0c-3.8,0.4-8-0.8-12.7-3.5
			c-0.3-0.2-0.6-0.3-0.8-0.5c-2.4-1.5-4.7-3.2-6.9-5.2C170.4,192.4,167,188,164,182.7z"/>
		<path class="st59" d="M170.1,149.4c-2.1,2.3-3.1,5.6-3.1,10.1c0,6,1.8,12.1,5.5,18.4c3.6,6.3,8,10.9,13.1,13.9
			c2.3,1.3,4.5,2.2,6.5,2.5c1.4,0.2,2.6,0.2,3.9-0.1c2.9-2.2,4.3-6,4.3-11.2c0-5.8-1.8-11.9-5.4-18c-3.6-6.2-7.9-10.8-13-13.7
			c-0.7-0.4-1.5-0.8-2.2-1.1C176.1,148.4,172.9,148.2,170.1,149.4z"/>
		<path class="st60" d="M209.4,197.1c0.7-1.2,1.3-2.5,1.8-4c0.7-2.3,1-5,1-8c0-8.1-2.5-16.5-7.4-25.1c-1.5-2.6-3-4.9-4.7-7.1
			c-1.4-1.8-2.8-3.4-4.3-4.9c-2.8-2.8-5.8-5.2-9-7c-3.8-2.2-7.2-3.3-10.4-3.5c-2.8-0.2-5.3,0.4-7.6,1.7c-0.2,0.1-0.4,0.3-0.6,0.4
			c2.8-0.5,5.8-0.2,9.1,1c1.5,0.6,3.1,1.3,4.8,2.3c6.7,3.8,12.4,9.7,17.2,17.6c0.3,0.5,0.5,0.9,0.8,1.4c5,8.6,7.4,17,7.4,25.1
			c0,0.9,0,1.9-0.1,2.7c-0.5,6.3-2.7,10.8-6.7,13.4c1.4-0.3,2.8-0.8,4.1-1.5C206.6,200.5,208.2,199,209.4,197.1z"/>
		<path class="st61" d="M196,194.1c-1.2,0.3-2.5,0.3-3.9,0.1c-2-0.3-4.2-1.1-6.5-2.5c-5.1-3-9.5-7.6-13.1-13.9
			c-3.7-6.3-5.5-12.4-5.5-18.4c0-4.5,1-7.8,3.1-10.1c-0.4,0.2-0.7,0.3-1,0.5c-3.6,2-5.4,6-5.4,11.8c0,5.8,1.8,11.9,5.4,18.1
			c3.6,6.2,7.9,10.7,12.9,13.6c4,2.3,7.5,3.1,10.6,2.3c0.8-0.2,1.6-0.5,2.4-1C195.3,194.6,195.7,194.3,196,194.1z"/>
		<path class="st62" d="M181.1,201.2c-2.4-1.5-4.7-3.2-6.9-5.2l-6.3,24.3l-0.5,2.1c-0.2,0.8,0,1.6,0.6,2.3c0.6,0.7,1.5,1.2,2.5,1.5
			c1.1,0.3,2.1,0.2,3-0.1c0.9-0.4,1.5-0.9,1.6-1.8l0.5-1.9L181.1,201.2z"/>
		<path class="st23" d="M137.1,246.2c-0.7,0.4-1.4,0.9-1.9,1.4c-4.8,3.9-6.2,9.4-4.2,16.3c0.9,3.5,1.7,7,2.4,10.5
			c1.1,6.4,2.6,12.8,4.4,19.1c0.8-0.3,1.7-0.6,2.5-1c2.4-1.1,4.9-2.3,7.6-3.7c-0.5-1.9-1-3.8-1.4-5.7c-1.1-5.9-1.9-11.8-2.4-17.9
			c0-0.2,0-0.3,0-0.5c-0.3,0.1-0.6,0.2-0.9,0.3c-7.3,0.7-10.2-2.7-8.7-10.1c0.3-1.7,1.2-3.1,2.6-4.2l2.7,0.1c0.6,0,1.2,0,1.8,0
			c-0.7-1.2-1.4-2.3-2.4-3.1C138.5,247.2,137.9,246.6,137.1,246.2z"/>
		<path class="st1" d="M115.1,283.1c1.3,3.2,3.6,5.6,6.7,7.2c0.6,0.3,1.2,0.7,1.8,1.1c2.8,2.1,5.8,3.1,8.9,3c1.1,0,2.3-0.2,3.5-0.5
			c0.5-0.1,1.1-0.2,1.6-0.4c-1.8-6.3-3.3-12.6-4.4-19.1c-0.6-3.5-1.4-7-2.4-10.5c-2-6.9-0.6-12.4,4.2-16.3c0.6-0.5,1.2-1,1.9-1.4
			c-0.5-0.4-1.1-0.9-1.6-1.3c-1.6-1.2-3.4-2.4-5.1-3.4c-1.3,1.1-3.1,1.6-5.2,1.5c-0.7,0-1.4-0.1-2.2-0.3c-3.2-0.6-5.9-2.9-8.1-6.8
			l0.3-1.4l-4.1,0.5c-0.7,0-1.3,0.1-2,0.3c-0.7,0.1-1.4,0.4-2.1,0.7c-1.4,0.7-2.2,1.9-2.6,3.4c-1.5,7.8,0.4,15,5.5,21.6
			C114.8,267.5,116.6,274.9,115.1,283.1z"/>
		<polygon class="st63" points="128.3,361.9 129,359.3 129.6,356.5 		"/>
	</g>
</g>
<path class="st0" d="M496.7,68.3l-0.1-7l-6.3-0.4c-0.5-2.3-1.4-4.4-2.6-6.3l4.1-5l-5.1-4.9l-4.7,4.2c-1.9-1.2-4-2.1-6.3-2.6
	l-0.7-6.4l-7,0.1l-0.4,6.3c-2.3,0.5-4.4,1.4-6.3,2.6l-5-4.1l-4.9,5.1l4.2,4.7c-1.2,1.9-2.1,4-2.6,6.3l-6.4,0.7l0.1,7l6.3,0.4
	c0.5,2.3,1.4,4.4,2.6,6.3l-4.1,5l5.1,4.9l4.7-4.2c1.9,1.2,4,2.1,6.3,2.6l0.7,6.4l7-0.1l0.4-6.3c2.3-0.5,4.4-1.4,6.3-2.6l5,4.1
	l4.9-5.1l-4.2-4.7c1.2-1.9,2.1-4,2.6-6.3L496.7,68.3z M471.7,74.2c-5.1,0.1-9.4-4-9.5-9.1c-0.1-5.1,4-9.4,9.1-9.5
	c5.1-0.1,9.4,4,9.5,9.1C480.9,69.8,476.9,74,471.7,74.2z"/>
</svg>
