<svg width="543" height="424" viewBox="0 0 543 424" fill="none" xmlns="http://www.w3.org/2000/svg">
<g clip-path="url(#clip0_65_2308)">
<path d="M509.684 175.043H495.879C492.565 175.043 489.068 172.469 488.148 169.527L485.571 163.275C484.098 160.333 484.835 156.104 487.043 153.898L496.799 144.153C499.008 141.947 499.008 138.085 496.799 135.879L481.521 120.618C479.313 118.411 475.447 118.411 473.238 120.618L463.483 130.363C461.09 132.569 457.04 133.305 454.095 131.834L447.837 129.26C444.708 128.34 442.315 124.847 442.315 121.537V107.747C442.315 104.621 439.554 101.863 436.425 101.863H414.889C411.76 101.863 408.999 104.437 408.999 107.747V121.537C408.999 124.847 406.422 128.156 403.477 129.26L397.218 131.834C394.273 133.305 390.04 132.569 387.831 130.363L378.075 120.618C375.866 118.411 372.001 118.411 369.792 120.618L354.515 135.879C352.306 138.085 352.306 141.947 354.515 144.153L364.27 153.898C366.479 156.104 367.215 160.333 365.743 163.275L363.166 169.527C362.061 172.653 358.748 175.043 355.435 175.043H341.446C338.317 175.043 335.556 177.617 335.556 180.927V202.255C335.556 205.565 338.133 208.139 341.446 208.139H355.435C358.748 208.139 362.061 210.713 363.166 213.655L365.743 219.907C367.215 222.849 366.479 227.077 364.27 229.284L354.515 239.029C352.306 241.235 352.306 245.097 354.515 247.303L369.792 262.564C372.001 264.77 375.866 264.77 378.075 262.564L387.831 252.819C390.04 250.613 394.273 249.877 397.218 251.348L403.477 253.922C406.606 255.025 408.999 258.335 408.999 261.645V275.619C408.999 278.928 411.576 281.502 414.889 281.502H436.425C439.554 281.502 442.315 278.928 442.315 275.619V261.645C442.315 258.335 444.892 255.025 447.837 253.922L454.095 251.348C457.04 249.877 461.274 250.613 463.483 252.819L473.238 262.564C475.447 264.77 479.313 264.77 481.521 262.564L496.799 247.303C499.008 245.097 499.008 241.235 496.799 239.029L487.043 229.284C484.835 227.077 484.098 222.849 485.571 219.907L488.148 213.655C489.068 210.529 492.565 208.139 495.879 208.139H509.684C512.997 208.139 515.574 205.565 515.574 202.255V180.927C515.574 177.617 512.813 175.043 509.684 175.043ZM425.565 219.907C409.919 219.907 397.218 207.22 397.218 191.591C397.218 175.962 409.919 163.275 425.565 163.275C441.211 163.275 453.911 175.962 453.911 191.591C453.911 207.22 441.211 219.907 425.565 219.907Z" stroke="#140555" stroke-width="2"/>
<path d="M378.627 321.769C384.15 319.931 388.199 313.128 387.647 306.325L365.375 64.1701C365.006 59.7573 361.877 55.7122 358.564 55.1606L4.78578 0.000129358C1.47256 -0.551475 -0.736254 4.7807 0.184085 12.1354L44.1763 406.533C45.4648 417.749 50.9868 425.471 56.6929 423.632L378.627 321.769Z" fill="#140555"/>
<path d="M27.9783 25.3739C28.3464 29.2351 27.058 32.177 24.8492 31.8092C22.6403 31.4415 20.6156 28.1319 20.2475 24.2707C19.8793 20.4094 21.1678 17.4675 23.3766 17.8353C25.5854 18.203 27.6102 21.5126 27.9783 25.3739Z" fill="white"/>
<path d="M39.3905 27.0286C39.7587 30.8899 38.4702 33.6479 36.2614 33.464C34.0526 33.0963 32.0278 29.7867 31.6597 25.9254C31.2916 22.0642 32.58 19.1223 34.7888 19.4901C36.9977 19.8578 39.0224 23.1674 39.3905 27.0286Z" fill="white"/>
<path d="M50.8027 28.6835C51.1709 32.5447 49.8824 35.3027 47.6736 34.935C45.4647 34.5673 43.44 31.2576 43.0719 27.5803C42.7037 23.7191 43.9922 20.961 46.201 21.3288C48.4098 21.5126 50.4346 24.8223 50.8027 28.6835Z" fill="white"/>
<path d="M323.039 63.0669L324.143 73.9151" stroke="white" stroke-width="2"/>
<path d="M328.009 69.1347L319.174 67.8477" stroke="white" stroke-width="2"/>
<path d="M335.74 64.5381L336.108 68.9509L339.789 69.5025L339.421 65.0897L335.74 64.5381Z" fill="white"/>
<path d="M336.476 71.5249L336.844 75.9377L340.525 76.3055L339.973 72.0765L336.476 71.5249Z" fill="white"/>
<path d="M341.63 65.4575L342.182 69.6865L345.679 70.2381L345.311 66.0091L341.63 65.4575Z" fill="white"/>
<path d="M342.366 72.4443L342.734 76.6733L346.416 77.041L346.047 72.8121L342.366 72.4443Z" fill="white"/>
<path d="M408.815 273.78C408.815 273.412 407.894 271.573 406.238 268.631C388.567 239.213 361.141 217.148 328.745 205.932L287.882 191.775C256.775 182.765 226.956 170.262 198.609 154.817L148.175 127.237C143.757 124.847 138.419 127.053 137.131 131.834C134.922 139.556 138.235 147.83 145.23 151.875L287.514 237.374C294.877 241.787 292.852 253.003 284.385 254.474L230.085 263.851C218.673 265.873 207.997 271.022 199.53 278.744L194.928 282.789C191.062 286.283 189.59 291.983 191.431 296.947C193.639 303.015 200.082 306.692 206.34 305.221L259.352 294.005L288.986 300.992C312.915 306.692 338.133 303.566 359.853 292.35L408.815 273.78Z" fill="#FF74B1"/>
<path d="M246.467 193.062L200.818 226.709L219.593 315.15C232.11 310.921 239.656 298.234 237.263 285.363L268.187 276.905L319.542 247.67L246.467 193.062Z" fill="#FF74B1"/>
<path d="M233.03 262.196L229.901 244.729L244.994 235.167L261.192 243.625L264.137 257.416" stroke="#140555" stroke-width="2" stroke-miterlimit="10" stroke-linecap="round" stroke-linejoin="round"/>
<path d="M264.874 270.838L270.948 293.454C273.341 302.463 269.291 311.84 261.008 316.069L229.533 286.283L264.874 270.838Z" fill="#FF74B1"/>
<path d="M215.728 305.221L259.168 296.212L272.789 299.338" stroke="#140555" stroke-width="2" stroke-miterlimit="10" stroke-linecap="round" stroke-linejoin="round"/>
<path d="M230.269 205.381L287.33 237.558C294.693 241.971 292.668 253.187 284.201 254.658L234.871 262.564C227.14 263.851 215.359 265.873 208.917 269.919" stroke="#140555" stroke-width="2" stroke-miterlimit="10" stroke-linecap="round" stroke-linejoin="round"/>
<path d="M217.568 238.477L230.085 244.361" stroke="#140555" stroke-width="2" stroke-miterlimit="10" stroke-linecap="round" stroke-linejoin="round"/>
<path d="M240.024 220.826L244.994 235.167" stroke="#140555" stroke-width="2" stroke-miterlimit="10" stroke-linecap="round" stroke-linejoin="round"/>
<path d="M543 329.859L359.3 221.193L344.759 270.102L473.791 399.729C503.425 381.343 527.354 357.256 543 329.859Z" fill="#FF74B1"/>
<path d="M82.0942 226.526L71.7864 221.561L61.4786 216.781L70.682 210.161L80.0695 203.726" stroke="white" stroke-width="2"/>
<path d="M105.655 224.319L114.858 217.884L124.246 211.264L113.938 206.484L103.63 201.703" stroke="white" stroke-width="2"/>
<path d="M98.4763 194.349L86.88 233.696" stroke="white" stroke-width="2"/>
<path d="M143.573 74.6505C143.389 73.5473 143.389 72.2602 143.389 70.9731C143.389 54.0572 157.01 40.451 173.944 40.451C176.889 40.451 179.65 40.8187 182.227 41.5542C185.172 19.6739 203.947 2.94189 226.587 2.94189C251.253 2.94189 271.316 22.9835 271.316 47.6219C271.316 47.8057 271.316 47.8057 271.316 47.9896C284.937 49.4605 295.429 61.0442 295.429 75.0182C295.429 90.0954 283.28 102.415 268.187 102.415H222.17H208.733H196.768H169.895H145.229C144.861 102.415 144.493 102.415 144.125 102.415C136.394 102.415 130.136 96.1631 130.136 88.4406C130.136 81.0859 136.026 74.8343 143.573 74.6505Z" fill="#4B7BEC"/>
<path d="M220.145 33.4644V81.0862" stroke="#140555" stroke-width="2"/>
<path d="M202.291 64.9058L220.145 82.9248L238.184 64.9058" stroke="#140555" stroke-width="2"/>
<path d="M95.3471 90.8309L67.1848 118.779H57.9814V109.402L85.9597 81.4536L95.3471 90.8309Z" stroke="white" stroke-width="2" stroke-miterlimit="10"/>
<path d="M61.1105 106.276L70.3139 115.653" stroke="white" stroke-width="2" stroke-miterlimit="10"/>
<path d="M76.7563 129.259L81.542 173.02" stroke="white" stroke-width="2" stroke-dasharray="2 2"/>
<path d="M90.3773 251.348L95.1631 295.108" stroke="white" stroke-width="2" stroke-dasharray="2 2"/>
<path d="M81.5421 356.337L112.834 324.896" stroke="white" stroke-width="2"/>
<path d="M85.4075 350.821L91.6658 357.256" stroke="white" stroke-width="2"/>
<path d="M92.402 345.305L98.8444 351.74" stroke="white" stroke-width="2"/>
<path d="M89.2729 348.431L93.3224 352.476" stroke="white" stroke-width="2"/>
<path d="M113.938 323.24C110.993 326.182 106.391 326.182 103.63 323.24C100.685 320.298 100.685 315.702 103.63 312.944C106.575 310.002 111.177 310.002 113.938 312.944C116.883 315.702 116.883 320.482 113.938 323.24Z" stroke="white" stroke-width="2"/>
<path d="M124.614 333.905C121.669 336.847 117.067 336.847 114.306 333.905C111.361 330.963 111.361 326.366 114.306 323.608C117.251 320.666 121.853 320.666 124.614 323.608C127.375 326.366 127.375 330.963 124.614 333.905Z" stroke="white" stroke-width="2"/>
<path d="M128.663 319.195C125.718 322.137 121.117 322.137 118.356 319.195C115.411 316.254 115.411 311.657 118.356 308.899C121.301 305.957 125.902 305.957 128.663 308.899C131.608 311.657 131.608 316.254 128.663 319.195Z" stroke="white" stroke-width="2"/>
</g>
<defs>
<clipPath id="clip0_65_2308">
<rect width="543" height="424" fill="white"/>
</clipPath>
</defs>
</svg>
