<?xml version="1.0" encoding="UTF-8"?>
<svg version="1.1" xmlns="http://www.w3.org/2000/svg" width="640" height="361">
<path d="M0 0 C0.84046875 0.08507812 1.6809375 0.17015625 2.546875 0.2578125 C12.76937149 2.07707035 21.37968833 8.08600388 30.15722656 13.32080078 C34.79232988 16.0587122 39.49205271 18.67992138 44.1875 21.3125 C55.91331533 27.92106675 67.56463441 34.65712637 79.21728516 41.39355469 C85.91130948 45.25797652 92.62751692 49.08354812 99.34765625 52.90234375 C107.92372901 57.78500073 116.45683252 62.73715936 124.94140625 67.77734375 C126.29960462 68.58401565 127.65895776 69.38874684 129.01953125 70.19140625 C130.87195073 71.28652398 132.71809525 72.39145119 134.5625 73.5 C136.14224609 74.44359375 136.14224609 74.44359375 137.75390625 75.40625 C138.49511719 75.9321875 139.23632812 76.458125 140 77 C140 77.66 140 78.32 140 79 C140.5878125 79.23847656 141.175625 79.47695312 141.78125 79.72265625 C144.47797989 81.27517504 145.71168295 82.89727692 147.5 85.4375 C148.0671875 86.21996094 148.634375 87.00242187 149.21875 87.80859375 C154.5966186 97.44394165 155.58502864 106.19365298 155.51757812 117.10327148 C155.52301027 118.5928007 155.53013902 120.08232454 155.53881836 121.57183838 C155.55692667 125.58646363 155.55003602 129.60067392 155.53730202 133.61530566 C155.52710715 137.83640759 155.53658575 142.05747625 155.54284668 146.27857971 C155.55010513 153.36555291 155.54058376 160.45235888 155.52148438 167.53930664 C155.49972746 175.70610515 155.50676559 183.87250395 155.52879 192.03929275 C155.54700567 199.07831957 155.54947208 206.11722681 155.53903532 213.15626961 C155.53283304 217.3484066 155.53187373 221.54035641 155.54518127 225.732481 C155.55682919 229.67668009 155.54855319 233.62036951 155.52560425 237.56451416 C155.52036407 239.00271323 155.52174935 240.440956 155.53065491 241.87913704 C155.60569559 255.24076298 153.36987259 266.10288941 144 276 C137.69872138 282.27168765 130.84722117 286.78064043 123.125 291.125 C122.11308594 291.70636719 121.10117187 292.28773438 120.05859375 292.88671875 C114.23811279 296.21803115 108.36718377 299.45152691 102.47363281 302.65136719 C95.48954396 306.45911559 88.52190713 310.34912784 81.8125 314.625 C77.94762409 317.0867044 73.93446023 319.23646383 69.90234375 321.41015625 C65.99007798 323.55321435 62.15398497 325.81789505 58.30859375 328.078125 C54.51906739 330.27936109 50.69979463 332.42336711 46.875 334.5625 C42.50683748 337.00781301 38.15822052 339.47002442 33.875 342.0625 C16.70901889 352.41978945 2.3847991 360.38557019 -18.26953125 356.36328125 C-29.09759498 352.69594507 -38.97360286 345.77069177 -48.72802734 339.94238281 C-54.12091756 336.74093269 -59.56166523 333.62340376 -65 330.5 C-73.67940949 325.50094695 -82.34710716 320.48232017 -91 315.4375 C-91.96035156 314.87804687 -92.92070312 314.31859375 -93.91015625 313.7421875 C-98.40815527 311.11677316 -102.8912501 308.47025206 -107.3515625 305.78125 C-110.65374165 303.79414121 -113.97226844 301.87398654 -117.375 300.0625 C-122.29868088 297.40329682 -127.14011385 294.62512028 -131.95703125 291.77734375 C-133.98002596 290.59574864 -136.01939078 289.44173135 -138.07421875 288.31640625 C-148.53636845 282.51600828 -157.01185049 276.09608768 -162 265 C-162.30550781 264.36964844 -162.61101562 263.73929687 -162.92578125 263.08984375 C-165.56227892 257.40450517 -166.12310167 251.97541826 -166.14044189 245.77180481 C-166.14615204 244.54257294 -166.15186218 243.31334106 -166.15774536 242.04685974 C-166.15899048 240.69766246 -166.16011563 239.34846505 -166.16113281 237.99926758 C-166.16576593 236.56797153 -166.17079125 235.13667671 -166.17617798 233.7053833 C-166.18925736 229.82702498 -166.19573832 225.94868393 -166.20018864 222.07030702 C-166.20312689 219.64297077 -166.20723312 217.21563917 -166.21169281 214.78830528 C-166.22535667 207.18131751 -166.23502847 199.57434044 -166.2388947 191.96734124 C-166.24337133 183.20937494 -166.26090549 174.45156503 -166.2898953 165.69364625 C-166.31156863 158.90869292 -166.32160201 152.1237834 -166.32293582 145.33879584 C-166.32397991 141.29361583 -166.32980265 137.24858304 -166.34775543 133.20343971 C-166.364334 129.39402762 -166.36634466 125.5848719 -166.35761642 121.7754364 C-166.35685122 120.38518266 -166.36111975 118.99491458 -166.37107468 117.60469627 C-166.45029659 105.84190224 -164.65479581 96.33462682 -159 86 C-158.34 86 -157.68 86 -157 86 C-156.773125 85.443125 -156.54625 84.88625 -156.3125 84.3125 C-150.67647643 74.38236323 -137.57953544 68.92421709 -128.0625 63.5 C-121.07518649 59.5037895 -114.09941001 55.5018226 -107.22265625 51.31738281 C-104.82628771 49.8970396 -102.39223559 48.56655455 -99.9375 47.25 C-95.37568938 44.78535509 -90.89876613 42.20271108 -86.4375 39.5625 C-71.08002675 30.47555216 -55.620076 21.54831357 -40.08203125 12.7734375 C-37.86472006 11.49757022 -35.68553219 10.19711415 -33.51171875 8.8515625 C-23.09224504 2.48458082 -12.37575992 -1.28427697 0 0 Z " fill="#354066" transform="translate(314,1)"/>
<path d="M0 0 C1.02574883 0.00212242 1.02574883 0.00212242 2.07221985 0.00428772 C4.25261847 0.00987749 6.43291376 0.02242803 8.61328125 0.03515625 C10.09309747 0.04017258 11.57291531 0.04473525 13.05273438 0.04882812 C16.67711682 0.05984354 20.30143895 0.07710113 23.92578125 0.09765625 C23.65126433 5.40498338 23.24531091 8.71752887 19.44580078 12.75732422 C16.80042774 15.08997729 13.89826246 16.88036345 10.86328125 18.66015625 C6.39340691 21.29309593 2.91886083 23.77135637 -0.07421875 28.09765625 C-0.60917969 28.86464844 -1.14414062 29.63164062 -1.6953125 30.421875 C-3.43409311 33.79599601 -4.29671065 37.23555292 -5.13671875 40.91015625 C-5.4609375 42.27083333 -5.78515625 43.63151042 -6.109375 44.9921875 C-6.26833252 45.66942871 -6.42729004 46.34666992 -6.59106445 47.04443359 C-10.68073639 64.42398944 -16.9557582 85.05100414 -33.07421875 95.09765625 C-34.39421875 95.09765625 -35.71421875 95.09765625 -37.07421875 95.09765625 C-37.40421875 92.78765625 -37.73421875 90.47765625 -38.07421875 88.09765625 C-38.46351563 88.90847656 -38.8528125 89.71929687 -39.25390625 90.5546875 C-46.06366402 104.03298686 -54.47759246 114.03034404 -69.07421875 119.09765625 C-72.49609375 119.2734375 -72.49609375 119.2734375 -75.07421875 119.09765625 C-73.70412319 115.31971948 -71.94752454 112.23352528 -69.69921875 108.91015625 C-64.50929449 100.85496131 -61.6918606 93.67110499 -61.07421875 84.09765625 C-61.43773437 84.83371094 -61.80125 85.56976563 -62.17578125 86.328125 C-67.8470005 97.33610699 -67.8470005 97.33610699 -73.07421875 100.09765625 C-78.30849594 100.60855255 -83.41545592 99.2565883 -88.49609375 98.12109375 C-103.90251201 94.71070186 -121.46355635 91.37926109 -136.07421875 99.09765625 C-137.02683594 99.59136719 -137.97945312 100.08507812 -138.9609375 100.59375 C-141.69033506 102.05501625 -144.38763242 103.55936892 -147.07421875 105.09765625 C-156.40197223 110.42780109 -166.52882694 110.70713454 -177.07421875 110.09765625 C-177.73421875 109.76765625 -178.39421875 109.43765625 -179.07421875 109.09765625 C-178.51171875 107.22265625 -178.51171875 107.22265625 -177.07421875 105.09765625 C-173.44921875 103.84765625 -173.44921875 103.84765625 -170.07421875 103.09765625 C-170.07421875 102.43765625 -170.07421875 101.77765625 -170.07421875 101.09765625 C-173.70421875 101.09765625 -177.33421875 101.09765625 -181.07421875 101.09765625 C-181.07421875 99.77765625 -181.07421875 98.45765625 -181.07421875 97.09765625 C-175.81288935 93.92538411 -171.28998031 93.54497234 -165.32421875 93.16015625 C-154.84684637 92.22103972 -147.72071643 91.50588675 -140.68237305 83.16699219 C-139.64952429 81.9094976 -138.62104934 80.64839815 -137.59692383 79.38378906 C-125.48542433 64.60037956 -106.0204694 60.28645793 -88.02807617 56.97973633 C-72.63751413 54.15105405 -58.01267806 50.79955198 -46.07421875 40.09765625 C-45.42066406 39.5253125 -44.76710938 38.95296875 -44.09375 38.36328125 C-39.2899305 33.875881 -35.61088582 28.81502462 -31.85791016 23.46069336 C-15.36785125 -0.06272592 -15.36785125 -0.06272592 0 0 Z " fill="#FBFBFC" transform="translate(382.07421875,122.90234375)"/>
<path d="M0 0 C0.50546036 2.08201528 1.00416835 4.16567067 1.5 6.25 C1.7784375 7.41015625 2.056875 8.5703125 2.34375 9.765625 C3 13 3 13 3 17 C-2.86448454 16.7444669 -6.65757571 16.34242429 -11 12 C-10.44040477 8.17753412 -8.78682643 6.41028259 -6.0625 3.75 C-5.35222656 3.04359375 -4.64195312 2.3371875 -3.91015625 1.609375 C-2 0 -2 0 0 0 Z " fill="#EDEEF1" transform="translate(362,213)"/>
<path d="M0 0 C1.670625 0.061875 1.670625 0.061875 3.375 0.125 C2.625 4.875 2.625 4.875 0.375 7.125 C-3.25 6.75 -3.25 6.75 -6.625 6.125 C-5.71577947 1.57889733 -4.95184304 0.17075321 0 0 Z " fill="#454F72" transform="translate(379.625,127.875)"/>
<path d="M0 0 C0.33 0 0.66 0 1 0 C0.67 3.3 0.34 6.6 0 10 C-0.66 9.34 -1.32 8.68 -2 8 C-2.99 8.495 -2.99 8.495 -4 9 C-2.80100302 5.9168649 -1.52299523 2.93720508 0 0 Z " fill="#6B738F" transform="translate(321,206)"/>
</svg>
