<?xml version="1.0" encoding="UTF-8"?>
<svg version="1.1" xmlns="http://www.w3.org/2000/svg" width="650" height="366">
<path d="M0 0 C214.5 0 429 0 650 0 C650 120.78 650 241.56 650 366 C435.5 366 221 366 0 366 C0 245.22 0 124.44 0 0 Z " fill="#FEFEFE" transform="translate(0,0)"/>
<path d="M0 0 C0.99 0.495 0.99 0.495 2 1 C2.00808685 1.84080612 2.01617371 2.68161224 2.02450562 3.54789734 C2.10250282 11.47847234 2.18980903 19.40887876 2.28752708 27.33923626 C2.33743569 31.41614579 2.38376611 35.4930301 2.421875 39.57006836 C2.45879662 43.50592374 2.50517505 47.44156525 2.55806351 51.37723732 C2.57657097 52.8774623 2.59169237 54.37773307 2.60334396 55.87802696 C2.62026923 57.98230177 2.6493183 60.08609067 2.68115234 62.19018555 C2.69447601 63.38709518 2.70779968 64.58400482 2.7215271 65.81718445 C2.99711408 68.96701533 3.69017773 71.14739997 5 74 C6.84648567 80.39986132 8.19312465 86.8977665 9.4375 93.4375 C10.61056692 99.48282897 12.19305353 105.255824 14.1328125 111.09765625 C15.46288927 115.54921948 16.14596752 119.91916841 16.1875 124.5625 C16.20167969 125.28566406 16.21585938 126.00882812 16.23046875 126.75390625 C15.93991598 129.58556463 15.36120042 131.48456531 14 134 C12.15372841 135.32358283 10.29842964 136.63460663 8.4375 137.9375 C4.78262013 140.93184568 3.15564473 143.54379479 2.64746094 148.29833984 C2.615817 152.24515577 2.6909444 156.18075868 2.8125 160.125 C3.15795012 173.20397916 3.15795012 173.20397916 0.60791016 177.15917969 C-3.06339227 180.37516523 -7.34894051 181.93468695 -11.96875 183.34228516 C-14.82061463 184.26571344 -17.29073308 185.68372399 -19.875 187.1875 C-20.73996094 187.65542969 -21.60492188 188.12335938 -22.49609375 188.60546875 C-25.01781947 190.00992442 -27.4771182 191.49101782 -29.9375 193 C-33.52326462 195.1843661 -37.16106226 197.10281311 -40.9375 198.9375 C-45.94803519 201.39791625 -50.61827746 204.15627134 -55.27734375 207.2265625 C-57.09585497 208.41107339 -58.94338112 209.55215927 -60.81640625 210.6484375 C-65.59880828 213.48196082 -69.50739846 216.28579079 -73.15234375 220.5078125 C-77.82911032 225.81874162 -82.60031472 231.02122412 -87.52905273 236.09887695 C-88.47524694 237.08213822 -89.4123603 238.07421217 -90.34057617 239.07446289 C-99.07899728 248.47440061 -99.07899728 248.47440061 -105.27734375 249.2421875 C-109.20328826 249.22858409 -112.84792843 248.66048592 -116.625 247.5625 C-117.64851563 247.27503906 -118.67203125 246.98757813 -119.7265625 246.69140625 C-120.47679687 246.46324219 -121.22703125 246.23507812 -122 246 C-120.74245929 242.22737788 -119.77725306 242.07775375 -116.3125 240.3125 C-112.92112526 238.54791839 -109.55923617 236.76570294 -106.26171875 234.83203125 C-105.63676514 234.4661792 -105.01181152 234.10032715 -104.36791992 233.72338867 C-103.13768545 232.99997672 -101.90990543 232.27237187 -100.68481445 231.5402832 C-97.88899307 229.90908908 -96.2977587 229 -93 229 C-92.67 228.01 -92.34 227.02 -92 226 C-91.01 225.67 -90.02 225.34 -89 225 C-88.154375 224.154375 -87.30875 223.30875 -86.4375 222.4375 C-85.2309375 221.2309375 -85.2309375 221.2309375 -84 220 C-83.34 220 -82.68 220 -82 220 C-81.75378906 219.36964844 -81.50757813 218.73929688 -81.25390625 218.08984375 C-79.69488887 215.49148145 -78.82044709 215.2997616 -75.9375 214.5625 C-67.47692984 212.37468529 -59.9575517 206.80809547 -52.5625 202.3125 C-45.8134746 198.23604804 -39.02052094 194.26132102 -32.125 190.4375 C-31.39482666 190.03249268 -30.66465332 189.62748535 -29.91235352 189.21020508 C-26.8755858 187.53854756 -23.83389988 185.91724761 -20.73046875 184.37109375 C-18.44440501 183.22315616 -16.32927855 182.01552289 -14.1875 180.625 C-9.88519841 177.92803482 -5.43874136 175.46596742 -1 173 C-0.67 115.91 -0.34 58.82 0 0 Z " fill="#B8B8B8" transform="translate(474,106)"/>
<path d="M0 0 C15.37173544 2.09350243 30.31163869 5.99772972 44.6171875 12.03515625 C48.2312812 13.49856796 51.94207941 14.6791738 55.65234375 15.875 C59.91827102 17.91923803 61.54397851 21.66446652 63.3046875 25.91796875 C64.61781386 29.84997072 65.30237621 33.92095267 66 38 C61.83196796 36.73306515 58.29464561 35.17678737 54.5625 32.9375 C53.52222656 32.31875 52.48195313 31.7 51.41015625 31.0625 C49.0402959 29.6291824 46.673229 28.19186582 44.30859375 26.75 C37.54967037 22.64052586 30.79500026 18.81184045 23.67578125 15.34375 C19.91898281 13.45712422 16.45755774 11.39369382 13 9 C13 8.34 13 7.68 13 7 C12.34 6.938125 11.68 6.87625 11 6.8125 C6.84776917 5.68793748 3.45699326 3.53913152 0 1 C0 0.67 0 0.34 0 0 Z " fill="#19212E" transform="translate(388,53)"/>
<path d="M0 0 C0.98613281 0.37125 1.97226562 0.7425 2.98828125 1.125 C4.00277344 1.49625 5.01726562 1.8675 6.0625 2.25 C6.80113281 2.53875 7.53976562 2.8275 8.30078125 3.125 C8.30078125 3.785 8.30078125 4.445 8.30078125 5.125 C7.15222656 5.68445313 6.00367188 6.24390625 4.8203125 6.8203125 C0.4204204 9.02074237 -3.79379318 11.47225157 -8.01171875 14 C-13.68701776 17.37273503 -19.39615042 20.63687699 -25.21484375 23.7578125 C-27.81622063 25.18938783 -30.35094809 26.70548514 -32.88671875 28.25 C-36.49526391 30.44376634 -40.14058509 32.41284382 -43.9453125 34.2421875 C-45.92834397 35.20514376 -45.92834397 35.20514376 -48.57421875 36.9375 C-49.62609375 37.5253125 -49.62609375 37.5253125 -50.69921875 38.125 C-51.35921875 37.795 -52.01921875 37.465 -52.69921875 37.125 C-47.52829217 31.67440651 -42.31410508 26.26802767 -37.06811523 20.88964844 C-35.29003636 19.0563638 -33.52196845 17.21331279 -31.7644043 15.36035156 C-29.2308514 12.69285058 -26.66294743 10.06295827 -24.0859375 7.4375 C-22.92429329 6.19069458 -22.92429329 6.19069458 -21.73918152 4.91870117 C-14.84872316 -1.97929034 -9.23673811 -2.18482507 0 0 Z " fill="#29323F" transform="translate(293.69921875,24.875)"/>
<path d="M0 0 C12.54 0 25.08 0 38 0 C38 1.32 38 2.64 38 4 C26.78 4 15.56 4 4 4 C4 11.26 4 18.52 4 26 C14.56 26 25.12 26 36 26 C36 26.99 36 27.98 36 29 C25.44 29 14.88 29 4 29 C4 37.25 4 45.5 4 54 C15.55 54 27.1 54 39 54 C39 54.99 39 55.98 39 57 C26.13 57 13.26 57 0 57 C0 38.19 0 19.38 0 0 Z " fill="#4D4D4D" transform="translate(269,163)"/>
<path d="M0 0 C0.33 0 0.66 0 1 0 C3.73667453 8.54998314 6.20357978 17.16889349 8.625 25.8125 C9.07661499 27.42209595 9.07661499 27.42209595 9.53735352 29.06420898 C15.24583032 49.52792992 15.24583032 49.52792992 14 55 C10.46608351 60.71908971 5.05445686 64.66760841 0 69 C0 46.23 0 23.46 0 0 Z " fill="#1E242F" transform="translate(476,180)"/>
<path d="M0 0 C0.33 0 0.66 0 1 0 C1 22.11 1 44.22 1 67 C-1.22828434 63.65757348 -1.93101437 60.86721273 -3 57 C-3.9568686 54.1511412 -4.97868473 51.32631306 -6 48.5 C-16.14047994 20.43797879 -16.14047994 20.43797879 -11.8125 10.1875 C-9.75926937 7.70946304 -7.78308774 6.59033585 -5 5 C-3.3142876 3.35259924 -1.6436814 1.68933922 0 0 Z " fill="#1F2736" transform="translate(173,132)"/>
<path d="M0 0 C0 3.37784496 -0.46290683 4.0137389 -2.37890625 6.66015625 C-2.88421875 7.36591797 -3.38953125 8.07167969 -3.91015625 8.79882812 C-4.72806641 9.9193457 -4.72806641 9.9193457 -5.5625 11.0625 C-6.67849375 12.61580759 -7.79437992 14.16919248 -8.91015625 15.72265625 C-9.44914551 16.46789551 -9.98813477 17.21313477 -10.54345703 17.98095703 C-12.75715827 21.049564 -14.91496241 24.15591591 -17.0703125 27.265625 C-18.7083766 29.58676846 -20.37471963 31.88110211 -22.0546875 34.171875 C-22.60060547 34.9246875 -23.14652344 35.6775 -23.70898438 36.453125 C-24.79786324 37.95432259 -25.89520124 39.44943023 -27.00195312 40.9375 C-31.11265659 46.43310706 -31.11265659 46.43310706 -32 53 C-30.12281895 56.38972419 -27.78610429 59.35041947 -25.375 62.375 C-24.10926118 64.00570645 -22.84620352 65.6384978 -21.5859375 67.2734375 C-20.97717773 68.05944336 -20.36841797 68.84544922 -19.74121094 69.65527344 C-17.27061366 72.98219664 -15.13134632 76.44775613 -13 80 C-16.27544239 79.71198696 -17.65490977 79.37384775 -19.921875 76.91796875 C-20.52515625 76.01691406 -21.1284375 75.11585938 -21.75 74.1875 C-22.42933594 73.20523438 -23.10867188 72.22296875 -23.80859375 71.2109375 C-24.53175781 70.15132813 -25.25492187 69.09171875 -26 68 C-27.58059405 65.75310883 -29.19032769 63.52949103 -30.8125 61.3125 C-31.54082031 60.29800781 -32.26914062 59.28351563 -33.01953125 58.23828125 C-33.67308594 57.49964844 -34.32664062 56.76101562 -35 56 C-35.99 56 -36.98 56 -38 56 C-39.45555762 57.47282724 -39.45555762 57.47282724 -40.7421875 59.47265625 C-41.25136719 60.20806641 -41.76054687 60.94347656 -42.28515625 61.70117188 C-42.80980469 62.48041016 -43.33445312 63.25964844 -43.875 64.0625 C-45.42512169 66.31810101 -46.97556302 68.57348144 -48.52636719 70.82861328 C-49.4886912 72.24659038 -50.43303392 73.67698572 -51.35644531 75.12060547 C-52.6328125 77.05859375 -52.6328125 77.05859375 -55 80 C-56.32 80 -57.64 80 -59 80 C-57.66363266 77.1845996 -56.16208651 74.67420269 -54.35546875 72.13671875 C-53.84306641 71.41419922 -53.33066406 70.69167969 -52.80273438 69.94726562 C-52.26970703 69.20154297 -51.73667969 68.45582031 -51.1875 67.6875 C-50.66607422 66.95337891 -50.14464844 66.21925781 -49.60742188 65.46289062 C-49.09115234 64.73650391 -48.57488281 64.01011719 -48.04296875 63.26171875 C-47.53685059 62.5454834 -47.03073242 61.82924805 -46.50927734 61.09130859 C-45.52017789 59.72077706 -44.50539276 58.36834239 -43.46337891 57.03759766 C-40.76167321 53.88693248 -40.76167321 53.88693248 -40.24438477 49.99560547 C-41.47438575 46.74713113 -43.58097422 44.08818985 -45.625 41.3125 C-46.07214355 40.6947168 -46.51928711 40.07693359 -46.97998047 39.44042969 C-50.1448961 35.09136195 -53.41987915 30.84014814 -56.8203125 26.671875 C-58 25 -58 25 -58 23 C-55.14582319 23.33603348 -53.46898754 23.53422129 -51.39428711 25.59472656 C-50.9431958 26.26987305 -50.49210449 26.94501953 -50.02734375 27.640625 C-49.52009766 28.38183594 -49.01285156 29.12304688 -48.49023438 29.88671875 C-47.97783203 30.66660156 -47.46542969 31.44648438 -46.9375 32.25 C-45.90624889 33.77692112 -44.87372593 35.30298415 -43.83984375 36.828125 C-43.35628418 37.54806641 -42.87272461 38.26800781 -42.37451172 39.00976562 C-40.69773564 41.43766591 -38.88940207 43.7345299 -37 46 C-33.00756735 44.66918912 -31.70282785 42.08905175 -29.4375 38.75 C-28.538413 37.4582727 -27.63732388 36.16793696 -26.734375 34.87890625 C-26.27740234 34.2255127 -25.82042969 33.57211914 -25.34960938 32.89892578 C-22.18376661 28.44452545 -18.78440222 24.16517862 -15.43164062 19.85107422 C-11.99704053 15.41022532 -8.60368773 10.9374427 -5.2019043 6.47143555 C-4.66992432 5.77445557 -4.13794434 5.07747559 -3.58984375 4.359375 C-3.11409912 3.73514648 -2.63835449 3.11091797 -2.14819336 2.46777344 C-1 1 -1 1 0 0 Z " fill="#3E3E3E" transform="translate(369,140)"/>
<path d="M0 0 C3.38201128 1.24910521 6.18530825 2.67097845 9.125 4.75 C12.4536311 7.02603418 15.81633579 9.04124035 19.375 10.9375 C24.09117677 13.45934452 28.58517161 16.21718047 33.07421875 19.12109375 C36.41971105 21.26953406 39.79853079 23.35859915 43.1875 25.4375 C44.29480469 26.11683594 45.40210938 26.79617188 46.54296875 27.49609375 C47.75919922 28.24052734 47.75919922 28.24052734 49 29 C45.96915047 30.51542476 43.20318056 29.5006719 40 28.875 C39.29883057 28.74101807 38.59766113 28.60703613 37.87524414 28.46899414 C30.13761712 26.92624452 22.56128501 24.8091666 14.99829102 22.57495117 C13.67170717 22.19326456 12.33852806 21.8337641 10.99975586 21.49731445 C7.46298474 20.59236705 6.14504642 20.16856746 3.6875 17.3125 C0.71322694 11.47411214 -0.26689951 6.53903806 0 0 Z " fill="#252D3C" transform="translate(200,293)"/>
<path d="M0 0 C5 0 5 0 6.54223633 1.46191406 C6.96786865 2.13963867 7.39350098 2.81736328 7.83203125 3.515625 C8.32123047 4.27359375 8.81042969 5.0315625 9.31445312 5.8125 C9.80880859 6.616875 10.30316406 7.42125 10.8125 8.25 C11.79784628 9.79708574 12.78353011 11.34395654 13.76953125 12.890625 C14.54889038 14.12993774 14.54889038 14.12993774 15.34399414 15.39428711 C21.92218985 25.74502909 28.92441994 35.83795349 35.7902832 45.99926758 C37.43196295 48.42930398 39.07244983 50.86014274 40.71289062 53.29101562 C46.75205587 62.23394716 52.82988386 71.14679578 59 80 C58.67 80.66 58.34 81.32 58 82 C49.6188644 71.19726579 41.47064768 60.31257567 33.9296875 48.8984375 C31.62035161 45.42975889 29.23676863 42.01898514 26.8359375 38.61328125 C24.76877186 35.67086888 22.72820904 32.7108182 20.6875 29.75 C18.22725939 26.18265112 15.74754384 22.63666936 13.203125 19.12890625 C12.74204346 18.49178711 12.28096191 17.85466797 11.8059082 17.19824219 C10.90752171 15.96021592 10.00513402 14.72508135 9.09838867 13.49316406 C6 9.22062969 6 9.22062969 6 7 C5.34 7 4.68 7 4 7 C4 23.5 4 40 4 57 C2.68 57 1.36 57 0 57 C0 38.19 0 19.38 0 0 Z " fill="#545454" transform="translate(221,163)"/>
<path d="M0 0 C0.99 0.33 1.98 0.66 3 1 C-1.23265669 5.25733137 -5.46855372 9.51140165 -9.70751953 13.76245117 C-11.14982749 15.20979535 -12.59123766 16.65803476 -14.03173828 18.10717773 C-16.09954572 20.18708178 -18.17053501 22.26377037 -20.2421875 24.33984375 C-20.88807831 24.99089584 -21.53396912 25.64194794 -22.19943237 26.31272888 C-23.10013962 27.21354942 -23.10013962 27.21354942 -24.01904297 28.13256836 C-24.54754852 28.66329453 -25.07605408 29.19402069 -25.62057495 29.74082947 C-27.7217625 31.65884121 -28.72799571 32.0052935 -31.609375 31.94921875 C-42 31.08333333 -42 31.08333333 -47 29 C-45.74245929 25.22737788 -44.77725306 25.07775375 -41.3125 23.3125 C-37.92112526 21.54791839 -34.55923617 19.76570294 -31.26171875 17.83203125 C-30.63676514 17.4661792 -30.01181152 17.10032715 -29.36791992 16.72338867 C-28.13768545 15.99997672 -26.90990543 15.27237187 -25.68481445 14.5402832 C-22.88899307 12.90908908 -21.2977587 12 -18 12 C-17.67 11.01 -17.34 10.02 -17 9 C-15.43359375 7.94091797 -15.43359375 7.94091797 -13.4375 6.9921875 C-12.72335937 6.64542969 -12.00921875 6.29867188 -11.2734375 5.94140625 C-10.52320313 5.58949219 -9.77296875 5.23757813 -9 4.875 C-4.17797859 2.88801494 -4.17797859 2.88801494 0 0 Z " fill="#171F2D" transform="translate(399,323)"/>
<path d="M0 0 C5.73610755 1.38119432 10.39658547 3.63564768 15.5 6.5625 C16.28463623 7.00577637 17.06927246 7.44905273 17.87768555 7.90576172 C24.72232146 11.79266807 31.49040517 15.80330565 38.20654297 19.90771484 C40.06091499 21.0370996 41.92242089 22.15400296 43.78515625 23.26953125 C44.98196683 23.99186285 46.17858944 24.71450603 47.375 25.4375 C48.43460937 26.07558594 49.49421875 26.71367187 50.5859375 27.37109375 C53 29 53 29 54 31 C55.64744719 31.7060488 57.29747363 32.40677954 58.9609375 33.07421875 C61.87218103 34.39599024 64.45652437 36.13371292 67.10546875 37.9140625 C69.07184727 39.04118256 70.80907285 39.47988494 73 40 C74.5625 41.4375 74.5625 41.4375 76 43 C79.73863765 45.4924251 82.67093867 45.63389827 87 45 C90.94731961 43.59231617 94.17158063 41.69147934 97.38671875 39.0078125 C100.08668907 36.93339584 102.45357711 35.83031167 105.625 34.625 C114.5941614 31.03074047 122.74598781 26.30370818 130.80859375 21.00390625 C133.43270655 19.80177258 134.32068307 20.1906925 137 21 C133.56501573 22.98355733 130.12659767 24.96108444 126.6875 26.9375 C125.71103516 27.50146484 124.73457031 28.06542969 123.72851562 28.64648438 C122.79072266 29.18466797 121.85292969 29.72285156 120.88671875 30.27734375 C119.59060669 31.02359009 119.59060669 31.02359009 118.26831055 31.78491211 C116 33 116 33 113 34 C112.505 34.99 112.505 34.99 112 36 C113.98 36.33 115.96 36.66 118 37 C115.3644225 37.8433848 113.67865648 37.96786565 110.875 37.6875 C105.24366708 38.14163975 101.67012645 40.99051358 97 44 C95.0754356 45.14698872 93.13788712 46.27249315 91.1875 47.375 C90.31480469 47.87773437 89.44210937 48.38046875 88.54296875 48.8984375 C85.6475671 50.15266679 84.11873695 50.47541722 81 50 C78.01953125 48.4609375 78.01953125 48.4609375 74.8125 46.375 C73.65784997 45.63625295 72.50289901 44.89797605 71.34765625 44.16015625 C70.24292969 43.44730469 69.13820313 42.73445313 68 42 C63.34868203 39.14323307 58.67523582 36.34937298 53.875 33.75 C49.56747095 31.38314217 45.4117525 28.79881488 41.25 26.1875 C40.5593042 25.75518066 39.8686084 25.32286133 39.15698242 24.87744141 C35.91303408 22.84310734 32.67878456 20.79627913 29.46484375 18.71484375 C22.83545407 14.48752137 16.50814672 11.33096058 9 9 C7.783125 8.5875 6.56625 8.175 5.3125 7.75 C4.549375 7.5025 3.78625 7.255 3 7 C4.32 6.67 5.64 6.34 7 6 C6.4946875 5.65066406 5.989375 5.30132812 5.46875 4.94140625 C4.49421875 4.25884766 4.49421875 4.25884766 3.5 3.5625 C2.8503125 3.11003906 2.200625 2.65757812 1.53125 2.19140625 C1.0259375 1.79824219 0.520625 1.40507812 0 1 C0 0.67 0 0.34 0 0 Z " fill="#CECECE" transform="translate(240,316)"/>
<path d="M0 0 C14.19 0 28.38 0 43 0 C43 0.99 43 1.98 43 3 C36.4 3 29.8 3 23 3 C23 20.82 23 38.64 23 57 C22.01 57 21.02 57 20 57 C20 39.18 20 21.36 20 3 C13.4 3 6.8 3 0 3 C0 2.01 0 1.02 0 0 Z " fill="#262626" transform="translate(358,163)"/>
<path d="M0 0 C0.99 0.495 0.99 0.495 2 1 C2.00808685 1.84080612 2.01617371 2.68161224 2.02450562 3.54789734 C2.10250282 11.47847234 2.18980903 19.40887876 2.28752708 27.33923626 C2.33743569 31.41614579 2.38376611 35.4930301 2.421875 39.57006836 C2.45879662 43.50592374 2.50517505 47.44156525 2.55806351 51.37723732 C2.57657097 52.8774623 2.59169237 54.37773307 2.60334396 55.87802696 C2.62026923 57.98230177 2.6493183 60.08609067 2.68115234 62.19018555 C2.69447601 63.38709518 2.70779968 64.58400482 2.7215271 65.81718445 C2.99748711 68.97127884 3.69096186 71.14275064 5 74 C5.59960682 76.01013564 6.16124513 78.03192633 6.6875 80.0625 C6.95949219 81.08472656 7.23148437 82.10695313 7.51171875 83.16015625 C8 86 8 86 7 90 C5.68 86.37 4.36 82.74 3 79 C3 99.79 3 120.58 3 142 C8.445 136.555 8.445 136.555 14 131 C14 134 14 134 11.91796875 136.48046875 C11.01691406 137.37378906 10.11585938 138.26710937 9.1875 139.1875 C7.84751953 140.53908203 7.84751953 140.53908203 6.48046875 141.91796875 C4 144 4 144 1 144 C0.81829467 135.37527743 0.65366614 126.75026629 0.5 118.125 C0.48812275 117.45880394 0.4762455 116.79260788 0.46400833 116.10622406 C0.00009977 89.77900488 -0.08697678 63.45590032 -0.0625 37.125 C-0.06164398 36.19753212 -0.06078796 35.27006424 -0.05990601 34.31449127 C-0.04856049 22.87630735 -0.02855104 11.43815376 0 0 Z " fill="#A7A8AA" transform="translate(474,106)"/>
<path d="M0 0 C0 1.98 0 3.96 0 6 C0.99 6 1.98 6 3 6 C4.45458984 7.52539062 4.45458984 7.52539062 5.9609375 9.65625 C6.79238281 10.82027344 6.79238281 10.82027344 7.640625 12.0078125 C8.21296875 12.83023438 8.7853125 13.65265625 9.375 14.5 C9.93960938 15.29148438 10.50421875 16.08296875 11.0859375 16.8984375 C14.57592459 21.82642853 17.84663314 26.85068183 21 32 C17.72455761 31.71198696 16.34509023 31.37384775 14.078125 28.91796875 C13.47484375 28.01691406 12.8715625 27.11585938 12.25 26.1875 C11.57066406 25.20523438 10.89132812 24.22296875 10.19140625 23.2109375 C9.46824219 22.15132812 8.74507813 21.09171875 8 20 C6.41940595 17.75310883 4.80967231 15.52949103 3.1875 13.3125 C2.09501953 11.79076172 2.09501953 11.79076172 0.98046875 10.23828125 C0.32691406 9.49964844 -0.32664062 8.76101562 -1 8 C-1.99 8 -2.98 8 -4 8 C-5.45555762 9.47282724 -5.45555762 9.47282724 -6.7421875 11.47265625 C-7.25136719 12.20806641 -7.76054687 12.94347656 -8.28515625 13.70117188 C-8.80980469 14.48041016 -9.33445312 15.25964844 -9.875 16.0625 C-11.42512169 18.31810101 -12.97556302 20.57348144 -14.52636719 22.82861328 C-15.4886912 24.24659038 -16.43303392 25.67698572 -17.35644531 27.12060547 C-18.6328125 29.05859375 -18.6328125 29.05859375 -21 32 C-22.32 32 -23.64 32 -25 32 C-23.66363266 29.1845996 -22.16208651 26.67420269 -20.35546875 24.13671875 C-19.84306641 23.41419922 -19.33066406 22.69167969 -18.80273438 21.94726562 C-18.26970703 21.20154297 -17.73667969 20.45582031 -17.1875 19.6875 C-16.66607422 18.95337891 -16.14464844 18.21925781 -15.60742188 17.46289062 C-14.57388249 16.00870974 -13.53731334 14.55667694 -12.49755859 13.10693359 C-11.5071799 11.71355763 -10.530612 10.31025107 -9.56884766 8.89697266 C-8.42639542 7.23129826 -7.2190277 5.61047812 -6 4 C-5.34 4 -4.68 4 -4 4 C-4 3.01 -4 2.02 -4 1 C-1 0 -1 0 0 0 Z " fill="#1B1B1B" transform="translate(335,188)"/>
<path d="M0 0 C8.13326209 2.10342985 14.44622791 6.30200846 21.33691406 10.90722656 C23.61981164 12.4072632 25.9588761 13.80172144 28.3125 15.1875 C31.42960252 17.03034726 34.44845555 18.95625406 37.4375 21 C41.59489163 23.8132173 45.92604891 26.18221802 50.34375 28.55859375 C52.77466933 29.87772498 55.18296758 31.21538568 57.5625 32.625 C58.18253906 32.98851562 58.80257812 33.35203125 59.44140625 33.7265625 C61.32212819 35.26319245 62.06031531 36.78402715 63 39 C60.23180068 37.65743299 57.60346421 36.19370564 54.98828125 34.57421875 C54.22966797 34.10693359 53.47105469 33.63964844 52.68945312 33.15820312 C51.12418521 32.18971772 49.5590769 31.22097432 47.99414062 30.25195312 C43.37915827 27.40987048 38.71647271 24.70082969 33.96606445 22.09155273 C31.74437283 20.85807661 29.5812449 19.5517013 27.4375 18.1875 C26.77621094 17.76855469 26.11492187 17.34960938 25.43359375 16.91796875 C24.96050781 16.61503906 24.48742187 16.31210937 24 16 C24.15597656 16.67546875 24.31195313 17.3509375 24.47265625 18.046875 C24.66730469 18.93890625 24.86195313 19.8309375 25.0625 20.75 C25.25972656 21.63171875 25.45695312 22.5134375 25.66015625 23.421875 C25.99825872 25.98679028 25.81158635 27.57091639 25 30 C23.2460356 26.25820929 22.74339212 23.13249946 22.63671875 19.0625 C20.70108956 12.79248641 13.53961845 9.77792355 8.1875 6.8125 C6.63550799 5.95084622 5.08709421 5.08270413 3.54296875 4.20703125 C2.86258545 3.8303833 2.18220215 3.45373535 1.48120117 3.06567383 C0.99240479 2.71400146 0.5036084 2.3623291 0 2 C0 1.34 0 0.68 0 0 Z " fill="#ACADAF" transform="translate(176,277)"/>
<path d="M0 0 C1.65 0 3.3 0 5 0 C5 1.32 5 2.64 5 4 C4.34 4 3.68 4 3 4 C3 21.49 3 38.98 3 57 C2.01 57 1.02 57 0 57 C0 38.19 0 19.38 0 0 Z " fill="#2C2C2C" transform="translate(221,163)"/>
<path d="M0 0 C-3.43498427 1.98355733 -6.87340233 3.96108444 -10.3125 5.9375 C-11.77719727 6.78344727 -11.77719727 6.78344727 -13.27148438 7.64648438 C-14.20927734 8.18466797 -15.14707031 8.72285156 -16.11328125 9.27734375 C-17.40939331 10.02359009 -17.40939331 10.02359009 -18.73168945 10.78491211 C-21 12 -21 12 -24 13 C-24.33 13.66 -24.66 14.32 -25 15 C-23.02 15.33 -21.04 15.66 -19 16 C-21.6355775 16.8433848 -23.32134352 16.96786565 -26.125 16.6875 C-31.75825878 17.14179506 -35.32692635 19.99297869 -40 23 C-41.94612302 24.14599286 -43.90446985 25.27150312 -45.875 26.375 C-46.75929688 26.87773437 -47.64359375 27.38046875 -48.5546875 27.8984375 C-51 29 -51 29 -55 29 C-55 28.34 -55 27.68 -55 27 C-54.071875 26.67 -53.14375 26.34 -52.1875 26 C-48.64467318 24.50603688 -45.85603542 22.46278807 -42.8125 20.125 C-38.07319745 16.57214391 -33.47939721 14.33280331 -27.9765625 12.20703125 C-20.2412998 9.07029087 -13.14754167 4.57639065 -6.19140625 0.00390625 C-3.56729345 -1.19822742 -2.67931693 -0.8093075 0 0 Z " fill="#B9B9BA" transform="translate(377,337)"/>
<path d="M0 0 C0.98613281 0.37125 1.97226562 0.7425 2.98828125 1.125 C4.00277344 1.49625 5.01726562 1.8675 6.0625 2.25 C6.80113281 2.53875 7.53976562 2.8275 8.30078125 3.125 C8.30078125 3.785 8.30078125 4.445 8.30078125 5.125 C6.98078125 5.455 5.66078125 5.785 4.30078125 6.125 C4.30078125 5.465 4.30078125 4.805 4.30078125 4.125 C3.67429687 4.06441406 3.0478125 4.00382812 2.40234375 3.94140625 C1.58507812 3.85761719 0.7678125 3.77382813 -0.07421875 3.6875 C-1.29238281 3.56568359 -1.29238281 3.56568359 -2.53515625 3.44140625 C-4.69921875 3.125 -4.69921875 3.125 -6.69921875 2.125 C-11.93329727 1.39515559 -11.93329727 1.39515559 -16.64868164 3.35736084 C-18.70227525 5.16962349 -20.59452276 7.06848107 -22.48046875 9.0546875 C-23.17942261 9.76021759 -23.87837646 10.46574768 -24.59851074 11.19265747 C-26.06661984 12.68155566 -27.52517783 14.17992501 -28.97460938 15.68701172 C-31.20183425 18.00271941 -33.45502466 20.29034859 -35.71484375 22.57421875 C-37.13829048 24.02450069 -38.56022054 25.47627313 -39.98046875 26.9296875 C-40.65533325 27.61932587 -41.33019775 28.30896423 -42.0255127 29.01950073 C-42.64035522 29.66001373 -43.25519775 30.30052673 -43.88867188 30.96044922 C-44.4330188 31.52448456 -44.97736572 32.0885199 -45.53820801 32.66964722 C-46.90709307 34.07528859 -46.90709307 34.07528859 -46.69921875 36.125 C-48.67921875 36.785 -50.65921875 37.445 -52.69921875 38.125 C-46.48562937 30.76684902 -39.90153779 23.8182284 -33.17895508 16.92504883 C-31.73216244 15.43131732 -30.2962444 13.92697696 -28.87133789 12.41235352 C-26.79452389 10.20754453 -24.68355586 8.04108396 -22.5625 5.87890625 C-21.93813553 5.20090469 -21.31377106 4.52290314 -20.67048645 3.82435608 C-14.46009096 -2.36204879 -8.19816319 -1.93916426 0 0 Z " fill="#8A8F96" transform="translate(293.69921875,24.875)"/>
<path d="M0 0 C0 16.5 0 33 0 50 C-0.33 50 -0.66 50 -1 50 C-1.43409054 45.23577939 -1.86100759 40.47098544 -2.28173828 35.70556641 C-2.42535153 34.08983699 -2.5708089 32.47427025 -2.71826172 30.85888672 C-5.12881719 4.4083699 -5.12881719 4.4083699 -2.54492188 1.18457031 C-1 0 -1 0 0 0 Z " fill="#0D141E" transform="translate(174,132)"/>
<path d="M0 0 C-10.15971938 11.49214159 -21.10986002 22.20843391 -32 33 C-32.66 32.67 -33.32 32.34 -34 32 C-24.43 22.43 -14.86 12.86 -5 3 C-8.94964765 4.57985906 -12.51306821 6.28144991 -16.23046875 8.29296875 C-16.81441406 8.52628906 -17.39835937 8.75960938 -18 9 C-18.66 8.67 -19.32 8.34 -20 8 C-16.25 5 -16.25 5 -14 5 C-13.773125 4.36707031 -13.54625 3.73414063 -13.3125 3.08203125 C-12 1 -12 1 -9.6875 0.13671875 C-8.800625 -0.01152344 -7.91375 -0.15976562 -7 -0.3125 C-6.113125 -0.47363281 -5.22625 -0.63476562 -4.3125 -0.80078125 C-2 -1 -2 -1 0 0 Z " fill="#A8AAB0" transform="translate(406,321)"/>
<path d="M0 0 C0.33 0.66 0.66 1.32 1 2 C3.02463255 2.65213292 3.02463255 2.65213292 5 3 C4.01 3.33 3.02 3.66 2 4 C0.56617247 5.58410787 0.56617247 5.58410787 -0.7421875 7.5703125 C-1.25136719 8.3025 -1.76054687 9.0346875 -2.28515625 9.7890625 C-2.80980469 10.55992187 -3.33445312 11.33078125 -3.875 12.125 C-5.42422234 14.36577046 -6.97378587 16.60628183 -8.52636719 18.84472656 C-9.49038087 20.25465247 -10.43475181 21.67826291 -11.35644531 23.11621094 C-12.6328125 25.0546875 -12.6328125 25.0546875 -15 28 C-16.32 28 -17.64 28 -19 28 C-17.66363266 25.1845996 -16.16208651 22.67420269 -14.35546875 20.13671875 C-13.84306641 19.41419922 -13.33066406 18.69167969 -12.80273438 17.94726562 C-12.26970703 17.20154297 -11.73667969 16.45582031 -11.1875 15.6875 C-10.40536133 14.58631836 -10.40536133 14.58631836 -9.60742188 13.46289062 C-8.07470475 11.30637102 -6.53807232 9.15270258 -5 7 C-4.5045166 6.30600098 -4.0090332 5.61200195 -3.49853516 4.89697266 C-2.33274397 3.26437188 -1.1664323 1.63214279 0 0 Z " fill="#2A2A2A" transform="translate(329,192)"/>
<path d="M0 0 C0.33 0 0.66 0 1 0 C1.33 8.25 1.66 16.5 2 25 C13.55 25.33 25.1 25.66 37 26 C37 26.66 37 27.32 37 28 C24.79 28 12.58 28 0 28 C0 18.76 0 9.52 0 0 Z " fill="#0B0B0B" transform="translate(270,192)"/>
<path d="M0 0 C12.21 0 24.42 0 37 0 C37 0.66 37 1.32 37 2 C25.45 2 13.9 2 2 2 C2 9.59 2 17.18 2 25 C1.67 25 1.34 25 1 25 C0.67 16.75 0.34 8.5 0 0 Z " fill="#1A1A1A" transform="translate(270,164)"/>
<path d="M0 0 C0 3.37784496 -0.46290683 4.0137389 -2.37890625 6.66015625 C-2.88478271 7.36672363 -3.39065918 8.07329102 -3.91186523 8.80126953 C-4.45657471 9.54747559 -5.00128418 10.29368164 -5.5625 11.0625 C-6.66939856 12.6027728 -7.77617001 14.14313696 -8.8828125 15.68359375 C-9.42067383 16.42722168 -9.95853516 17.17084961 -10.51269531 17.93701172 C-12.34721142 20.4816048 -14.14635726 23.04973477 -15.9375 25.625 C-16.46859375 26.37910156 -16.9996875 27.13320312 -17.546875 27.91015625 C-18.51380721 29.30077112 -19.46196849 30.70463171 -20.390625 32.12109375 C-23.55502222 36.85815827 -23.55502222 36.85815827 -26.14453125 37.68359375 C-27.06298828 37.84021484 -27.06298828 37.84021484 -28 38 C-26.2015885 33.82474056 -23.42186797 30.40460615 -20.6875 26.8125 C-20.16567139 26.12212646 -19.64384277 25.43175293 -19.10620117 24.72045898 C-17.40819299 22.47719339 -15.70469766 20.23818558 -14 18 C-13.09942871 16.81567383 -13.09942871 16.81567383 -12.18066406 15.60742188 C-9.29863825 11.81908896 -6.41287863 8.03360068 -3.51953125 4.25390625 C-3.05651611 3.64877197 -2.59350098 3.0436377 -2.11645508 2.42016602 C-1 1 -1 1 0 0 Z " fill="#353535" transform="translate(369,140)"/>
<path d="M0 0 C-2.05719173 4.89374016 -5.38292211 6.3438448 -9.875 8.8125 C-10.59558594 9.23208984 -11.31617188 9.65167969 -12.05859375 10.08398438 C-12.75855469 10.47521484 -13.45851563 10.86644531 -14.1796875 11.26953125 C-14.81632324 11.62635986 -15.45295898 11.98318848 -16.10888672 12.35083008 C-18.44099564 13.15138232 -19.70457538 12.79261197 -22 12 C-19.58064655 9.39760336 -16.92182302 7.45060128 -14 5.4375 C-12.700625 4.53837891 -12.700625 4.53837891 -11.375 3.62109375 C-7.13382397 0.72621208 -5.1691513 -0.22974006 0 0 Z " fill="#1E252B" transform="translate(298,29)"/>
<path d="M0 0 C3 0.1875 3 0.1875 6 1 C6.66 1.99 7.32 2.98 8 4 C5.36 3.67 2.72 3.34 0 3 C0 4.32 0 5.64 0 7 C0.94875 7.12375 1.8975 7.2475 2.875 7.375 C6 8 6 8 8 10 C7.44444444 14.55555556 7.44444444 14.55555556 6 16 C-0.52542373 16.23728814 -0.52542373 16.23728814 -3 15 C-3 14.01 -3 13.02 -3 12 C-0.36 12.33 2.28 12.66 5 13 C5.33 12.34 5.66 11.68 6 11 C4.88625 10.71125 3.7725 10.4225 2.625 10.125 C-1 9 -1 9 -3 7 C-2.67028521 3.70285207 -2.3773161 2.3773161 0 0 Z " fill="#424242" transform="translate(422,204)"/>
<path d="M0 0 C4.73612745 0.63511288 9.38972403 1.43877822 14.0625 2.4375 C15.22910156 2.68371094 16.39570313 2.92992187 17.59765625 3.18359375 C20.81072816 3.95458345 23.88443777 4.90457401 27 6 C27 6.33 27 6.66 27 7 C23.04 6.67 19.08 6.34 15 6 C15 6.66 15 7.32 15 8 C15.66 8 16.32 8 17 8 C17.33 8.99 17.66 9.98 18 11 C16.35 10.34 14.7 9.68 13 9 C13 8.34 13 7.68 13 7 C12.34 6.938125 11.68 6.87625 11 6.8125 C6.84776917 5.68793748 3.45699326 3.53913152 0 1 C0 0.67 0 0.34 0 0 Z " fill="#353C48" transform="translate(388,53)"/>
<path d="M0 0 C3.39937783 1.13312594 3.73608666 1.68653253 5.6015625 4.578125 C6.33101074 5.6930835 6.33101074 5.6930835 7.07519531 6.83056641 C7.58663086 7.62897949 8.09806641 8.42739258 8.625 9.25 C9.69433188 10.88866117 10.76465366 12.52667677 11.8359375 14.1640625 C12.36670898 14.97907227 12.89748047 15.79408203 13.44433594 16.63378906 C15.65888065 20.00217691 17.9442246 23.31864067 20.25 26.625 C21.34054687 28.19121094 21.34054687 28.19121094 22.453125 29.7890625 C22.96359375 30.51867187 23.4740625 31.24828125 24 32 C23.67 32.66 23.34 33.32 23 34 C17.48287283 26.88878486 12.01507223 19.75525264 6.76171875 12.4453125 C5.65438627 10.90830555 4.53380273 9.38067224 3.39453125 7.8671875 C0 3.32212885 0 3.32212885 0 0 Z " fill="#5D5D5D" transform="translate(256,211)"/>
<path d="M0 0 C6.20950991 1.60590773 11.15006209 4.11426041 16.5 7.5625 C17.12342285 7.96267334 17.7468457 8.36284668 18.38916016 8.77514648 C22.86436666 11.72873331 22.86436666 11.72873331 24 14 C18.96155059 13.43687918 15.17236327 11.06342452 10.875 8.5625 C9.80185547 7.95051758 9.80185547 7.95051758 8.70703125 7.32617188 C5.73795609 5.62519704 2.8491462 3.8994308 0 2 C0 1.34 0 0.68 0 0 Z " fill="#D0D0D0" transform="translate(176,277)"/>
<path d="M0 0 C3.50647683 1.29023531 6.43034271 2.8135998 9.5 4.9375 C12.6137603 7.06359009 15.73743309 9.10560631 19 11 C16 12 16 12 13.4375 10.8125 C12.303125 10.214375 11.16875 9.61625 10 9 C6.68737656 7.61355073 3.34630197 6.30280926 0 5 C0 3.35 0 1.7 0 0 Z " fill="#131820" transform="translate(200,293)"/>
<path d="M0 0 C5.1711115 4.54431011 8.44663108 10.15281368 12 16 C8.47327608 15.7339489 7.22126592 15.2300101 4.7265625 12.63671875 C4.03304688 11.66347656 3.33953125 10.69023437 2.625 9.6875 C1.91601562 8.72199219 1.20703125 7.75648438 0.4765625 6.76171875 C-1 4 -1 4 -0.7265625 1.64453125 C-0.36691406 0.83048828 -0.36691406 0.83048828 0 0 Z " fill="#252525" transform="translate(344,204)"/>
<path d="M0 0 C0.66 0 1.32 0 2 0 C9.18648583 17.79510777 9.18648583 17.79510777 7 24 C2.40774487 12.66287016 2.40774487 12.66287016 3 6 C2.34 6 1.68 6 1 6 C1 9.3 1 12.6 1 16 C0.67 16 0.34 16 0 16 C0 10.72 0 5.44 0 0 Z " fill="#B8B9BC" transform="translate(474,172)"/>
<path d="M0 0 C5.54621849 -0.3697479 5.54621849 -0.3697479 7.6875 1.375 C8.120625 1.91125 8.55375 2.4475 9 3 C12.05330147 5.03553431 12.58865171 5.24129596 16 5.125 C16.680625 5.10695313 17.36125 5.08890625 18.0625 5.0703125 C18.701875 5.04710937 19.34125 5.02390625 20 5 C20.99 5 21.98 5 23 5 C19.93882432 7.62386487 19.26826873 8 15 8 C14.67 8.66 14.34 9.32 14 10 C11.66390677 8.52504318 9.33109833 7.04531255 7 5.5625 C6.33226562 5.14162109 5.66453125 4.72074219 4.9765625 4.28710938 C3.30037435 3.21811183 1.64799163 2.11197395 0 1 C0 0.67 0 0.34 0 0 Z " fill="#D0D0D0" transform="translate(307,356)"/>
<path d="M0 0 C4.80270317 4.23767926 8.16705472 9.25622779 11 15 C11 15.99 11 16.98 11 18 C10.34 18 9.68 18 9 18 C7.5760131 16.28480923 6.2336784 14.5012088 4.9375 12.6875 C4.22464844 11.70136719 3.51179687 10.71523437 2.77734375 9.69921875 C1 7 1 7 0 4 C-0.66 3.34 -1.32 2.68 -2 2 C-1.34 2 -0.68 2 0 2 C0 1.34 0 0.68 0 0 Z " fill="#252525" transform="translate(226,165)"/>
<path d="M0 0 C6.10104411 6.10104411 6.93205609 19.63443941 8 28 C2.45977335 19.68966002 -0.34813727 9.92191217 0 0 Z " fill="#868B93" transform="translate(162,157)"/>
<path d="M0 0 C5.72822227 1.40282994 12.09251898 3.01437754 15.4375 8.25 C15.623125 8.8275 15.80875 9.405 16 10 C11.428721 9.45144652 7.32564205 8.58255197 3 7 C4.32 6.67 5.64 6.34 7 6 C6.4946875 5.65066406 5.989375 5.30132812 5.46875 4.94140625 C4.49421875 4.25884766 4.49421875 4.25884766 3.5 3.5625 C2.8503125 3.11003906 2.200625 2.65757812 1.53125 2.19140625 C1.0259375 1.79824219 0.520625 1.40507812 0 1 C0 0.67 0 0.34 0 0 Z " fill="#B1B2B4" transform="translate(240,316)"/>
<path d="M0 0 C-1.56097474 1.1063219 -3.12385327 2.20995785 -4.6875 3.3125 C-5.55761719 3.92738281 -6.42773438 4.54226563 -7.32421875 5.17578125 C-14.40042827 10 -14.40042827 10 -18 10 C-16.49946681 5.57685969 -13.55472294 4.3015534 -9.5625 2.1875 C-8.40878906 1.56230469 -7.25507813 0.93710937 -6.06640625 0.29296875 C-3 -1 -3 -1 0 0 Z " fill="#121820" transform="translate(373,341)"/>
<path d="M0 0 C0.33 0.66 0.66 1.32 1 2 C3.02463255 2.65213292 3.02463255 2.65213292 5 3 C4.01 3.33 3.02 3.66 2 4 C0.3258231 6.08697558 0.3258231 6.08697558 -1.1875 8.5625 C-1.71730469 9.38878906 -2.24710937 10.21507812 -2.79296875 11.06640625 C-3.39044922 12.02353516 -3.39044922 12.02353516 -4 13 C-4.66 12.67 -5.32 12.34 -6 12 C-6.33 12.66 -6.66 13.32 -7 14 C-7.66 13.67 -8.32 13.34 -9 13 C-6.03 8.71 -3.06 4.42 0 0 Z " fill="#323232" transform="translate(329,192)"/>
<path d="M0 0 C0.33 0.66 0.66 1.32 1 2 C-0.67261919 4.83023573 -2.55387311 7.47943051 -4.43359375 10.17578125 C-6.07739961 13.13955091 -6.34480625 14.67897134 -6 18 C-6.66 18 -7.32 18 -8 18 C-9.67497169 11.30011325 -9.67497169 11.30011325 -7.8359375 7.7578125 C-5.43512645 4.52913557 -3.37101614 2.24734409 0 0 Z " fill="#2E2E2E" transform="translate(343,176)"/>
<path d="M0 0 C1.66666667 1.66666667 3.33333333 3.33333333 5 5 C5.928125 5.886875 6.85625 6.77375 7.8125 7.6875 C10 10 10 10 10 12 C9.01 12 8.02 12 7 12 C6.67 12.99 6.34 13.98 6 15 C5.02980268 13.29379092 4.06010955 11.58729188 3.09375 9.87890625 C2.17718498 8.30437848 1.19010225 6.77118962 0.1875 5.25 C-0.204375 4.5075 -0.59625 3.765 -1 3 C-0.67 2.01 -0.34 1.02 0 0 Z " fill="#393939" transform="translate(324,177)"/>
<path d="M0 0 C0 4.78201596 -3.04884341 7.81825374 -5.75 11.625 C-6.55824219 12.80835938 -6.55824219 12.80835938 -7.3828125 14.015625 C-7.91132813 14.76585937 -8.43984375 15.51609375 -8.984375 16.2890625 C-9.46616211 16.97693848 -9.94794922 17.66481445 -10.44433594 18.37353516 C-12.24867483 20.25999243 -13.45317041 20.62312414 -16 21 C-14.64343733 19.19124977 -13.2867696 17.38257934 -11.9296875 15.57421875 C-10.49577612 13.66136935 -9.06378575 11.74707961 -7.6328125 9.83203125 C-7.22861084 9.2915918 -6.82440918 8.75115234 -6.40795898 8.19433594 C-5.22331418 6.61038597 -4.03938034 5.02590434 -2.85546875 3.44140625 C-1 1 -1 1 0 0 Z " fill="#6F6F6F" transform="translate(369,140)"/>
<path d="M0 0 C0.66 0 1.32 0 2 0 C2.05386629 2.12472576 2.09273071 4.24983652 2.125 6.375 C2.14820313 7.55835938 2.17140625 8.74171875 2.1953125 9.9609375 C2 13 2 13 0 15 C-3.625 14.625 -3.625 14.625 -7 14 C-7 13.01 -7 12.02 -7 11 C-4.03 11.495 -4.03 11.495 -1 12 C-0.67 8.04 -0.34 4.08 0 0 Z " fill="#434343" transform="translate(413,205)"/>
<path d="M0 0 C4.08371057 3.6125132 7.53618364 8.13508261 10 13 C9.67 13.99 9.34 14.98 9 16 C4.86805209 12.17412231 0.30230689 7.8416848 -0.3125 2.0625 C-0.209375 1.381875 -0.10625 0.70125 0 0 Z " fill="#393939" transform="translate(247,196)"/>
<path d="M0 0 C-6.93 3.96 -13.86 7.92 -21 12 C-21.33 11.01 -21.66 10.02 -22 9 C-20.88625 8.46375 -19.7725 7.9275 -18.625 7.375 C-14.3082135 5.24733121 -10.31507443 2.71676073 -6.296875 0.07421875 C-4 -1 -4 -1 0 0 Z " fill="#9C9D9D" transform="translate(377,337)"/>
<path d="M0 0 C4.87310005 0.64598366 9.63131839 1.50971736 14.4375 2.5625 C15.67371094 2.83191406 16.90992188 3.10132813 18.18359375 3.37890625 C19.57771484 3.68634766 19.57771484 3.68634766 21 4 C17.27030925 5.05154277 13.87039505 5 10 5 C9.01 5.495 9.01 5.495 8 6 C6.0546875 5.0390625 6.0546875 5.0390625 3.875 3.625 C3.15054687 3.16351563 2.42609375 2.70203125 1.6796875 2.2265625 C1.12539063 1.82179687 0.57109375 1.41703125 0 1 C0 0.67 0 0.34 0 0 Z " fill="#545A66" transform="translate(388,53)"/>
<path d="M0 0 C-3.89095157 3.40458262 -8.11365765 6.24177968 -13 8 C-13.66 7.67 -14.32 7.34 -15 7 C-11.25 4 -11.25 4 -9 4 C-8.731875 3.360625 -8.46375 2.72125 -8.1875 2.0625 C-6.08556352 -1.58823178 -3.58713791 -1.1132497 0 0 Z " fill="#B6B6B7" transform="translate(401,322)"/>
<path d="M0 0 C0.33 0 0.66 0 1 0 C1 6.6 1 13.2 1 20 C0.67 20 0.34 20 0 20 C-0.33808686 17.93827387 -0.67027361 15.8755797 -1 13.8125 C-1.185625 12.66394531 -1.37125 11.51539063 -1.5625 10.33203125 C-1.93824344 7.47034234 -2.24497216 4.87331925 -2 2 C-1.34 1.34 -0.68 0.68 0 0 Z " fill="#070C14" transform="translate(173,134)"/>
<path d="M0 0 C0.66 0 1.32 0 2 0 C2.33 0.66 2.66 1.32 3 2 C6.31544299 3.10514766 9.20410111 3.32107631 12.6875 3.5625 C13.86699219 3.64628906 15.04648437 3.73007812 16.26171875 3.81640625 C17.61716797 3.90728516 17.61716797 3.90728516 19 4 C17 6 17 6 14.390625 6.046875 C3.94208494 5.05920206 3.94208494 5.05920206 -1 3 C-0.67 2.01 -0.34 1.02 0 0 Z " fill="#4E555D" transform="translate(353,349)"/>
<path d="M0 0 C0.99 0.33 1.98 0.66 3 1 C2.125 5.875 2.125 5.875 1 7 C-5.52542373 7.23728814 -5.52542373 7.23728814 -8 6 C-8 5.01 -8 4.02 -8 3 C-5.36 3.33 -2.72 3.66 0 4 C0 2.68 0 1.36 0 0 Z " fill="#3B3B3B" transform="translate(427,213)"/>
<path d="M0 0 C3.50989295 0.64998018 5.97242212 2.15391593 9 4 C12.63202111 5.67631743 16.04216786 6.44774435 20 7 C20 7.33 20 7.66 20 8 C16.15413521 9.13009258 13.83855602 9.21324403 10.3515625 7.34765625 C9.0991801 6.6028183 7.85702285 5.84055201 6.625 5.0625 C5.98433594 4.67642578 5.34367187 4.29035156 4.68359375 3.89257812 C3.11325585 2.94334402 1.55530781 1.9736653 0 1 C0 0.67 0 0.34 0 0 Z " fill="#C6C4CC" transform="translate(373,45)"/>
<path d="M0 0 C5.31022184 -0.1831111 8.9588784 0.21460277 14 2 C16.6638527 2.44074654 19.31207432 2.72193872 22 3 C22 3.66 22 4.32 22 5 C20.68 5.33 19.36 5.66 18 6 C18 5.34 18 4.68 18 4 C16.700625 3.87625 15.40125 3.7525 14.0625 3.625 C9.28150048 3.10136672 4.66885899 2.13686165 0 1 C0 0.67 0 0.34 0 0 Z " fill="#60676D" transform="translate(280,25)"/>
<path d="M0 0 C3.3667134 5.0500701 5.03578548 11.02187 6 17 C4.68 16.34 3.36 15.68 2 15 C2.04125 14.113125 2.0825 13.22625 2.125 12.3125 C1.99944579 8.98531353 1.27344719 7.02443707 0 4 C0 2.68 0 1.36 0 0 Z " fill="#8A8E93" transform="translate(448,74)"/>
<path d="M0 0 C2.66735273 2.48952921 4.55746343 4.63408134 6 8 C1.25 7.25 1.25 7.25 -1 5 C-0.625 2.375 -0.625 2.375 0 0 Z " fill="#2C2C2C" transform="translate(350,212)"/>
<path d="M0 0 C3 0.1875 3 0.1875 6 1 C6.66 1.99 7.32 2.98 8 4 C5.36 3.67 2.72 3.34 0 3 C-0.33 3.99 -0.66 4.98 -1 6 C-1.625 4.125 -1.625 4.125 -2 2 C-1.34 1.34 -0.68 0.68 0 0 Z " fill="#5F5F5F" transform="translate(422,204)"/>
<path d="M0 0 C0 1.98 0 3.96 0 6 C0.66 6.33 1.32 6.66 2 7 C-0.31 6.67 -2.62 6.34 -5 6 C-4.67 4.35 -4.34 2.7 -4 1 C-1 0 -1 0 0 0 Z " fill="#090909" transform="translate(335,188)"/>
<path d="M0 0 C0.66 0.33 1.32 0.66 2 1 C-0.97 4.3 -3.94 7.6 -7 11 C-7.66 10.67 -8.32 10.34 -9 10 C-8.566875 9.60167969 -8.13375 9.20335937 -7.6875 8.79296875 C-7.130625 8.26316406 -6.57375 7.73335938 -6 7.1875 C-5.443125 6.66542969 -4.88625 6.14335937 -4.3125 5.60546875 C-2.683535 3.95851033 -2.683535 3.95851033 -3 1 C-2.01 0.67 -1.02 0.34 0 0 Z " fill="#919499" transform="translate(404,320)"/>
<path d="M0 0 C5.15464734 0.48324819 8.81550319 3.18610761 13 6 C9.81888031 6 8.24420962 5.40539647 5.375 4.125 C4.57835937 3.77695312 3.78171875 3.42890625 2.9609375 3.0703125 C1 2 1 2 0 0 Z " fill="#E0E1E0" transform="translate(237,313)"/>
<path d="M0 0 C1.46224799 0.42423244 2.91973412 0.86490245 4.375 1.3125 C5.18710938 1.55613281 5.99921875 1.79976563 6.8359375 2.05078125 C9 3 9 3 11 6 C6.87248551 5.39301257 3.6678852 3.96189209 0 2 C0 1.34 0 0.68 0 0 Z " fill="#C8C8C8" transform="translate(189,285)"/>
<path d="M0 0 C2.4375 1.1875 2.4375 1.1875 5 3 C5.8125 5.6875 5.8125 5.6875 6 8 C2.83884224 6.63016497 2.0072908 6.0109362 0 3 C0 2.01 0 1.02 0 0 Z " fill="#202020" transform="translate(319,172)"/>
<path d="M0 0 C1.65 1.65 3.3 3.3 5 5 C4.67 5.66 4.34 6.32 4 7 C3.01 7 2.02 7 1 7 C0.67 6.01 0.34 5.02 0 4 C-0.66 3.34 -1.32 2.68 -2 2 C-1.34 2 -0.68 2 0 2 C0 1.34 0 0.68 0 0 Z " fill="#3A3A3A" transform="translate(226,165)"/>
<path d="M0 0 C5.75 1.625 5.75 1.625 8 5 C2.46153846 4.38461538 2.46153846 4.38461538 0.125 2.4375 C-0.24625 1.963125 -0.6175 1.48875 -1 1 C-0.67 0.67 -0.34 0.34 0 0 Z " fill="#0C121B" transform="translate(211,300)"/>
<path d="M0 0 C1.32 0 2.64 0 4 0 C4 0.99 4 1.98 4 3 C3.34 3 2.68 3 2 3 C2 4.32 2 5.64 2 7 C1.34 7 0.68 7 0 7 C0 4.69 0 2.38 0 0 Z " fill="#1D1D1D" transform="translate(222,164)"/>
<path d="M0 0 C3.37503669 1.1858237 5.64722731 2.27573689 8 5 C6 6 6 6 3.4375 5.3125 C1 4 1 4 0.1875 1.875 C0.125625 1.25625 0.06375 0.6375 0 0 Z " fill="#CACACA" transform="translate(254,323)"/>
<path d="M0 0 C2.8125 0.1875 2.8125 0.1875 6 1 C7.875 3.5625 7.875 3.5625 9 6 C5.88802644 4.50164236 2.91164984 2.86022073 0 1 C0 0.67 0 0.34 0 0 Z " fill="#ADAEB0" transform="translate(230,310)"/>
<path d="M0 0 C3.37503669 1.1858237 5.64722731 2.27573689 8 5 C4.85375007 5.26218749 3.38162983 5.24754367 0.6875 3.5 C0.130625 3.005 -0.42625 2.51 -1 2 C-0.67 1.34 -0.34 0.68 0 0 Z " fill="#D3D3D3" transform="translate(296,348)"/>
<path d="M0 0 C0.99 0.33 1.98 0.66 3 1 C0.03 3.475 0.03 3.475 -3 6 C-3 5.34 -3 4.68 -3 4 C-3.66 3.67 -4.32 3.34 -5 3 C-2.6875 1.4375 -2.6875 1.4375 0 0 Z " fill="#2A313D" transform="translate(399,323)"/>
<path d="M0 0 C1.32 1.32 2.64 2.64 4 4 C3.67 4.66 3.34 5.32 3 6 C2.01 6 1.02 6 0 6 C-1.6875 3.5 -1.6875 3.5 -3 1 C-2.01 0.67 -1.02 0.34 0 0 Z " fill="#2D2D2D" transform="translate(337,194)"/>
<path d="M0 0 C2.2477975 2.05233685 3.0022242 3.00667261 4 6 C3.34 6.66 2.68 7.32 2 8 C0.4375 6.25 0.4375 6.25 -1 4 C-0.6875 1.75 -0.6875 1.75 0 0 Z " fill="#393939" transform="translate(237,181)"/>
<path d="M0 0 C1.65 1.65 3.3 3.3 5 5 C4.67 5.66 4.34 6.32 4 7 C3.01 7 2.02 7 1 7 C0.67 4.69 0.34 2.38 0 0 Z " fill="#313131" transform="translate(316,166)"/>
<path d="M0 0 C6.57403846 -0.37211538 6.57403846 -0.37211538 8.73046875 1.51171875 C9.35888672 2.24841797 9.35888672 2.24841797 10 3 C8.5199159 2.88637738 7.04089926 2.75877092 5.5625 2.625 C4.73878906 2.55539062 3.91507813 2.48578125 3.06640625 2.4140625 C2.38449219 2.27742188 1.70257813 2.14078125 1 2 C0.67 1.34 0.34 0.68 0 0 Z " fill="#81858D" transform="translate(243,322)"/>
<path d="M0 0 C0.33 0.99 0.66 1.98 1 3 C-0.9375 6.1875 -0.9375 6.1875 -3 9 C-4.125 5.25 -4.125 5.25 -3 3 C-2.34 3 -1.68 3 -1 3 C-0.67 2.01 -0.34 1.02 0 0 Z " fill="#1B1B1B" transform="translate(323,203)"/>
<path d="M0 0 C0.33 0.66 0.66 1.32 1 2 C-0.3125 4.625 -0.3125 4.625 -2 7 C-2.66 7 -3.32 7 -4 7 C-3.6875 4.625 -3.6875 4.625 -3 2 C-2.01 1.34 -1.02 0.68 0 0 Z " fill="#1F1F1F" transform="translate(343,176)"/>
</svg>
